<?xml version="1.0" encoding="utf-8"?>
<!-- Generator: Adobe Illustrator 22.1.0, SVG Export Plug-In . SVG Version: 6.00 Build 0)  -->
<svg version="1.1" xmlns="http://www.w3.org/2000/svg" xmlns:xlink="http://www.w3.org/1999/xlink" x="0px" y="0px"
	 viewBox="0 0 750 1334" style="enable-background:new 0 0 750 1334;" xml:space="preserve">
<style type="text/css">
	.st0{fill:#CCCCCC;stroke:#000000;stroke-width:0.9376;}
	.st1{fill:#666666;stroke:#000000;stroke-width:0.9376;}
	.st2{fill:#4D4D4D;stroke:#000000;stroke-width:0.9376;}
	.st3{fill:#FFFFFF;stroke:#000000;stroke-miterlimit:10;}
	.st4{display:none;}
	.st5{display:inline;fill:#231F20;stroke:#000000;stroke-width:0.9376;}
	.st6{display:inline;}
	.st7{fill:#FFFFFF;}
	.st8{stroke:#000000;stroke-width:0.9376;}
</style>
<g id="Layer_1">
	<g id="OUTLINE_1_">
		<g id="Outline">
			<g id="OUTLINE">
				<polygon class="st0" points="82.5,661.5 153.4,661.1 153.4,692.5 328.5,692.5 328.5,788.5 82.5,788.5 				"/>
				<rect x="153.5" y="641.5" class="st0" width="60" height="51"/>
				<polyline class="st0" points="151,661.1 103.8,661.1 103.8,482.5 193.5,482.5 193.5,641.5 153.2,641.3 153.2,692.9 213.2,692.9 
					213.2,641.3 153.2,641.3 153.2,692.9 213.2,692.9 213.2,641.3 				"/>
				<path class="st1" d="M308.5,518.5c-5.6-0.4-16.6-0.3-29,5c-12,5.2-19.4,12.8-23,17H193V482H85.5v-78.5h147v83h20v20h56V518.5"/>
				<path class="st0" d="M256.5,540.5c3.8-4.1,9.7-9.5,18-14c14-7.5,27.2-8.2,34-8v-12h254v59h-6v20h6v56h-19v47h-65v-35h-31v-12
					h-254v-101H256.5z"/>
				<polygon class="st1" points="213.8,692.5 328.5,692.5 328.5,645.5 364.5,645.5 364.5,641.5 213.5,641.5 				"/>
				<rect x="328.5" y="669.5" class="st0" width="19" height="23"/>
				<rect x="328.5" y="645.5" class="st0" width="19" height="24"/>
				<polygon class="st1" points="417.4,641.5 447.5,641.5 447.5,653.5 478.5,653.5 478.5,688.5 463.5,688.5 463.5,665.5 
					439.5,665.5 439.5,654.5 417.5,654.5 				"/>
				<polygon class="st0" points="328.5,692.5 347.5,692.5 347.5,645.5 364.5,645.5 364.5,641.5 417.5,641.5 417.5,654.5 
					439.5,654.5 439.5,665.5 463.5,665.5 463.5,688.5 438.5,688.5 438.5,732.5 428.5,732.5 428.5,754.5 438.5,754.5 438.5,826.5 
					420.5,826.5 420.5,819.5 392.5,828.5 392.5,822.5 376.5,822.5 376.5,828.5 347.5,820.5 347.5,824.5 328.5,824.5 				"/>
				<polygon class="st0" points="439.2,688.5 595.5,688.5 595.5,744.5 604.5,744.5 604.5,755.5 596.5,755.5 596.5,790.5 
					438.5,790.5 438.5,755.5 428.5,755.5 428.5,732.5 438.5,732.5 				"/>
				<rect x="595.5" y="755.5" class="st0" width="62" height="35"/>
				<polygon class="st1" points="595.5,688.5 688.5,688.5 688.5,790.5 657.5,790.5 657.5,755.5 604.5,755.5 604.5,744.5 
					595.5,744.5 				"/>
				<polygon id="Atrium" class="st2" points="369.8,718 401.5,718 401.6,726 409.5,726 409.5,765.7 401.5,765.7 401.5,773.6 
					369.8,773.6 369.8,765.7 361.8,765.7 361.8,726 369.8,726 				"/>
			</g>
		</g>
	</g>
</g>
<g id="Icons">
	<g id="Whale">
		<rect x="138.4" y="564.2" width="20" height="20"/>
		<g>
			<path class="st3" d="M157.3,583.5c-0.4,0-0.7-0.1-1.1-0.2c-0.4-0.1-0.7-0.2-1.1-0.2c-0.4,0-0.8,0.1-1.1,0.2s-0.7,0.2-1.1,0.2
				c-0.4,0-0.7-0.1-1.1-0.2c-0.4-0.1-0.7-0.2-1.1-0.2c-0.4,0-0.8,0.1-1.1,0.2s-0.7,0.2-1.1,0.2s-0.7-0.1-1.1-0.2
				c-0.4-0.1-0.7-0.2-1.1-0.2c-0.4,0-0.8,0.1-1.1,0.2c-0.3,0.1-0.7,0.2-1.1,0.2c-0.4,0-0.7-0.1-1.1-0.2c-0.4-0.1-0.7-0.2-1.1-0.2
				c-0.4,0-0.8,0.1-1.1,0.2c-0.3,0.1-0.7,0.2-1.1,0.2v-1.6c0.4,0,0.7-0.1,1.1-0.2c0.4-0.1,0.7-0.2,1.1-0.2c0.4,0,0.8,0.1,1.1,0.2
				s0.7,0.2,1.1,0.2c0.4,0,0.7-0.1,1.1-0.2c0.4-0.1,0.7-0.2,1.1-0.2c0.4,0,0.8,0.1,1.1,0.2s0.7,0.2,1.1,0.2c0.4,0,0.7-0.1,1.1-0.2
				c0.4-0.1,0.7-0.2,1.1-0.2c0.4,0,0.8,0.1,1.1,0.2c0.3,0.1,0.7,0.2,1.1,0.2c0.4,0,0.7-0.1,1.1-0.2c0.4-0.1,0.7-0.2,1.1-0.2
				c0.4,0,0.8,0.1,1.1,0.2c0.3,0.1,0.7,0.2,1.1,0.2V583.5z M150.1,580.1c0.1,0,0.4-0.1,0.5-0.1c0.4,0,0.8,0.1,1.1,0.2
				c0.3,0.1,0.7,0.2,1.1,0.2c0.4,0,0.7-0.1,1.1-0.2c0.2-0.1,0.5-0.2,0.7-0.2c-0.1-4.4-4.7-8.4-5-8.6c-0.2-0.2-0.4-0.7-0.3-1.2
				l1.1-3.6c0.2-0.6,0.1-1.3-0.1-1.6c-0.1-0.1-0.5-0.2-0.7,0.1l-3,3.4c-0.7,0.7-0.1,1.4-0.1,1.4c-1-0.4-2.2-0.1-2.9,0.1l-2.4,1.3
				c-0.2,0.1-0.4,0.4-0.2,0.6c0.4,0.7,1.8,0.7,4.6,0.4C150.1,571.8,150.2,579.2,150.1,580.1z"/>
		</g>
	</g>
	<g id="Wheelchair_1_" class="st4">
		<rect x="622" y="535.8" class="st5" width="20" height="20"/>
		<g id="Wheelchair" class="st6">
			<path class="st7" d="M629.2,539.4c0.9,0,1.5-0.7,1.5-1.5c0-0.9-0.7-1.5-1.5-1.5s-1.5,0.7-1.5,1.5
				C627.7,538.6,628.4,539.4,629.2,539.4z M630.3,553.5c-2.7,0-4.8-2.2-4.8-4.9c0-1.4,0.7-2.8,1.6-3.6l-0.1-1.5
				c-1.7,1-2.9,3-2.9,5.1c0,3.4,2.7,6.1,6,6.1c2.4,0,4.7-1.7,5.5-3.8l-1-1.2C634.5,551.8,632.6,553.5,630.3,553.5z M639.7,550.5H639
				l-3-4.3c-0.2-0.3-0.8-1.1-1.5-1.1H631v-1.5h3c0.4,0,0.9-0.2,0.9-0.6c0-0.4-0.4-0.6-0.9-0.6h-3v-1.5c0-0.9-0.8-1.1-1.5-1.1
				s-1.1,0.4-1.1,1.1v5.4c0.1,0.9,0.7,1.1,1.5,1.1h4.7l2.7,3.4c0.2,0.3,0.8,1.1,0.8,1.1h1.9c0.4,0,0.8-0.4,0.8-0.8
				S640.1,550.5,639.7,550.5z"/>
		</g>
	</g>
	<g id="Seal">
		<rect x="506" y="730.3" width="20" height="20"/>
		<g>
			<g>
				<path class="st7" d="M524.9,746c-0.7,0.1-1.4,0-2.1-0.1c-0.5-0.1-1-0.2-1.4-0.3c-0.2,0-0.4-0.1-0.6-0.2c0.1-0.4,0-0.7-0.1-1
					c-0.2-0.3-0.2-0.7-0.4-0.9c-1-1.4-2.3-2.5-3.9-3.2c-0.4-0.2-0.8-0.5-1-0.9c-0.2-0.4-0.5-0.8-0.7-1.2c-0.3-0.5-0.6-0.9-0.9-1.3
					c-0.3-0.4-0.4-0.8-0.5-1.3c-0.1-0.3-0.2-0.5-0.3-0.8c-0.1-0.4-0.4-0.6-0.8-0.7c-0.3-0.1-0.5-0.2-0.8-0.2h-0.6
					c-0.5,0.2-1,0.2-1.5,0.1c-0.3-0.1-0.4,0.1-0.4,0.4c0,0.1,0.1,0.2,0.1,0.3c0.3,0.3,0.6,0.7,0.9,1c0.1,0.1,0.1,0.2,0.1,0.3
					c0,0.3-0.1,0.6-0.1,0.9c-0.1,0.3-0.2,0.6-0.1,0.9c0,0.6,0.1,1.1,0.2,1.7c0.1,0.5,0.3,1.1,0.4,1.6c0.1,0.3,0.1,0.6,0.1,0.9
					c-0.1,0.7-0.3,1.4-0.5,2c-0.1,0.3-0.2,0.5-0.4,0.6c-0.4,0.2-0.8,0.4-1.1,0.6c-0.1,0-0.1,0-0.1,0.1c-0.2,0.1-0.5,0.2-0.7,0.4v0.1
					c1.2-0.1,2.5-0.2,3.7-0.3c0.2,0,0.3-0.1,0.4-0.3c0.1-0.3,0.3-0.6,0.4-0.9c0.3,0.3,0.7,0.5,1.1,0.6c1,0.3,2.1,0.5,3.2,0.6
					c0.2,0,0.5,0,0.7,0.1c0.1,0,0.1,0.1,0.2,0.1c-0.1,0.1-0.2,0.1-0.2,0.1c-0.8,0.1-1.5,0.4-2.4,0.4c-0.4,0-0.8,0-1.1,0.1
					c-0.2,0-0.3,0.1-0.4,0.1v0.1c0.1,0,0.3,0,0.4,0c0.2,0,0.4,0.1,0.6,0.2h0.1h0.4c1.1,0,2.2,0,3.4-0.1c0.3,0,0.6,0,0.8-0.3h0.1
					c0.2,0,0.5-0.1,0.6-0.1c0.1,0.1,0.2,0.3,0.3,0.3c0.8,0.2,1.6,0.4,2.4,0.2c0.2,0,0.3-0.1,0.5-0.1c0.2,0,0.3,0,0.5,0.1
					c0.1,0,0.2,0.1,0.4,0.1h0.9c0.2-0.1,0.3-0.1,0.5-0.2c0.2-0.1,0.3-0.1,0.5-0.2l0,0C525.3,746.1,525.1,746,524.9,746z"/>
			</g>
		</g>
	</g>
	<g id="Moa">
		<rect x="484" y="554.3" width="20" height="20"/>
		<g>
			<g>
				<g>
					<path class="st7" d="M501.8,563.7c0-0.1-0.1-0.1,0-0.2c0.1-0.1,0-0.2,0-0.3c0-0.1,0-0.1,0-0.2c0,0,0-0.1,0-0.1
						c-0.1-0.1-0.1-0.2-0.2-0.3c-0.1-0.1-0.2-0.2-0.2-0.3c-0.1-0.1-0.2-0.3-0.3-0.4c0,0-0.1,0-0.1,0c-0.1,0-0.1,0.1-0.2,0.1
						c-0.1,0.1-0.2,0.1-0.3,0.1c-0.1,0-0.2,0-0.3,0.1c-0.2,0.1-0.3,0.2-0.4,0.3c-0.1,0.1-0.2,0.2-0.3,0.3c0,0-0.1,0.1-0.1,0.1
						c-0.1,0.1-0.2,0.2-0.2,0.4c0,0.1-0.1,0.2-0.1,0.3c-0.1,0.1-0.1,0.2-0.1,0.3c0,0,0,0.1,0,0.1c-0.1,0-0.1,0-0.2,0
						c-0.1,0-0.1,0-0.1-0.1c-0.1-0.1-0.2-0.1-0.3-0.2c-0.1,0-0.2-0.1-0.3-0.2c0,0-0.1-0.1-0.2-0.1c0,0-0.1,0-0.1,0
						c-0.1-0.1-0.2-0.1-0.3-0.2c-0.1,0-0.1-0.1-0.2-0.1c-0.1,0-0.1,0-0.1-0.1c0-0.2,0-0.3-0.1-0.4c-0.1-0.2-0.3-0.3-0.4-0.2
						c-0.1,0-0.2,0-0.2,0c-0.1,0-0.2-0.1-0.3-0.1c0,0,0,0-0.1,0c-0.1-0.1-0.2-0.2-0.4-0.3c0,0-0.1,0-0.1,0c0,0-0.1,0-0.1,0
						c-0.2,0-0.4,0-0.5,0c-0.2,0-0.3,0.1-0.5,0c0,0,0,0,0,0c-0.1,0-0.1,0-0.1-0.1c0,0,0-0.1-0.1-0.1c-0.1,0-0.2,0-0.4,0
						c-0.1,0-0.1,0-0.2,0c-0.1,0.1-0.2,0.1-0.3,0.2c0,0-0.1,0-0.1,0c0,0,0.1-0.1,0.1-0.1c0-0.1-0.1-0.2-0.2-0.2c0,0-0.1,0-0.1,0.1
						c-0.1,0.1-0.1,0.1-0.2,0.2c-0.1,0.1-0.2,0.1-0.3,0.1c0-0.1-0.1-0.2-0.1-0.2c0,0-0.1,0-0.1,0c-0.1,0-0.2,0-0.3,0.1
						c-0.1,0.1-0.1,0.1-0.2,0c-0.1-0.1-0.1-0.1-0.2,0c0,0-0.1,0.1-0.1,0.1c-0.1,0-0.2,0.1-0.3,0.2c0,0.1-0.1,0.1-0.2,0.2
						c-0.1,0.1-0.3,0.3-0.4,0.4c0,0-0.1,0-0.1,0c-0.1,0-0.2-0.1-0.2-0.2c-0.1-0.2-0.1-0.4-0.2-0.5c0-0.1,0-0.2,0-0.2
						c0-0.2,0.1-0.3,0.1-0.5c0-0.3,0.1-0.6,0.2-0.9c0.2-0.5,0.4-1,0.6-1.6c0.1-0.3,0.2-0.7,0.3-1c0-0.2,0.1-0.5,0.1-0.7
						c0-0.1,0-0.3,0-0.4c0-0.4-0.1-0.6-0.4-0.7c0,0-0.1,0-0.1-0.1c-0.1,0-0.1,0-0.2,0c-0.1,0-0.2,0-0.3,0.1c-0.1,0-0.2,0.1-0.3,0.2
						c-0.1,0.1-0.1,0.1-0.2,0.1c-0.1,0-0.2,0-0.3,0.1c-0.1,0-0.2,0.1-0.3,0.2c0.2,0,0.4,0.1,0.6,0.1c0.2,0,0.4,0.1,0.6,0.3
						c0.1,0.1,0.2,0.2,0.2,0.3c0,0.1,0,0.2,0,0.4c0,0.3-0.1,0.6-0.2,0.9c-0.1,0.2-0.2,0.3-0.2,0.5c-0.1,0.4-0.2,0.8-0.4,1.2
						c-0.1,0.2-0.2,0.4-0.2,0.7c-0.1,0.3-0.1,0.6-0.1,0.9c0,0.1,0,0.3-0.1,0.4c0,0.1,0,0.1,0,0.2c0,0.2-0.1,0.3-0.1,0.5
						c0,0.2,0,0.5,0,0.7c0,0.1,0,0.2,0.1,0.3c0,0.3,0.1,0.6,0.3,1c0,0.1,0,0.1,0.1,0.2c0,0.1,0,0.2,0.1,0.3c0.1,0,0.1,0.1,0.1,0.2
						c0.1,0.2,0,0.4,0,0.6c0,0.2,0,0.4,0,0.5c0.1,0.2,0.1,0.5,0.2,0.7c0,0,0.1,0.1,0.1,0.1c0.2,0.1,0.3,0.3,0.5,0.4c0,0,0,0,0,0
						c0.1,0.1,0.2,0.2,0.3,0.2c0.2,0,0.5,0.1,0.7,0.1c0,0,0.1,0,0.1,0c0.1,0,0.1,0.1,0.2,0.1c0,0,0.1,0.1,0.1,0.1
						c0,0.1-0.1,0.1-0.1,0.2c-0.1,0.2-0.2,0.3-0.4,0.3c-0.2,0.1-0.4,0.1-0.5,0.2c-0.2,0-0.5,0.1-0.7,0.1c-0.2,0-0.4,0.1-0.6,0.2
						c-0.2,0.1-0.5,0.2-0.7,0.3c-0.2,0.1-0.4,0.1-0.6,0.1c-0.1,0-0.1,0-0.2,0c0,0,0,0-0.1,0c-0.1,0.1-0.2,0.1-0.3,0.1
						c0,0-0.1,0-0.1,0c-0.1,0-0.2,0.1-0.3,0.2c-0.1,0.1-0.1,0.2-0.1,0.4c0,0.2,0,0.3-0.1,0.5c0,0.2,0,0.4,0,0.7c0,0.1,0,0.1,0,0.2
						c0,0,0,0,0,0.1c0.1,0.2,0.2,0.3,0.4,0.5c0.1,0.1,0.3,0.2,0.4,0.2c0,0,0,0,0,0c0.1,0,0.1,0,0.2,0c0,0,0.1,0,0.1,0
						c0.1,0,0.1,0,0.2-0.1c0-0.1,0-0.1-0.1-0.1c0,0-0.1,0-0.1-0.1c-0.1,0-0.1,0-0.2,0c0,0-0.1,0-0.1,0c0,0-0.1-0.1-0.1-0.1
						c0,0,0,0,0,0c0.1-0.1,0.2-0.2,0.3-0.3c0,0,0,0,0-0.1c0-0.1-0.1-0.3-0.1-0.4c-0.1-0.1-0.1-0.3-0.2-0.4c0,0,0-0.1,0-0.1
						c0,0,0,0,0-0.1c0,0,0.1,0,0.2,0c0.1,0,0.1,0,0.2,0c0,0,0.1,0,0.1,0c0.4-0.2,0.8-0.4,1.3-0.5c0.4-0.1,0.8-0.2,1.2-0.3
						c0.2,0,0.4-0.1,0.6-0.1c0,0,0,0,0.1,0c0.1-0.1,0.3-0.2,0.4-0.2c0.2,0,0.3,0,0.5,0c0.1,0,0.2,0,0.3,0c0.1,0,0.2-0.1,0.3-0.2
						c0.1-0.1,0.2-0.2,0.2-0.2c0.1-0.1,0.2-0.2,0.3-0.3c0,0,0.1-0.1,0.1-0.1c0,0,0,0,0.1,0c0.1,0.1,0.3,0.1,0.4,0.2
						c0.2,0.1,0.3,0.1,0.5,0.1c0.3,0,0.6,0,1,0c0.1,0,0.2,0,0.3,0c0,0,0.1,0,0.1,0c0.1,0.1,0.2,0.1,0.3,0.2c0.1,0.1,0.2,0.1,0.3,0.2
						c0,0,0,0,0.1,0c0.1,0,0.1,0.1,0.2,0.1c0.2,0.2,0.3,0.3,0.5,0.5c0.2,0.2,0.4,0.5,0.5,0.7c0.2,0.2,0.4,0.5,0.6,0.7
						c0.2,0.2,0.4,0.4,0.7,0.6c0,0,0,0,0.1,0.1c0.1,0.2,0.2,0.3,0.4,0.4c0.2,0.1,0.4,0.1,0.6,0.1c0.3,0,0.6-0.1,0.9-0.2
						c0.2-0.1,0.3-0.2,0.4-0.4c0-0.1,0.1-0.1,0.1-0.2c0,0,0,0,0,0c0,0,0,0,0-0.1c-0.1,0-0.2,0-0.3,0c-0.1,0-0.2,0.1-0.3,0.1
						c-0.1,0-0.2,0-0.2,0.1c-0.1,0-0.2,0-0.3-0.2c0,0,0.1,0,0.1,0c0.1,0,0.1,0,0.2,0c0,0,0,0,0.1,0c0,0,0,0,0,0c0,0,0,0,0-0.1
						c-0.1-0.1-0.2-0.1-0.3-0.1c-0.2-0.1-0.5-0.1-0.8-0.1c-0.1,0-0.1,0-0.2,0c0,0,0,0-0.1,0c-0.1-0.1-0.3-0.3-0.4-0.4
						c-0.2-0.2-0.4-0.5-0.5-0.8c-0.1-0.1-0.2-0.2-0.3-0.4c0,0-0.1-0.1-0.1-0.1c0,0,0,0,0,0c0,0-0.1,0-0.1,0c0,0,0,0,0,0.1
						c0,0,0,0,0,0c-0.1-0.1-0.3-0.3-0.4-0.4c-0.1-0.2-0.2-0.3-0.2-0.5c-0.1-0.2-0.1-0.3-0.2-0.5c0-0.1-0.1-0.1-0.1-0.2
						c0,0-0.1,0-0.1,0c-0.2,0-0.3,0-0.5,0c-0.1,0-0.1-0.1-0.2-0.1c0,0-0.1-0.1-0.1-0.1c0.1,0,0.1,0,0.2,0c0.2-0.1,0.4-0.1,0.6-0.1
						c0.2,0,0.5,0,0.7,0c0.1,0,0.2,0,0.3,0c0.1,0,0.2-0.1,0.3-0.2c0.1-0.1,0.3-0.2,0.4-0.3c0.1,0,0.1-0.1,0.1-0.2
						c0-0.1,0.1-0.1,0.2-0.1c0,0,0,0,0.1,0c0.1,0,0.2,0,0.3,0c0.1,0,0.2,0,0.3-0.1c0,0,0,0,0-0.1c0,0,0,0,0,0c0,0,0-0.1,0-0.1
						c0,0,0.1,0,0.1,0c0,0,0.1,0,0.1,0c0.1,0,0.1,0,0.2-0.1c0-0.1,0-0.1,0-0.2c0,0,0,0,0-0.1c0,0,0-0.1,0-0.1
						c0.1-0.1,0.1-0.1,0.2-0.2c0.1-0.1,0.1-0.1,0.2-0.1c0,0,0.1,0,0.1,0c0,0,0,0.1,0,0.1c0,0,0,0,0.1,0.1c0,0,0,0,0-0.1
						c0,0,0-0.1,0-0.1c0,0,0-0.1,0-0.1c0.1-0.1,0.2-0.1,0.3-0.2c0.1-0.1,0.1-0.1,0.2-0.2c0.1-0.1,0.3-0.1,0.4-0.2
						c0.1,0,0.1-0.1,0.1-0.2c0,0,0-0.1-0.1-0.1c0-0.1,0-0.1,0-0.1c0,0,0,0,0.1,0c0.1,0,0.1-0.1,0.1-0.2c0-0.1,0.1-0.2,0.1-0.2
						c0-0.1,0.1-0.2,0.2-0.2c0,0,0,0,0,0c0,0,0-0.1,0-0.1c0-0.1-0.1-0.1-0.1-0.2C501.9,563.7,501.8,563.7,501.8,563.7z"/>
				</g>
			</g>
		</g>
	</g>
	<g id="Mummy">
		<rect x="138.4" y="725" width="20" height="20"/>
		<g>
			<path class="st7" d="M156.4,734.8C156.4,734.8,156.4,734.8,156.4,734.8C156.4,734.8,156.4,734.8,156.4,734.8
				C156.4,734.8,156.4,734.8,156.4,734.8C156.4,734.8,156.4,734.8,156.4,734.8C156.4,734.8,156.4,734.8,156.4,734.8
				c0-0.1,0-0.2,0-0.2c0,0,0,0,0,0c0,0,0,0,0,0c0,0,0,0,0,0l-4.3-7c0,0,0,0,0,0c0,0,0,0,0,0c0,0,0,0,0,0c0,0,0,0,0,0c0,0,0,0,0,0
				c0,0,0,0,0,0c0,0,0,0,0,0c0,0,0,0,0,0c0,0,0,0,0,0c0,0,0,0,0,0c0,0,0,0,0,0c0,0,0,0,0,0c0,0,0,0,0,0c0,0,0,0,0,0c0,0,0,0,0,0
				c0,0,0,0,0,0c0,0-0.9-0.3-2.1-0.4c0-0.4-0.2-0.7-0.5-0.8c-0.3-0.1-0.6-0.1-0.9-0.1c-0.3,0-0.6,0-0.9,0.1
				c-0.3,0.1-0.5,0.4-0.5,0.8c-1.3,0.1-2.1,0.4-2.1,0.4c0,0,0,0,0,0c0,0,0,0,0,0c0,0,0,0,0,0c0,0,0,0,0,0c0,0,0,0,0,0c0,0,0,0,0,0
				c0,0,0,0,0,0c0,0,0,0,0,0c0,0,0,0,0,0c0,0,0,0,0,0c0,0,0,0,0,0c0,0,0,0,0,0c0,0,0,0,0,0c0,0,0,0,0,0c0,0,0,0,0,0c0,0,0,0,0,0
				l-4.3,7c0,0,0,0,0,0c0,0,0,0,0,0c0,0,0,0,0,0c0,0,0,0.1,0,0.1c0,0,0,0,0,0c0,0,0,0,0,0c0,0,0,0,0,0c0,0,0,0,0,0c0,0,0,0,0,0
				c0,0,0,0,0,0c0,0,0,0,0,0c0,0,0,0,0,0l0,0c0,0,0,0.1,0.1,0.1c0,0,0,0,0,0c0,0,0,0,0,0c0,0,0,0,0,0c0,0,0.1,0,0.1,0
				c1.5,0.5,2.5,1.9,2.5,3.4v2.2c0,0.4,0.1,0.8,0.2,1.2c0,0,0,0,0,0c0.5,1.1,1.6,1.9,2.9,1.9c0.2,0,0.3-0.1,0.3-0.3v-1.8
				c0,0,0,0,0,0s0,0,0,0V740c0,0,0,0,0,0s0,0,0,0v-1.7c0,0,0,0,0,0s0,0,0,0v-1.7c0,0,0,0,0,0s0,0,0,0v-1.1c0.2,0.2,0.4,0.3,0.7,0.4
				l0.1,4.5c0,0.1,0.1,0.2,0.1,0.2c0,0,0.4,0.2,0.9,0.2s0.8-0.2,0.9-0.2c0.1-0.1,0.1-0.1,0.1-0.2l0.1-4.5c0.3-0.1,0.5-0.2,0.7-0.4
				v1.1c0,0,0,0,0,0s0,0,0,0v1.7c0,0,0,0,0,0s0,0,0,0v1.7c0,0,0,0,0,0s0,0,0,0v1.7c0,0,0,0,0,0s0,0,0,0v1.7c0,0.2,0.1,0.3,0.3,0.3
				c1.3,0,2.4-0.8,2.9-1.9c0,0,0,0,0,0c0.2-0.4,0.2-0.8,0.2-1.2v-2.2c0-1.6,1-3,2.5-3.4c0,0,0.1,0,0.1,0c0,0,0,0,0,0c0,0,0,0,0,0
				c0,0,0,0,0,0C156.3,735,156.3,734.9,156.4,734.8C156.3,734.9,156.3,734.9,156.4,734.8C156.3,734.9,156.3,734.9,156.4,734.8
				C156.4,734.9,156.4,734.9,156.4,734.8C156.4,734.8,156.4,734.8,156.4,734.8z M153.5,731h-1.7c0.1-0.9,0.2-1.7,0.3-2.3L153.5,731z
				 M151.7,731.6h2.1l0.7,1.2h-3C151.6,732.4,151.7,732,151.7,731.6z M151.4,733.6c0-0.1,0-0.2,0.1-0.3h3.4l0.7,1.2H151
				C151.2,734.2,151.3,733.9,151.4,733.6z M147.2,727.6l0.2,0.4l0.1,0.9c0,0.1,0.1,0.2,0.3,0.2c0,0,0,0,0,0c0.2,0,0.3-0.2,0.2-0.3
				l-0.1-1c0,0,0-0.1,0-0.1l-0.4-0.8c0-0.3,0.1-0.3,0.8-0.3c0.7,0,0.8,0,0.8,0.3l-0.4,0.8c0,0,0,0.1,0,0.1l-0.1,1
				c0,0.2,0.1,0.3,0.2,0.3c0.2,0,0.3-0.1,0.3-0.2l0.1-0.9l0.2-0.4c0.9,0.1,1.6,0.3,1.9,0.3c0,0.3-0.1,1-0.2,1.8h-5.9
				c-0.1-0.8-0.2-1.5-0.2-1.8C145.6,727.9,146.3,727.7,147.2,727.6z M143,731.6h2.1c0.1,0.4,0.1,0.8,0.2,1.2h-3L143,731.6z
				 M144.8,728.7c0.1,0.6,0.1,1.5,0.3,2.3h-1.7L144.8,728.7z M141.9,735.1h2.1c0.2,0,0.3-0.1,0.3-0.3c0-0.2-0.1-0.3-0.3-0.3h-2.8
				l0.7-1.2h3.4c0,0.1,0,0.2,0.1,0.3c0.1,0.3,0.2,0.6,0.3,0.9h-0.6c-0.2,0-0.3,0.1-0.3,0.3c0,0.2,0.1,0.3,0.3,0.3h0.9v1.2h-3
				c-0.1-0.1-0.1-0.2-0.2-0.2C142.6,735.6,142.3,735.3,141.9,735.1z M143.7,738.6h2.3v1.2h-2.3C143.7,739.7,143.7,738.6,143.7,738.6
				z M143.7,738c0-0.4-0.2-0.8-0.3-1.2h2.7v1.2H143.7z M143.7,740.7v-0.3h2.3v1.2h-2.2C143.8,741.2,143.7,740.9,143.7,740.7z
				 M144.2,742.1h1.9v1.2C145.3,743.1,144.6,742.7,144.2,742.1z M149.5,735.2c0-0.1-0.1-0.2-0.3-0.2c0,0,0,0,0,0
				c-0.2,0-0.3,0.1-0.3,0.3l0,0.3c0,0,0,0,0,0l-0.1,4.5c-0.1,0-0.3,0.1-0.5,0.1c-0.2,0-0.3,0-0.5-0.1l-0.1-4.5c0,0,0,0,0,0l0-0.3
				c0-0.2-0.1-0.3-0.3-0.3c0,0,0,0,0,0c-0.1,0-0.2,0.1-0.3,0.2c-0.3-0.1-0.5-0.3-0.8-0.6c0,0,0,0,0,0c0,0,0,0,0,0
				c-0.2-0.3-0.4-0.7-0.5-1.1c-0.1-0.4-0.2-1.1-0.3-1.8l1.4,0.2l-0.1,0.2c-0.1,0.1,0,0.3,0.1,0.4c0,0,0.1,0,0.2,0
				c0.1,0,0.2,0,0.2-0.1l0.4-0.6c0.1-0.1,0.1-0.2,0-0.3s-0.1-0.2-0.2-0.2l-2-0.3c0-0.2-0.1-0.5-0.1-0.7h5.8c0,0.2-0.1,0.5-0.1,0.7
				l-2,0.3c-0.1,0-0.2,0.1-0.2,0.2c0,0.1,0,0.2,0,0.3l0.4,0.6c0.1,0.1,0.1,0.1,0.2,0.1c0.1,0,0.1,0,0.2,0c0.1-0.1,0.2-0.3,0.1-0.4
				l-0.1-0.2l1.4-0.2c-0.1,0.7-0.2,1.4-0.3,1.8c-0.1,0.4-0.3,0.8-0.5,1.1c0,0,0,0,0,0c0,0,0,0,0,0
				C150,734.9,149.8,735.1,149.5,735.2z M150.8,740.3h0.9c0.2,0,0.3-0.1,0.3-0.3s-0.1-0.3-0.3-0.3h-0.9v-1.2h2.3v1.2h-0.3
				c-0.2,0-0.3,0.1-0.3,0.3s0.1,0.3,0.3,0.3h0.3v0.3c0,0.3,0,0.6-0.1,0.8h-2.2V740.3z M153.1,738h-2.3v-1.2h2.7
				C153.3,737.2,153.1,737.6,153.1,738z M150.8,743.2v-1.2h1.9C152.2,742.7,151.5,743.1,150.8,743.2z M153.9,736
				c-0.1,0.1-0.1,0.2-0.2,0.2h-3v-1.2h4.1C154.5,735.3,154.2,735.6,153.9,736z"/>
		</g>
	</g>
	<g id="Plesiosaur">
		<rect x="274.3" y="581.4" width="20" height="20"/>
		<g>
			<g>
				<path class="st7" d="M293.4,595.3c-1,0.1-1.9,0-2.9-0.2c-0.7-0.1-1.5-0.3-2.1-0.8c-0.5-0.3-0.9-0.7-1.4-1.1
					c-0.8-0.7-1.7-1.3-2.7-1.6c-0.4-0.1-0.8-0.2-1.2-0.2c-0.4,0-0.8-0.2-1.1-0.4c-0.6-0.3-1.2-0.6-1.7-1.1c-0.5-0.5-0.9-1-1.3-1.6
					c-0.5-0.7-1-1.4-1.5-2c-0.3-0.3-0.5-0.7-0.9-0.9c-0.2-0.1-0.4-0.2-0.6-0.2c0,0-0.1-0.1-0.1-0.1c-0.1,0-0.2,0-0.2,0.1
					c-0.1,0.1,0,0.1-0.1,0.2c0,0-0.2,0.2-0.2,0.3c0.1,0,0.1,0,0.2,0c0,0,0,0.1-0.1,0.1c0.1,0.1,0.1,0,0.2,0c0.3-0.1,0.5-0.1,0.7,0.1
					c0.4,0.3,0.7,0.8,1,1.2c0.4,0.7,0.8,1.4,1.2,2.1c0.4,0.7,1,1.3,1.6,1.9c0.3,0.3,0.6,0.6,0.9,0.9c0.3,0.3,0.3,0.6,0.5,1
					c0.1,0.3,0.3,0.6,0.4,1c0,0.1,0.1,0.2,0.1,0.2c0,0.8-0.1,1.7-0.1,2.5c0,0.2-0.1,0.3-0.1,0.5c0,0,0,0,0,0c-0.1,0-0.2,0.1-0.2,0.1
					c-0.1,0.1,0.1,0,0.2,0c0,0,0,0,0.1,0c0.2,0,0.3,0,0.5,0c0,0,0.1-0.1,0.1-0.2c0-0.5,0.1-0.9,0.1-1.4c0-0.1,0-0.3,0.1-0.4
					c0.1,0.6,0.5,1.2,0.4,1.8c-0.1,0-0.2,0.1-0.2,0.1c-0.1,0.1,0.1,0,0.2,0c0.2,0,0.4,0,0.6,0c0,0,0.1-0.1,0.1-0.2
					c-0.1-0.5-0.1-1-0.2-1.5c0-0.2-0.1-0.5-0.1-0.7c0.8,0.1,1.7,0.2,2.5,0.3c-0.1,0.6,0,1.3-0.3,2c0,0-0.1,0.1-0.1,0.1
					c-0.1,0.1,0.1,0,0.2,0c0.2,0,0.3,0,0.5,0c0.1,0,0.2-0.1,0.2-0.2c0-0.6,0.2-1.1,0.3-1.7c0,0,0,0,0-0.1c0,0.1,0.1,0.3,0.1,0.4
					c0.1,0.3,0.1,0.6,0.2,0.9c0.1,0.2,0.1,0.4-0.1,0.6c0,0-0.1,0.1-0.1,0.1c-0.1,0.1,0.1,0,0.3,0c0,0,0,0,0.1,0c0.1,0,0.2,0,0.3,0
					c0.1,0,0.2-0.1,0.2-0.2c0-0.2,0-0.5-0.1-0.7c-0.1-0.4-0.2-0.9-0.1-1.4c2.1,0.2,4.1,0.5,6.2,0.2c0,0,0-0.1,0-0.1
					C293.5,595.3,293.4,595.3,293.4,595.3z"/>
			</g>
		</g>
	</g>
	<g id="WorldStairs">
		<g>
			<rect x="174.7" y="657.8" width="16" height="16"/>
		</g>
		<g>
			<g id="g1327_1_">
				<path id="path1329_1_" class="st7" d="M176,670h2.5v-2.5h2.4V665h2.5v-2.5h2.5v-2.4h3.6v1.2h-2.4v2.5h-2.5v2.5h-2.5v2.5h-2.5
					v2.5H176V670z"/>
			</g>
		</g>
	</g>
	<g id="AALift">
		<rect x="230.6" y="648.8" class="st8" width="16" height="16"/>
		<g>
			<g id="g7515_1_" transform="translate(-8.19e-2,-0.5853944)">
				<g id="g2314_1_">
					<path id="path2316_1_" d="M233.1,650.3c-1,0-1.5,0.5-1.5,1.5v10.7c0,1,0.5,1.5,1.5,1.5h10.8c1,0,1.5-0.5,1.5-1.5v-10.7
						c0-1-0.5-1.5-1.5-1.5C243.8,650.3,233.1,650.3,233.1,650.3z"/>
				</g>
				<g id="g2318_1_">
					<g id="g2320_1_">
						<path id="path2322_1_" class="st7" d="M234.9,661.7v-5.2l0,0c0-0.5,0.4-0.9,0.9-0.9h5.2c0.5,0,0.9,0.4,0.9,0.9v5.2l0,0
							c0,0.6-0.4,0.9-0.9,0.9h-5.2v0C235.4,662.7,234.9,662.3,234.9,661.7z"/>
						<path id="path2324_1_" d="M235.9,656.6h5.1v5.1h-5.1V656.6z"/>
					</g>
					<g id="g2326_1_">
						<path id="path2328_1_" class="st7" d="M239.8,651.6c0-0.7,1-0.7,1,0l0,2.1l0.5-0.6c0.4-0.4,1,0.2,0.6,0.6l-1.3,1.5
							c-0.2,0.2-0.5,0.2-0.7,0l-1.3-1.5c-0.4-0.5,0.3-1,0.6-0.6l0.5,0.7L239.8,651.6z"/>
						<path id="path2330_1_" class="st7" d="M236.2,654.8c0,0.7,1,0.7,1,0l0-2.1l0.5,0.6c0.4,0.4,1-0.2,0.6-0.6l-1.3-1.5
							c-0.2-0.2-0.5-0.2-0.7,0l-1.3,1.5c-0.4,0.5,0.3,1,0.6,0.6l0.5-0.7L236.2,654.8z"/>
					</g>
					<g id="g2332_1_">
						<g id="g2334_1_">
							<path id="path2336_1_" class="st7" d="M240.8,659.5c0,0.1-0.1,0.2-0.2,0.2c0,0-1.1,0-1.1,0c-0.1,0-0.2-0.1-0.2-0.2v-1.2
								c0-0.1,0.1-0.2,0.2-0.2c0,0,1,0,1,0c0.1,0,0.2,0.1,0.2,0.2V659.5z"/>
							<g id="g2338_1_">
								<path id="path2340_1_" class="st7" d="M240.5,659.6h-0.4v1.7c0,0.3,0.4,0.3,0.4,0V659.6z"/>
								<path id="path2342_1_" class="st7" d="M240,659.6h-0.4v1.7c0,0.3,0.4,0.3,0.4,0V659.6z"/>
							</g>
							<g id="g2344_1_">
								<path id="path2346_1_" class="st7" d="M240.1,657.9c0.2,0,0.3-0.1,0.3-0.3s-0.1-0.3-0.3-0.3c-0.2,0-0.3,0.1-0.3,0.3
									S239.9,657.9,240.1,657.9z"/>
								<path id="path2348_1_" class="st7" d="M231.1,649.9"/>
							</g>
						</g>
						<g id="g2350_1_">
							<path id="path2352_1_" class="st7" d="M239.2,659.5c0,0.1-0.1,0.2-0.2,0.2c0,0-1.1,0-1.1,0c-0.1,0-0.2-0.1-0.2-0.2v-1.2
								c0-0.1,0.1-0.2,0.2-0.2c0,0,1,0,1,0c0.1,0,0.2,0.1,0.2,0.2V659.5z"/>
							<g id="g2354_1_">
								<path id="path2356_1_" class="st7" d="M239,659.6h-0.4v1.7c0,0.3,0.4,0.3,0.4,0V659.6z"/>
								<path id="path2358_1_" class="st7" d="M238.4,659.6H238v1.7c0,0.3,0.4,0.3,0.4,0V659.6z"/>
							</g>
							<g id="g2360_1_">
								<path id="path2362_1_" class="st7" d="M238.5,657.9c0.2,0,0.3-0.1,0.3-0.3s-0.1-0.3-0.3-0.3c-0.2,0-0.3,0.1-0.3,0.3
									S238.3,657.9,238.5,657.9z"/>
								<path id="path2364_1_" class="st7" d="M231.1,649.9"/>
							</g>
						</g>
						<g id="g2366_1_">
							<path id="path2368_1_" class="st7" d="M237.7,659.5c0,0.1-0.1,0.2-0.2,0.2c0,0-1.1,0-1.1,0c-0.1,0-0.2-0.1-0.2-0.2v-1.2
								c0-0.1,0.1-0.2,0.2-0.2c0,0,1,0,1,0c0.1,0,0.2,0.1,0.2,0.2V659.5z"/>
							<g id="g2370_1_">
								<path id="path2372_1_" class="st7" d="M237.4,659.6h-0.4v1.7c0,0.3,0.4,0.3,0.4,0V659.6z"/>
								<path id="path2374_1_" class="st7" d="M236.9,659.6h-0.4v1.7c0,0.3,0.4,0.3,0.4,0V659.6z"/>
							</g>
							<g id="g2376_1_">
								<path id="path2378_1_" class="st7" d="M236.9,657.9c0.2,0,0.3-0.1,0.3-0.3s-0.1-0.3-0.3-0.3c-0.2,0-0.3,0.1-0.3,0.3
									S236.7,657.9,236.9,657.9z"/>
								<path id="path2380_1_" class="st7" d="M231.1,649.9"/>
							</g>
						</g>
					</g>
				</g>
			</g>
		</g>
	</g>
	<g id="MainLift">
		<rect x="462.6" y="672" class="st8" width="16" height="16"/>
		<g>
			<g id="g7515_2_" transform="translate(-8.19e-2,-0.5853944)">
				<g id="g2314_2_">
					<path id="path2316_2_" d="M465.1,673.5c-1,0-1.5,0.5-1.5,1.5v10.7c0,1,0.5,1.5,1.5,1.5h10.8c1,0,1.5-0.5,1.5-1.5V675
						c0-1-0.5-1.5-1.5-1.5C475.8,673.5,465.1,673.5,465.1,673.5z"/>
				</g>
				<g id="g2318_2_">
					<g id="g2320_2_">
						<path id="path2322_2_" class="st7" d="M466.9,684.9v-5.2l0,0c0-0.5,0.4-0.9,0.9-0.9h5.2c0.5,0,0.9,0.4,0.9,0.9v5.2l0,0
							c0,0.6-0.4,0.9-0.9,0.9h-5.2v0C467.4,685.8,466.9,685.4,466.9,684.9z"/>
						<path id="path2324_2_" d="M467.9,679.8h5.1v5.1h-5.1V679.8z"/>
					</g>
					<g id="g2326_2_">
						<path id="path2328_2_" class="st7" d="M471.8,674.7c0-0.7,1-0.7,1,0l0,2.1l0.5-0.6c0.4-0.4,1,0.2,0.6,0.6l-1.3,1.5
							c-0.2,0.2-0.5,0.2-0.7,0l-1.3-1.5c-0.4-0.5,0.3-1,0.6-0.6l0.5,0.7L471.8,674.7z"/>
						<path id="path2330_2_" class="st7" d="M468.2,677.9c0,0.7,1,0.7,1,0l0-2.1l0.5,0.6c0.4,0.4,1-0.2,0.6-0.6l-1.3-1.5
							c-0.2-0.2-0.5-0.2-0.7,0l-1.3,1.5c-0.4,0.5,0.3,1,0.6,0.6l0.5-0.7L468.2,677.9z"/>
					</g>
					<g id="g2332_2_">
						<g id="g2334_2_">
							<path id="path2336_2_" class="st7" d="M472.8,682.7c0,0.1-0.1,0.2-0.2,0.2c0,0-1.1,0-1.1,0c-0.1,0-0.2-0.1-0.2-0.2v-1.2
								c0-0.1,0.1-0.2,0.2-0.2c0,0,1,0,1,0c0.1,0,0.2,0.1,0.2,0.2V682.7z"/>
							<g id="g2338_2_">
								<path id="path2340_2_" class="st7" d="M472.5,682.8h-0.4v1.7c0,0.3,0.4,0.3,0.4,0V682.8z"/>
								<path id="path2342_2_" class="st7" d="M472,682.8h-0.4v1.7c0,0.3,0.4,0.3,0.4,0V682.8z"/>
							</g>
							<g id="g2344_2_">
								<path id="path2346_2_" class="st7" d="M472.1,681.1c0.2,0,0.3-0.1,0.3-0.3c0-0.2-0.1-0.3-0.3-0.3c-0.2,0-0.3,0.1-0.3,0.3
									C471.7,680.9,471.9,681.1,472.1,681.1z"/>
								<path id="path2348_2_" class="st7" d="M463.1,673"/>
							</g>
						</g>
						<g id="g2350_2_">
							<path id="path2352_2_" class="st7" d="M471.2,682.7c0,0.1-0.1,0.2-0.2,0.2c0,0-1.1,0-1.1,0c-0.1,0-0.2-0.1-0.2-0.2v-1.2
								c0-0.1,0.1-0.2,0.2-0.2c0,0,1,0,1,0c0.1,0,0.2,0.1,0.2,0.2V682.7z"/>
							<g id="g2354_2_">
								<path id="path2356_2_" class="st7" d="M471,682.8h-0.4v1.7c0,0.3,0.4,0.3,0.4,0V682.8z"/>
								<path id="path2358_2_" class="st7" d="M470.4,682.8H470v1.7c0,0.3,0.4,0.3,0.4,0V682.8z"/>
							</g>
							<g id="g2360_2_">
								<path id="path2362_2_" class="st7" d="M470.5,681.1c0.2,0,0.3-0.1,0.3-0.3c0-0.2-0.1-0.3-0.3-0.3s-0.3,0.1-0.3,0.3
									C470.2,680.9,470.3,681.1,470.5,681.1z"/>
								<path id="path2364_2_" class="st7" d="M463.1,673"/>
							</g>
						</g>
						<g id="g2366_2_">
							<path id="path2368_2_" class="st7" d="M469.7,682.7c0,0.1-0.1,0.2-0.2,0.2c0,0-1.1,0-1.1,0c-0.1,0-0.2-0.1-0.2-0.2v-1.2
								c0-0.1,0.1-0.2,0.2-0.2c0,0,1,0,1,0c0.1,0,0.2,0.1,0.2,0.2V682.7z"/>
							<g id="g2370_2_">
								<path id="path2372_2_" class="st7" d="M469.4,682.8h-0.4v1.7c0,0.3,0.4,0.3,0.4,0V682.8z"/>
								<path id="path2374_2_" class="st7" d="M468.9,682.8h-0.4v1.7c0,0.3,0.4,0.3,0.4,0V682.8z"/>
							</g>
							<g id="g2376_2_">
								<path id="path2378_2_" class="st7" d="M468.9,681.1c0.2,0,0.3-0.1,0.3-0.3c0-0.2-0.1-0.3-0.3-0.3c-0.2,0-0.3,0.1-0.3,0.3
									C468.6,680.9,468.7,681.1,468.9,681.1z"/>
								<path id="path2380_2_" class="st7" d="M463.1,673"/>
							</g>
						</g>
					</g>
				</g>
			</g>
		</g>
	</g>
	<g id="MainStairs">
		<g>
			<rect x="376.9" y="655.7" width="16" height="16"/>
		</g>
		<g>
			<g id="g1327_2_">
				<path id="path1329_2_" class="st7" d="M378.3,667.9h2.5v-2.5h2.4v-2.5h2.5v-2.5h2.5V658h3.6v1.2h-2.4v2.5h-2.5v2.5h-2.5v2.5
					h-2.5v2.5h-3.7V667.9z"/>
			</g>
		</g>
	</g>
	<g id="AAStairs">
		<g>
			<rect x="231" y="672" width="16" height="16"/>
		</g>
		<g>
			<g id="g1327_3_">
				<path id="path1329_3_" class="st7" d="M232.3,684.2h2.5v-2.5h2.4v-2.5h2.5v-2.5h2.5v-2.4h3.6v1.2h-2.4v2.5h-2.5v2.5h-2.5v2.5
					H236v2.5h-3.7V684.2z"/>
			</g>
		</g>
	</g>
	<g id="FriendsRoom">
		<rect x="620.2" y="765.6" width="20" height="20"/>
		<g>
			<path class="st7" d="M624.4,774.6c1,0,1.7-0.8,1.7-1.7s-0.8-1.7-1.7-1.7s-1.7,0.8-1.7,1.7S623.5,774.6,624.4,774.6z M636.6,774.6
				c1,0,1.7-0.8,1.7-1.7s-0.8-1.7-1.7-1.7s-1.7,0.8-1.7,1.7S635.7,774.6,636.6,774.6z M637.5,775.5h-1.7c-0.5,0-0.9,0.2-1.2,0.5
				c1.1,0.6,1.9,1.7,2,3h1.8c0.5,0,0.9-0.4,0.9-0.9v-0.9C639.2,776.3,638.5,775.5,637.5,775.5z M630.5,775.5c1.7,0,3-1.4,3-3
				c0-1.7-1.4-3-3-3c-1.7,0-3,1.4-3,3C627.5,774.1,628.9,775.5,630.5,775.5z M632.6,776.4h-0.2c-0.6,0.3-1.2,0.4-1.9,0.4
				c-0.7,0-1.3-0.2-1.9-0.4h-0.2c-1.7,0-3.1,1.4-3.1,3.1v0.8c0,0.7,0.6,1.3,1.3,1.3h7.8c0.7,0,1.3-0.6,1.3-1.3v-0.8
				C635.8,777.8,634.4,776.4,632.6,776.4z M626.5,776c-0.3-0.3-0.7-0.5-1.2-0.5h-1.7c-1,0-1.7,0.8-1.7,1.7v0.9
				c0,0.5,0.4,0.9,0.9,0.9h1.8C624.7,777.7,625.4,776.6,626.5,776L626.5,776z"/>
		</g>
	</g>
	<g id="_x33_FloorStairs">
		<g>
			<rect x="425" y="716.8" width="16" height="16"/>
		</g>
		<g>
			<g id="g1327_4_">
				<path id="path1329_4_" class="st7" d="M426.3,729h2.5v-2.5h2.4V724h2.5v-2.5h2.5v-2.4h3.6v1.2h-2.4v2.5h-2.5v2.5h-2.5v2.5H430
					v2.5h-3.7V729z"/>
			</g>
		</g>
	</g>
</g>
<g id="TEXT">
</g>
</svg>
