<?xml version="1.0" encoding="utf-8"?>
<!-- Generator: Adobe Illustrator 22.1.0, SVG Export Plug-In . SVG Version: 6.00 Build 0)  -->
<svg version="1.1" xmlns="http://www.w3.org/2000/svg" xmlns:xlink="http://www.w3.org/1999/xlink" x="0px" y="0px"
	 viewBox="0 0 750 1334" style="enable-background:new 0 0 750 1334;" xml:space="preserve">
<style type="text/css">
	.st0{fill:#CCCCCC;stroke:#000000;stroke-miterlimit:10;}
	.st1{fill:#AAAAAA;stroke:#000000;stroke-miterlimit:10;}
	.st2{fill:none;}
	.st3{font-family:'Avenir-Book';}
	.st4{font-size:24px;}
	.st5{font-family:'FontAwesome5FreeSolid';}
	.st6{font-size:38.8461px;}
	.st7{fill:#FFFFFF;}
	.st8{clip-path:url(#SVGID_2_);}
	.st9{clip-path:url(#SVGID_2_);fill:#FFFFFF;}
	.st10{clip-path:url(#SVGID_4_);}
	.st11{clip-path:url(#SVGID_4_);fill:#FFFFFF;}
	.st12{clip-path:url(#SVGID_6_);}
	.st13{clip-path:url(#SVGID_8_);fill:none;stroke:#000000;stroke-width:2.2152;}
	.st14{clip-path:url(#SVGID_8_);}
	.st15{clip-path:url(#SVGID_8_);fill:#FFFFFF;}
</style>
<g id="Layer_2_1_">
	<polygon class="st0" points="180.5,221.5 523.5,221.5 523.5,787.5 672.5,787.5 672.5,1010.5 523.5,1010.5 523.7,878.2 180.5,878.5 
			"/>
	<rect x="269.5" y="321.5" class="st1" width="165" height="482"/>
</g>
<g id="TEXT">
	<rect x="302.3" y="461.7" class="st2" width="100.7" height="64"/>
	<text transform="matrix(1 0 0 1 307.019 479.8105)"><tspan x="0" y="0" class="st3 st4">ANIMAL </tspan><tspan x="12" y="28.8" class="st3 st4">ATTIC</tspan></text>
</g>
<g id="ICONS">
	<g id="LIONS">
		<text id="Square_Background" transform="matrix(1 0 0 1 336.3335 685.1855)" class="st5 st6"></text>
		<g>
			<g>
				<path class="st7" d="M356.7,668c-1.1,2.7,4.7,2.9,7.3,4.2s3.8,4,4.4,4c3.2-4.3-1.8-10.3-1.8-10.3s-1.9-0.6-2.3-2.5
					c-0.4-1.9,1.4-4.7,1.1-3.2c-0.3,1.4,1.8,2.2,2,3.1c0.2,1-0.1,2.6-0.1,2.6s5.5,3.4,2.1,11.3c1.3,5.3-1.6,5.3-1.6,5.3
					s1,1.9-1.8,1.9c-2.7,0-4.3,0-6.8,0c-2.5,0-0.7-2.1,0.4-2.1c1.1,0,2,0,2.4,0c-0.1,0-3.3-0.2-2.6-2.4c-4,0.3-9.2-1.3-9.2-1.3
					s-2.5,6.1-4.4,6c-1.9-0.1-3.4,0.1-3.3-0.9c0.3-2,3.1-0.1,3.3-3.9c0.2-2.2,1.4-3.9,1.4-3.9s-3.5-2.3-2.3-9.1
					c-0.4,0-1.5,0.2-1.8-0.5c-0.3-0.7,0-1.5,0-1.5s-1.5-2-0.8-3.1c0.6-1.1,3.2-1.5,4.4-1.6c0.5-4.6,2.5-4.6,5.7-3.2
					C357.7,656.6,359.1,664.7,356.7,668z"/>
			</g>
			<g>
			</g>
			<g>
			</g>
			<g>
			</g>
			<g>
			</g>
			<g>
			</g>
			<g>
			</g>
			<g>
			</g>
			<g>
			</g>
			<g>
			</g>
			<g>
			</g>
			<g>
			</g>
			<g>
			</g>
			<g>
			</g>
			<g>
			</g>
			<g>
			</g>
		</g>
	</g>
	<g id="MainStairs_1_">
		<g>
			<defs>
				<rect id="SVGID_1_" x="337.2" y="806.7" width="27.8" height="27.8"/>
			</defs>
			<clipPath id="SVGID_2_">
				<use xlink:href="#SVGID_1_"  style="overflow:visible;"/>
			</clipPath>
			<rect x="337.2" y="806.7" class="st8" width="27.8" height="27.8"/>
			<polygon class="st9" points="339.5,827.9 343.7,827.9 343.7,823.6 347.9,823.6 347.9,819.2 352.2,819.2 352.2,814.9 356.5,814.9 
				356.5,810.7 362.8,810.7 362.8,812.8 358.6,812.8 358.6,817.1 354.4,817.1 354.4,821.4 350.1,821.4 350.1,825.7 345.8,825.7 
				345.8,830.1 339.5,830.1 			"/>
		</g>
	</g>
	<g id="MainStairs_2_">
		<g>
			<defs>
				<rect id="SVGID_3_" x="583.2" y="928" width="40" height="40"/>
			</defs>
			<clipPath id="SVGID_4_">
				<use xlink:href="#SVGID_3_"  style="overflow:visible;"/>
			</clipPath>
			<rect x="583.2" y="928" class="st10" width="40" height="40"/>
			<polygon class="st11" points="586.5,958.4 592.6,958.4 592.6,952.2 598.7,952.2 598.7,945.9 604.9,945.9 604.9,939.8 611,939.8 
				611,933.6 620.1,933.6 620.1,936.8 614.1,936.8 614.1,942.9 607.9,942.9 607.9,949.1 601.8,949.1 601.8,955.3 595.6,955.3 
				595.6,961.6 586.5,961.6 			"/>
		</g>
	</g>
	<g id="MainLift_1_">
		<g>
			<defs>
				<rect id="SVGID_5_" x="582.5" y="825.8" width="40" height="40"/>
			</defs>
			<clipPath id="SVGID_6_">
				<use xlink:href="#SVGID_5_"  style="overflow:visible;"/>
			</clipPath>
			<rect x="583.6" y="826.9" class="st12" width="37.8" height="37.8"/>
			<g class="st12">
				<defs>
					<rect id="SVGID_7_" x="582.5" y="825.8" width="40" height="40"/>
				</defs>
				<clipPath id="SVGID_8_">
					<use xlink:href="#SVGID_7_"  style="overflow:visible;"/>
				</clipPath>
				<rect x="583.6" y="826.9" class="st13" width="37.8" height="37.8"/>
				<path class="st14" d="M589.4,829.1c-2.3,0-3.6,1.2-3.6,3.7V858c0,2.3,1.2,3.5,3.5,3.5h25.4c2.3,0,3.5-1.1,3.5-3.5v-25.3
					c0-2.4-1.2-3.7-3.6-3.7C614.6,829.1,589.4,829.1,589.4,829.1"/>
				<path class="st15" d="M593.7,856v-12.2h0c0-1.2,0.9-2.2,2.2-2.2h12.3c1.3,0,2.2,1,2.2,2.2V856v0c0,1.3-1,2.2-2.2,2.2H596
					C594.7,858.3,593.7,857.3,593.7,856"/>
				<rect x="596" y="843.9" class="st14" width="12.1" height="12"/>
				<path class="st15" d="M605.1,832.1c0-1.6,2.3-1.6,2.3,0l0,4.9l1.2-1.5c0.9-0.9,2.4,0.4,1.4,1.4l-3,3.6c-0.5,0.5-1.1,0.5-1.6,0
					l-3-3.6c-0.9-1.1,0.6-2.4,1.4-1.4l1.2,1.5L605.1,832.1z"/>
				<path class="st15" d="M596.7,839.6c0,1.6,2.3,1.6,2.3,0l0-4.9l1.2,1.5c0.9,0.9,2.4-0.4,1.4-1.4l-3-3.6c-0.5-0.5-1.1-0.5-1.6,0
					l-3,3.6c-0.9,1.1,0.6,2.4,1.4,1.4l1.2-1.5L596.7,839.6z"/>
				<path class="st15" d="M607.6,850.8c0,0.2-0.2,0.4-0.4,0.4h-2.7c-0.2,0-0.4-0.2-0.4-0.4v-2.9c0-0.3,0.3-0.6,0.6-0.6h2.4
					c0.3,0,0.6,0.3,0.6,0.6V850.8z"/>
				<path class="st15" d="M606.9,851.1h-1v4c0,0.7,1,0.7,1,0V851.1z"/>
				<path class="st15" d="M605.7,851.1h-1v4c0,0.7,1,0.7,1,0V851.1z"/>
				<path class="st15" d="M605.8,847c0.4,0,0.8-0.3,0.8-0.8c0-0.4-0.3-0.8-0.8-0.8c-0.4,0-0.8,0.3-0.8,0.8
					C605,846.7,605.4,847,605.8,847"/>
				<path class="st15" d="M603.9,850.8c0,0.2-0.2,0.4-0.4,0.4h-2.7c-0.2,0-0.4-0.2-0.4-0.4v-2.9c0-0.3,0.3-0.6,0.6-0.6h2.4
					c0.3,0,0.6,0.3,0.6,0.6V850.8z"/>
				<path class="st15" d="M603.2,851.1h-1v4c0,0.7,1,0.7,1,0V851.1z"/>
				<path class="st15" d="M602,851.1h-1v4c0,0.7,1,0.7,1,0V851.1z"/>
				<path class="st15" d="M602.1,847c0.4,0,0.8-0.3,0.8-0.8c0-0.4-0.3-0.8-0.8-0.8c-0.4,0-0.8,0.3-0.8,0.8
					C601.3,846.7,601.7,847,602.1,847"/>
				<path class="st15" d="M600.2,850.8c0,0.2-0.2,0.4-0.4,0.4H597c-0.2,0-0.4-0.2-0.4-0.4v-2.9c0-0.3,0.3-0.6,0.6-0.6h2.4
					c0.3,0,0.6,0.3,0.6,0.6V850.8z"/>
				<path class="st15" d="M599.5,851.1h-1v4c0,0.7,1,0.7,1,0V851.1z"/>
				<path class="st15" d="M598.3,851.1h-1v4c0,0.7,1,0.7,1,0V851.1z"/>
				<path class="st15" d="M598.4,847c0.4,0,0.8-0.3,0.8-0.8c0-0.4-0.3-0.8-0.8-0.8c-0.4,0-0.8,0.3-0.8,0.8
					C597.6,846.7,598,847,598.4,847"/>
			</g>
		</g>
	</g>
</g>
</svg>
