<?xml version="1.0" encoding="utf-8"?>
<!-- Generator: Adobe Illustrator 22.1.0, SVG Export Plug-In . SVG Version: 6.00 Build 0)  -->
<svg version="1.1" xmlns="http://www.w3.org/2000/svg" xmlns:xlink="http://www.w3.org/1999/xlink" x="0px" y="0px"
	 viewBox="0 0 750 1334" style="enable-background:new 0 0 750 1334;" xml:space="preserve">
<style type="text/css">
	.st0{fill:#CCCCCC;stroke:#231F20;stroke-linecap:round;stroke-miterlimit:10;}
	.st1{fill:#CCCCCC;stroke:#000000;stroke-miterlimit:10;}
	.st2{fill:#CCCCCC;stroke:#000000;stroke-width:1.0765;}
	.st3{fill:#4D4D4D;stroke:#000000;stroke-width:0.9376;}
	.st4{fill:#CCCCCC;stroke:#CCCCCC;stroke-width:2;stroke-miterlimit:10;}
	.st5{fill:#CCCCCC;stroke:#CCCCCC;stroke-width:3;stroke-miterlimit:10;}
	.st6{fill:none;stroke:#CCCCCC;stroke-width:3;stroke-miterlimit:10;}
	.st7{fill:none;stroke:#FF0000;stroke-miterlimit:10;}
	.st8{fill:none;stroke:#FF0000;stroke-miterlimit:10;stroke-dasharray:4.3329,4.3329;}
	.st9{fill:#FFFFFF;}
	.st10{stroke:#000000;stroke-width:0.25;stroke-miterlimit:10;}
	.st11{fill:#FFFFFF;stroke:#000000;stroke-width:0.25;stroke-miterlimit:10;}
	.st12{fill:#5F5F5F;}
	.st13{fill:#8F8F8F;}
	.st14{fill:#BFBFBF;}
	.st15{fill:#030104;}
	.st16{fill:#010002;}
	.st17{clip-path:url(#SVGID_2_);}
	.st18{clip-path:url(#SVGID_2_);fill:#FFFFFF;}
	.st19{clip-path:url(#SVGID_4_);}
	.st20{clip-path:url(#SVGID_4_);fill:#FFFFFF;}
	.st21{clip-path:url(#SVGID_6_);}
	.st22{clip-path:url(#SVGID_8_);fill:none;stroke:#000000;stroke-width:0.938;}
	.st23{clip-path:url(#SVGID_8_);}
	.st24{clip-path:url(#SVGID_8_);fill:#FFFFFF;}
	.st25{fill:none;}
	.st26{font-family:'Avenir-Book';}
	.st27{font-size:10px;}
	.st28{font-size:8px;}
	.st29{font-size:9px;}
	.st30{font-size:4px;}
	.st31{font-size:6px;}
</style>
<g id="OUTLINE">
	<g>
		<ellipse class="st0" cx="405.4" cy="820.5" rx="33.1" ry="22"/>
		<rect x="145.5" y="437.5" class="st1" width="74" height="73"/>
		<rect x="102.5" y="510.5" class="st1" width="73" height="159"/>
		<polygon class="st1" points="85.5,669.5 85.5,788.5 359.4,788.5 359.4,692.5 186.5,692.5 186.9,669.9 		"/>
		<polygon class="st1" points="359.5,656.5 467.5,656.5 509,698 453.5,698 453.5,820.5 358.5,820.5 358.5,692.5 186.5,692.5 
			186.5,669.5 309.6,669.5 		"/>
		<polygon class="st1" points="219.5,437.5 359,437.5 359,533.5 267.7,533.5 267.7,510.5 219.5,510.5 		"/>
		<path class="st2" d="M407.5,590.5c-0.5-0.9-1.2-2.1-1.9-3.6c-1.2-2.5-5.2-11-6.1-22.2c-1.2-14.5,3.3-26.2,5.5-31.2h-45.5V656h48
			V590.5z"/>
		<path class="st2" d="M489.5,591.5v-58h-85c-2.5,5.7-7,18.2-5,34c1.3,10.8,5.2,19,8,24H489.5z"/>
		<rect x="407.5" y="591.5" class="st2" width="59" height="65"/>
		<polygon class="st2" points="489.5,533.5 567.5,533.5 567.5,697.5 508.4,697.5 466.9,656.1 466.9,591.5 489.5,591.5 		"/>
		<polygon class="st2" points="452.5,697.5 681.5,697.5 681.5,788.5 453,788.5 		"/>
		<polyline class="st1" points="359.5,657 359.5,533.5 267.5,533.5 267.5,510.5 175.5,510.5 175.5,669.5 308,669.5 		"/>
		<polygon id="Atrium" class="st3" points="392.5,717.5 424.5,717.5 424.6,725.5 432.5,725.5 432.5,764.5 424.5,764.5 424.5,772.5 
			392.5,772.5 392.5,764.5 384.5,764.5 384.5,725.5 392.5,725.5 		"/>
	</g>
	<rect x="419.5" y="656.5" class="st1" width="15" height="20"/>
	<rect x="313.5" y="674.5" class="st1" width="14" height="18"/>
	<rect x="204.5" y="479.5" class="st1" width="15" height="13"/>
	<line class="st4" x1="180" y1="510.5" x2="192" y2="510.5"/>
	<line class="st5" x1="219.5" y1="496.5" x2="219.5" y2="506.5"/>
	<line class="st5" x1="453" y1="755.5" x2="453" y2="731.5"/>
	<line class="st5" x1="358" y1="755.5" x2="358" y2="731.5"/>
	<line class="st6" x1="472.5" y1="660.5" x2="486.5" y2="675.5"/>
	<line class="st5" x1="451" y1="656" x2="463" y2="656"/>
	<line class="st6" x1="359.5" y1="540.5" x2="359.5" y2="552.5"/>
	<line class="st6" x1="308.5" y1="669.5" x2="358.5" y2="656.5"/>
	<line class="st4" x1="438" y1="820.5" x2="373" y2="820.5"/>
	<g>
		<g>
			<line class="st7" x1="308.5" y1="669.5" x2="310.4" y2="669"/>
			<line class="st8" x1="314.6" y1="667.9" x2="354.5" y2="657.5"/>
			<line class="st7" x1="356.6" y1="657" x2="358.5" y2="656.5"/>
		</g>
	</g>
</g>
<g id="Icons">
	<g id="WAKA">
		<rect x="205.5" y="740.5" width="20" height="20"/>
		<g>
			<g>
				<path class="st9" d="M215,750.7c0.1,0.1,0.2,0.1,0.3,0.1c0.1,0,0.2,0,0.3-0.1s0.1-0.2,0.1-0.3c0-0.1,0-0.2-0.1-0.3
					c-0.1-0.1-0.2-0.1-0.3-0.1c-0.1,0-0.2,0-0.3,0.1c-0.1,0.1-0.1,0.2-0.1,0.3S215,750.7,215,750.7z"/>
				<path class="st9" d="M207.9,749.1c0.1,0,0.2,0,0.3-0.1c0.1-0.1,0.1-0.2,0.1-0.3c0-0.1,0-0.2-0.1-0.3c-0.1-0.1-0.2-0.1-0.3-0.1
					c-0.1,0-0.2,0-0.3,0.1c-0.1,0.1-0.1,0.2-0.1,0.3c0,0.1,0,0.2,0.1,0.3C207.7,749,207.8,749.1,207.9,749.1z"/>
				<path class="st9" d="M222.7,749.1c0.1,0,0.2,0,0.3-0.1c0.1-0.1,0.1-0.2,0.1-0.3c0-0.1,0-0.2-0.1-0.3c-0.1-0.1-0.2-0.1-0.3-0.1
					s-0.2,0-0.3,0.1c-0.1,0.1-0.1,0.2-0.1,0.3c0,0.1,0,0.2,0.1,0.3C222.5,749,222.6,749.1,222.7,749.1z"/>
				<path class="st9" d="M209.1,752h12.4c0.7,0,1.4-0.2,1.9-0.7c0.8-0.7,1.1-1.8,0.8-2.8c-0.3-1-1.1-1.7-2.1-2c-0.1,0-0.2,0-0.3,0.1
					c-0.1,0.1-0.1,0.1-0.2,0.3c-0.2,1.3-1.3,2.2-2.6,2.2h-7.5c-1.3,0-2.4-0.9-2.6-2.2c0-0.1-0.1-0.2-0.2-0.3
					c-0.1-0.1-0.2-0.1-0.3-0.1c-1,0.2-1.8,1-2.1,2c-0.3,1,0,2.1,0.8,2.8C207.7,751.7,208.4,752,209.1,752z M211.6,750.5l0.7-0.7h0.9
					l-0.4,0.5c-0.1,0.1-0.1,0.3,0,0.5l0.4,0.5h-0.9L211.6,750.5z M219.1,750.5l-0.7,0.7h-0.9l0.4-0.5c0.1-0.1,0.1-0.3,0-0.5
					l-0.4-0.5h0.9L219.1,750.5z M217.1,750.5l-0.6,0.7h-2.4l-0.6-0.7l0.6-0.7h2.4L217.1,750.5z M222.3,747.3c0.6,0.2,1,0.7,1.1,1.3
					c0.1,0.4,0.1,0.8-0.1,1.2l-1.3-0.4l-0.1-1.3C222.1,747.9,222.2,747.6,222.3,747.3z M221.3,749l0.1,0.9c0,0.2,0.1,0.3,0.3,0.3
					l1.4,0.4c0,0-0.1,0.1-0.1,0.1c-0.4,0.4-0.9,0.5-1.4,0.5h-2.1l0.5-0.5c0.1-0.1,0.1-0.4,0-0.5l-0.5-0.5
					C220.1,749.7,220.8,749.4,221.3,749z M211.2,749.7l-0.5,0.5c-0.1,0.1-0.1,0.4,0,0.5l0.5,0.5h-2.1c-0.5,0-1-0.2-1.3-0.5
					c-0.1,0-0.1-0.1-0.2-0.2l1.4-0.4c0.1,0,0.3-0.2,0.3-0.3l0.1-0.9C209.9,749.4,210.5,749.7,211.2,749.7z M207.1,748.6
					c0.2-0.6,0.6-1.1,1.1-1.3c0.1,0.3,0.2,0.6,0.4,0.8l-0.1,1.4l-1.3,0.4C207,749.5,207,749.1,207.1,748.6z"/>
				<path class="st9" d="M223.4,752.5c-0.6,0-1,0.3-1.3,0.5c-0.2,0.2-0.4,0.3-0.8,0.3c-0.4,0-0.5-0.1-0.8-0.3
					c-0.3-0.2-0.6-0.5-1.3-0.5c-0.6,0-1,0.3-1.3,0.5c-0.2,0.2-0.4,0.3-0.8,0.3s-0.5-0.1-0.8-0.3c-0.3-0.2-0.6-0.5-1.3-0.5
					s-1,0.3-1.3,0.5c-0.2,0.2-0.4,0.3-0.8,0.3s-0.5-0.1-0.8-0.3c-0.3-0.2-0.6-0.5-1.3-0.5s-1,0.3-1.3,0.5c-0.2,0.2-0.4,0.3-0.8,0.3
					c-0.4,0-0.5-0.1-0.8-0.3c-0.3-0.2-0.6-0.5-1.3-0.5c-0.2,0-0.4,0.2-0.4,0.4s0.2,0.4,0.4,0.4c0.4,0,0.5,0.1,0.8,0.3
					c0.3,0.2,0.6,0.5,1.3,0.5c0.6,0,1-0.3,1.3-0.5c0.2-0.2,0.4-0.3,0.8-0.3c0.4,0,0.5,0.1,0.8,0.3c0.3,0.2,0.6,0.5,1.3,0.5
					c0.6,0,1-0.3,1.3-0.5c0.2-0.2,0.4-0.3,0.8-0.3c0.4,0,0.5,0.1,0.8,0.3c0.3,0.2,0.6,0.5,1.3,0.5s1-0.3,1.3-0.5
					c0.2-0.2,0.4-0.3,0.8-0.3c0.4,0,0.5,0.1,0.8,0.3c0.3,0.2,0.6,0.5,1.3,0.5c0.6,0,1-0.3,1.3-0.5c0.2-0.2,0.4-0.3,0.8-0.3
					c0.2,0,0.4-0.2,0.4-0.4S223.6,752.5,223.4,752.5z"/>
			</g>
			<g>
			</g>
			<g>
			</g>
			<g>
			</g>
			<g>
			</g>
			<g>
			</g>
			<g>
			</g>
			<g>
			</g>
			<g>
			</g>
			<g>
			</g>
			<g>
			</g>
			<g>
			</g>
			<g>
			</g>
			<g>
			</g>
			<g>
			</g>
			<g>
			</g>
		</g>
	</g>
	<g id="_x31_877">
		<rect x="131.5" y="590.5" width="18" height="18"/>
		<g>
			<g>
				<g>
					<g>
						<path class="st9" d="M147.3,593.9H136c-0.3,0-0.5,0.2-0.5,0.5v0.5h-0.5c-0.3,0-0.5,0.2-0.5,0.5v0.5h-0.5
							c-0.3,0-0.5,0.2-0.5,0.5v9.2c0,0.3,0.2,0.5,0.5,0.5h11.3c0.3,0,0.5-0.2,0.5-0.5V605h0.5c0.3,0,0.5-0.2,0.5-0.5V604h0.5
							c0.3,0,0.5-0.2,0.5-0.5v-9.2C147.8,594.1,147.6,593.9,147.3,593.9z M145.4,601.5l-1.2-1.4c-0.1-0.1-0.3-0.1-0.4,0l-1.5,1.7
							l-4-3.6c-0.1-0.1-0.2-0.1-0.3,0l-3.8,3.4v-5.1c0-0.1,0.1-0.2,0.2-0.2h10.8c0.1,0,0.2,0.1,0.2,0.2V601.5z M146.1,604.5h-0.2
							v-8.2c0-0.3-0.2-0.5-0.5-0.5h-10.3v-0.2c0-0.1,0.1-0.2,0.2-0.2h10.8c0.1,0,0.2,0.1,0.2,0.2l0,8.7
							C146.4,604.4,146.3,604.5,146.1,604.5z M147.1,603.6h-0.2v-8.2c0-0.3-0.2-0.5-0.5-0.5H136v-0.2c0-0.1,0.1-0.2,0.2-0.2h10.8
							c0.1,0,0.2,0.1,0.2,0.2v8.7h0C147.3,603.5,147.2,603.6,147.1,603.6z"/>
						<path class="st9" d="M142.1,597.7c-0.5,0-0.9,0.4-0.9,0.9c0,0.5,0.4,0.9,0.9,0.9c0.5,0,0.9-0.4,0.9-0.9
							C143.1,598.1,142.7,597.7,142.1,597.7z"/>
					</g>
				</g>
			</g>
			<g>
			</g>
			<g>
			</g>
			<g>
			</g>
			<g>
			</g>
			<g>
			</g>
			<g>
			</g>
			<g>
			</g>
			<g>
			</g>
			<g>
			</g>
			<g>
			</g>
			<g>
			</g>
			<g>
			</g>
			<g>
			</g>
			<g>
			</g>
			<g>
			</g>
		</g>
	</g>
	<g id="SpecialExhibitions">
		<rect x="517" y="631" class="st10" width="15" height="15"/>
		<g>
			<g>
				<g>
					<g>
						<path class="st11" d="M530.2,633.9h-9.4c-0.2,0-0.4,0.2-0.4,0.4v0.4H520c-0.2,0-0.4,0.2-0.4,0.4v0.4h-0.4
							c-0.2,0-0.4,0.2-0.4,0.4v7.6c0,0.2,0.2,0.4,0.4,0.4h9.4c0.2,0,0.4-0.2,0.4-0.4v-0.4h0.4c0.2,0,0.4-0.2,0.4-0.4v-0.4h0.4
							c0.2,0,0.4-0.2,0.4-0.4v-7.6C530.6,634,530.4,633.9,530.2,633.9z M528.6,640.2l-1-1.2c-0.1-0.1-0.2-0.1-0.3,0l-1.2,1.4l-3.4-3
							c-0.1-0.1-0.2-0.1-0.3,0l-3.2,2.8V636c0-0.1,0.1-0.2,0.2-0.2h9c0.1,0,0.2,0.1,0.2,0.2V640.2z M529.2,642.7H529v-6.9
							c0-0.2-0.2-0.4-0.4-0.4H520v-0.2c0-0.1,0.1-0.2,0.2-0.2h9c0.1,0,0.2,0.1,0.2,0.2l0,7.2C529.4,642.6,529.3,642.7,529.2,642.7z
							 M530,641.9h-0.2V635c0-0.2-0.2-0.4-0.4-0.4h-8.6v-0.2c0-0.1,0.1-0.2,0.2-0.2h9c0.1,0,0.2,0.1,0.2,0.2v7.2h0
							C530.2,641.8,530.1,641.9,530,641.9z"/>
						<path class="st11" d="M525.9,637c-0.4,0-0.8,0.4-0.8,0.8c0,0.4,0.4,0.8,0.8,0.8c0.4,0,0.8-0.4,0.8-0.8
							C526.7,637.3,526.3,637,525.9,637z"/>
					</g>
				</g>
			</g>
			<g>
			</g>
			<g>
			</g>
			<g>
			</g>
			<g>
			</g>
			<g>
			</g>
			<g>
			</g>
			<g>
			</g>
			<g>
			</g>
			<g>
			</g>
			<g>
			</g>
			<g>
			</g>
			<g>
			</g>
			<g>
			</g>
			<g>
			</g>
			<g>
			</g>
		</g>
	</g>
	<g id="BarclayTheatre">
		<rect x="430" y="625" width="15" height="15"/>
		<g>
			<g>
				<g>
					<g>
						<path class="st9" d="M443.2,627.9h-9.4c-0.2,0-0.4,0.2-0.4,0.4v0.4H433c-0.2,0-0.4,0.2-0.4,0.4v0.4h-0.4
							c-0.2,0-0.4,0.2-0.4,0.4v7.6c0,0.2,0.2,0.4,0.4,0.4h9.4c0.2,0,0.4-0.2,0.4-0.4v-0.4h0.4c0.2,0,0.4-0.2,0.4-0.4v-0.4h0.4
							c0.2,0,0.4-0.2,0.4-0.4v-7.6C443.6,628,443.4,627.9,443.2,627.9z M441.6,634.2l-1-1.2c-0.1-0.1-0.2-0.1-0.3,0l-1.2,1.4l-3.4-3
							c-0.1-0.1-0.2-0.1-0.3,0l-3.2,2.8V630c0-0.1,0.1-0.2,0.2-0.2h9c0.1,0,0.2,0.1,0.2,0.2V634.2z M442.2,636.7H442v-6.9
							c0-0.2-0.2-0.4-0.4-0.4H433v-0.2c0-0.1,0.1-0.2,0.2-0.2h9c0.1,0,0.2,0.1,0.2,0.2l0,7.2C442.4,636.6,442.3,636.7,442.2,636.7z
							 M443,635.9h-0.2V629c0-0.2-0.2-0.4-0.4-0.4h-8.6v-0.2c0-0.1,0.1-0.2,0.2-0.2h9c0.1,0,0.2,0.1,0.2,0.2v7.2h0
							C443.2,635.8,443.1,635.9,443,635.9z"/>
						<path class="st9" d="M438.9,631c-0.4,0-0.8,0.4-0.8,0.8c0,0.4,0.4,0.8,0.8,0.8s0.8-0.4,0.8-0.8
							C439.7,631.3,439.3,631,438.9,631z"/>
					</g>
				</g>
			</g>
			<g>
			</g>
			<g>
			</g>
			<g>
			</g>
			<g>
			</g>
			<g>
			</g>
			<g>
			</g>
			<g>
			</g>
			<g>
			</g>
			<g>
			</g>
			<g>
			</g>
			<g>
			</g>
			<g>
			</g>
			<g>
			</g>
			<g>
			</g>
			<g>
			</g>
		</g>
	</g>
	<g id="WARRIOR">
		<g id="svgg_1_">
			<path id="path0_1_" d="M553,755v10h10h10v-10v-10h-10h-10V755 M558.2,747.2c0.1,0.1,0.7,0.1,0.8,0.1c0.1-0.1,0.6,0,0.7,0.1
				c0.1,0.1,0.2,0.1,0.2,0.1c0.1,0,0.3,0.1,0.4,0.2c0.1,0.2,0.2,0.2,0.3,0.2c0,0,0.2,0,0.2,0s0.2,0,0.2,0s0,0,0.1,0.1
				c0.1,0.1,0.2,0.1,0.4,0.1c0.2,0,0.4,0.1,0.5,0.1c0,0,0.1,0,0.1,0c0.2,0,0.5,0.1,0.6,0.1c0.1,0.1,0.1,0.1,0.3,0.1
				c0.4,0,0.4,0,0.5,0.1c0.1,0.1,0.1,0.1,0.3,0.1c0.2,0,0.4,0.1,0.4,0.1c0.1,0.1,0.1,0.1,0.2,0.1c0.2,0,0.4,0.1,0.5,0.1
				c0.1,0.1,0.2,0.1,0.3,0.1c0.2,0,0.4,0.1,0.4,0.1c0,0,0.1,0,0.3,0.1c0.4,0,0.4,0.1,0.4,0.1c0.1,0.1,0.2,0.1,0.4,0.1
				c0.1,0,0.3,0.1,0.4,0.1c0.1,0.1,0.2,0.1,0.4,0.1c0.2,0,0.3,0.1,0.3,0.1c0,0,0.2,0.1,0.4,0.1c0.2,0,0.2,0,0.3,0.1
				c0.1,0.1,0.1,0.1,0.3,0.1c0.3,0,0.5,0.1,0.5,0.2c0,0,0.1,0,0.4,0.1c0.2,0,0.3,0.1,0.3,0.3c0,0.4-0.1,0.6-0.3,0.5
				c-0.1,0-0.2-0.1-0.4-0.1c-0.2,0-0.3,0-0.4-0.1c-0.1-0.1-0.1-0.1-0.5-0.1c-0.1,0-0.3-0.1-0.3-0.1c0,0-0.1,0-0.1,0
				c-0.4,0-0.6-0.1-0.6-0.2c0,0-0.1-0.1-0.3-0.1c-0.2,0-0.4-0.1-0.4-0.1c-0.1-0.1-0.1-0.1-0.2-0.1c-0.2,0-0.4-0.1-0.5-0.1
				c-0.1-0.1-0.2-0.1-0.3-0.1c-0.1,0-0.3,0-0.4-0.1c0,0-0.1,0-0.1-0.1c-0.1,0-0.4-0.1-0.5,0c0,0,0,0.2,0.1,0.3
				c0.1,0.1,0.1,0.2,0.1,0.8c0,0.6,0,0.7-0.1,0.8c0,0,0,0-0.1,0.2c0,0.1,0,0.1-0.1,0.2c-0.1,0-0.1,0.1-0.1,0.1c0,0,0,0.1,0,0.1
				c0,0-0.1,0.1-0.2,0.2c0,0-0.1,0.1-0.1,0.1c0,0-0.1,0-0.1,0.1c0,0-0.1,0.1-0.1,0.1c0,0-0.1,0-0.1,0.1c0,0-0.1,0.1-0.1,0.1
				c-0.1,0-0.2,0.1-0.3,0.1c0,0-0.1,0.1-0.1,0.1c-0.2,0-0.3,0.1-0.8,0.1c-0.5,0-0.6,0-0.5,0c0,0,0.1,0,0.2,0c0.2,0,0.2,0.1,0.3,0.1
				c0,0,0.1,0.1,0.2,0.1c0.2,0,0.3,0.1,0.3,0.2c0,0,0,0,0.1,0c0.1,0,0.3,0.1,0.3,0.2c0,0,0.1,0.1,0.1,0.1c0.1,0,0.2,0.1,0.2,0.1
				c0,0,0,0,0.1,0c0.1,0,0.3,0.1,0.3,0.2c0,0,0,0.1,0.1,0.1c0,0,0.1,0,0.1,0c0,0,0,0,0.1,0.1s0,0.1,0.1,0.1c0.1,0,0.2,0.1,0.3,0.2
				c0.1,0.1,0.1,0.1,0.2,0.1c0,0,0.1,0,0.1,0.1l0.1,0.1l0.2,0c0.3-0.1,0.6-0.1,1-0.1c0.5,0,0.8,0,0.9-0.1c0.4-0.2,0.7-0.1,0.7,0.3
				c0,0.3,0,0.8,0,0.9c-0.1,0.1-0.2,0.2-0.8,0.2c-0.3,0-0.7,0-0.8,0.1c-0.2,0.1-0.5,0.1-1.2,0.1c-0.4,0-0.5,0-0.6-0.1
				c0,0-0.1-0.1-0.1-0.1s0,0,0,0s0,0-0.1,0s0,0,0,0c0,0,0,0-0.1,0s-0.1,0-0.1-0.1c0,0,0,0-0.1,0c0,0,0,0,0,0s0,0-0.1,0
				c0,0-0.1,0-0.1-0.1c0,0-0.1-0.1-0.1-0.1c-0.1,0-0.1-0.1-0.2-0.1c0,0-0.1-0.1-0.2-0.1c-0.1,0-0.1-0.1-0.1-0.1c0,0-0.1-0.1-0.1-0.1
				c-0.1,0-0.1,0-0.2-0.1c-0.1-0.1-0.3-0.1-0.3,0c0,0,0,0.1-0.1,0.1c0,0-0.1,0.1-0.1,0.3c0,0.3-0.1,0.4-0.1,0.5
				c-0.1,0.1-0.1,0.2-0.1,0.4c0,0.2,0,0.3-0.1,0.4c-0.1,0.1-0.1,0.2-0.1,0.4c0,0.2,0,0.2,0.1,0.4c0.1,0.1,0.1,0.1,0.1,0.1
				s0,0.1,0.1,0.1c0,0,0.1,0.1,0.1,0.1c0,0,0,0.1,0.1,0.1c0,0,0.1,0.1,0.1,0.1c0,0,0,0.1,0.1,0.1c0,0,0.1,0.1,0.1,0.1
				c0,0,0,0.1,0.1,0.1c0,0,0.1,0.1,0.1,0.1c0,0,0.1,0.1,0.1,0.2c0,0.1,0.1,0.1,0.1,0.2c0,0,0.1,0.1,0.1,0.1c0,0,0.1,0.1,0.1,0.1
				c0,0.1,0.1,0.1,0.1,0.1c0,0,0.1,0.1,0.1,0.1c0,0.1,0.1,0.1,0.1,0.1c0,0,0.1,0.1,0.1,0.1c0,0,0,0.1,0.1,0.1c0,0,0.1,0.1,0.1,0.1
				c0,0,0.1,0.1,0.2,0.2c0,0,0.1,0.1,0.1,0.2s0,0.1,0,0.1c0,0,0.1,0.1,0.1,0.2c0,0,0,0.1,0.1,0.1c0,0,0.1,0.1,0.1,0.1
				c0,0,0.1,0.1,0.1,0.1c0,0,0.1,0.1,0.1,0.1c0,0,0.1,0.1,0.1,0.1c0,0,0,0,0,0.1c0,0,0.1,0.1,0.1,0.2c0.1,0.1,0.1,0.1,0.1,0.2
				c0,0.1,0.1,0.1,0.1,0.1c0,0,0.1,0.1,0.1,0.2c0,0,0,0.1,0.1,0.1c0,0,0.1,0.1,0.1,0.1c0,0.1,0.1,0.1,0.1,0.1c0,0,0.1,0.1,0.1,0.1
				c0,0.1,0.1,0.1,0.1,0.1c0.1,0,0.1,0.1,0.1,0.2c-0.1,0.1-0.1,0.1-0.9,0.1h-0.7l-0.1-0.1c-0.1-0.1-0.2-0.2-0.2-0.2c0,0,0-0.1,0-0.1
				c0,0-0.2-0.1-0.2-0.2c0,0,0-0.1-0.1-0.1c0,0-0.1-0.1-0.1-0.1c0,0-0.1-0.1-0.1-0.1c0,0-0.1-0.1-0.1-0.1c0-0.1-0.1-0.1-0.1-0.2
				c0,0-0.1,0-0.1-0.1c0,0-0.1-0.1-0.2-0.2c0,0-0.1-0.1-0.1-0.2c0,0,0-0.1-0.1-0.1c-0.1,0-0.1-0.1-0.1-0.2c0,0,0,0,0,0
				c-0.1,0-0.1-0.1-0.2-0.2c0,0,0-0.1-0.1-0.1c-0.1,0-0.1-0.1-0.1-0.1c0,0-0.1-0.1-0.1-0.1c0,0-0.1-0.1-0.1-0.1s-0.1-0.1-0.1-0.2
				c-0.1,0-0.1-0.1-0.1-0.1c0,0,0-0.1,0-0.1c0,0-0.1-0.1-0.2-0.2c0,0,0-0.1-0.1-0.1c0,0-0.1-0.1-0.1-0.1c0,0-0.1-0.1-0.1-0.1
				c0,0-0.1-0.1-0.1-0.1c0,0-0.1-0.1-0.1-0.1s-0.1,0-0.1-0.1c0,0,0,0,0,0s0-0.1-0.1-0.1c0-0.1-0.1-0.1-0.1-0.1c0,0-0.1-0.1-0.1-0.2
				c0,0,0,0-0.1,0c-0.1,0-0.1-0.1-0.1-0.2c0,0,0,0,0,0c-0.1,0-0.2-0.1-0.2-0.1c0-0.1-0.1-0.1-0.3-0.1c-0.2,0-0.3-0.1-0.3-0.1
				c0,0-0.1-0.1-0.2-0.1c-0.2,0-0.2-0.5,0-0.6c0,0,0.1-0.1,0.1-0.3c0-0.2,0.1-0.3,0.1-0.3c0,0,0,0,0,0c0-0.1,0.4-0.1,0.5,0
				c0.1,0.1,0.2,0.1,0.2,0c0-0.1,0-0.2,0.1-0.3c0.1-0.1,0.1-0.1,0.1-0.5c0-0.2,0-0.2,0.1-0.3c0.1-0.1,0.1-0.2,0.1-0.4
				c0-0.1,0.1-0.3,0.1-0.4c0.1-0.1,0.1-0.3,0-0.3c-0.1,0-0.2,0-0.2-0.1c-0.1-0.1-0.1-0.1-0.2-0.1c-0.1,0-0.2,0-0.3-0.1
				c0,0-0.1,0-0.2,0l-0.1,0l0,0.1c0,0.1,0,0.1,0,0.2c0,0.1-0.1,0.3-0.1,0.4c0,0-0.1,0.1-0.1,0.3c0,0.3-0.1,0.3-0.1,0.4
				c0,0-0.1,0.1-0.1,0.1c0,0.4-0.1,0.5-0.1,0.5c-0.1,0.1-0.1,0.1-0.1,0.3c0,0.2-0.1,0.4-0.1,0.4c-0.1,0.1-0.1,0.1-0.1,0.2
				c0,0.2-0.1,0.3-0.1,0.3c0,0-0.1,0-0.1,0.1c0,0.1-0.1,0.4-0.2,0.4c0,0,0,0,0,0c0,0.1-0.1,0.3-0.1,0.3c0,0-0.1,0.1-0.1,0.2
				c0,0.1-0.1,0.1-0.1,0.2c-0.1,0.1-0.1,0.2-0.1,0.2c0,0,0,0.1-0.1,0.1c0,0-0.1,0.1-0.1,0.2c0,0.1-0.1,0.2-0.2,0.2
				c-0.1,0-0.1,0.3-0.1,1.8v1.5l0,0l0,0h-0.6c-0.6,0-0.6,0-0.6,0c-0.1-0.1-0.1-3.7,0-3.8c0,0,0.1-0.1,0.1-0.1c0,0,0,0,0.1-0.1
				c0,0,0-0.1,0-0.1c0,0,0,0,0-0.1c0,0,0-0.1,0.1-0.1c0.1,0,0.1-0.1,0.1-0.2c0-0.1,0.1-0.2,0.1-0.2c0,0,0.1-0.1,0.1-0.2
				c0-0.1,0-0.1,0.1-0.2c0.1-0.1,0.1-0.1,0.1-0.2c0-0.1,0.1-0.1,0.1-0.2c0,0,0.1-0.1,0.1-0.2c0-0.1,0.1-0.2,0.1-0.2
				c0.1,0,0.1-0.1,0.1-0.1c0-0.2,0.1-0.4,0.1-0.5c0-0.1,0.1-0.1,0.1-0.2c0-0.3,0.1-0.4,0.1-0.5c0,0,0-0.1,0.1-0.2
				c0-0.3,0.1-0.4,0.1-0.5c0.1-0.1,0.1-0.2,0.1-0.3c0-0.2,0.1-0.3,0.1-0.4c0,0,0-0.1,0.1-0.1c0-0.4,0.1-0.5,0.1-0.5
				c0.1-0.1,0.1-0.9,0-0.9c0,0-0.1-0.1-0.1-0.1c0,0,0-0.1,0-0.1s0-0.1,0-0.1c0,0,0-0.1-0.1-0.1c-0.1-0.1-0.2-0.3-0.2-0.3
				c0,0,0,0-0.1-0.1c0,0-0.1-0.1-0.1-0.2c0-0.1-0.1-0.2-0.1-0.2c-0.1,0-0.1-0.1-0.1-0.2c0,0,0-0.1-0.1-0.2c-0.2-0.2-0.2-0.7,0-0.9
				c0,0,0.1-0.1,0.1-0.2c0-0.2,0.1-0.3,0.1-0.4c0,0,0.1-0.1,0.1-0.1c0.1-0.4,0.1-0.4,0.1-0.5c0,0,0.1-0.1,0.1-0.4
				c0-0.1,0-0.2-0.1-0.2c0,0,0,0-0.1-0.1c-0.1-0.1-0.1-0.1-0.4-0.1c-0.3,0-0.4-0.2-0.3-0.6C557.8,747.1,558.1,747,558.2,747.2
				 M560.1,748.6c-0.1,0-0.1,0-0.1,0.2c0,0.2-0.1,0.3-0.1,0.4c0,0.1-0.1,0.1-0.1,0.4c0,0.2-0.1,0.3-0.1,0.3c-0.1,0.1-0.2,0.8,0,0.9
				c0.1,0,0.1,0.2,0.1,0.3c0,0.1,0,0.1,0.1,0.1c0.1,0.1,0.1,0.2,0.1,0.3c0,0,0,0.1,0.1,0.1c0.1,0,0.2,0.3,0.2,0.3c0,0,0,0,0,0.1
				c0.1,0,0.1,0.1,0.1,0.2c0,0.1,0,0.1,0.1,0.2c0,0,0.1,0.1,0.1,0.1c0,0.1,0,0.1,0.1,0.1c0.1,0,0.2,0.1,0.2,0.1c0,0,0.1,0.1,0.1,0.1
				c0,0,0.1,0,0.2,0s0.2,0,0.2,0c0,0,0.1,0,0.1,0c0-0.1,0-0.1-0.1-0.1c0,0-0.1,0-0.1-0.1c0,0-0.1-0.1-0.1-0.1c0,0-0.1-0.1-0.1-0.1
				c0,0,0,0-0.1-0.1c0,0-0.1-0.1-0.1-0.1c0,0,0-0.1,0-0.1c-0.1,0-0.2-0.2-0.2-0.3c0,0,0-0.1-0.1-0.1c0,0-0.1-0.1-0.1-0.1
				c0-0.2-0.1-0.3-0.1-0.7c0-0.5,0-0.8,0.1-0.8c0,0,0,0,0.1-0.1c0-0.2,0.1-0.2,0.1-0.3c0,0,0.1-0.1,0.1-0.1c0-0.1,0-0.1,0.2-0.2
				c0.1-0.1,0.1-0.1,0.2-0.1c0,0,0.1,0,0.1-0.1c0-0.1,0.1-0.1,0.1-0.1c0.2-0.1,0-0.3-0.2-0.3c-0.1,0-0.3,0-0.4-0.1
				c0,0-0.1,0-0.1-0.1C560.7,748.6,560.4,748.6,560.1,748.6 M562.6,750.1c-0.1,0-0.1,0-0.2,0.1c-0.1,0.1-0.2,0.1-0.3,0.2
				c-0.1,0-0.1,0-0.1,0.1c0,0.1-0.1,0.2-0.1,0.3c-0.1,0.1-0.1,0.4,0,0.6c0,0,0.1,0.1,0.1,0.2c0.1,0.2,0.1,0.2,0.1,0.2
				c0.1,0,0.3,0.1,0.3,0.2c0.1,0.1,0.1,0.1,0.3,0.1h0.2l0.1-0.1c0,0,0.1-0.1,0.1-0.1c0,0,0.1,0,0.1,0c0,0,0.1,0,0.1,0
				c0,0,0,0,0.1-0.1c0,0,0-0.1,0.1-0.1c0,0,0-0.1,0-0.1c0,0,0,0,0.1-0.1l0.1-0.1v-0.2v-0.2l-0.1-0.1c0,0-0.1-0.1-0.1-0.1
				s0-0.1,0-0.1s0-0.1,0-0.1s0,0,0,0c0,0-0.1,0-0.1,0c0,0-0.1,0-0.1,0s-0.1,0-0.1-0.1C562.9,750.1,562.8,750.1,562.6,750.1
				 M561.5,753C561.5,753,561.5,753,561.5,753c0.2,0.1,0.2,0.1,0.3,0.1c0.1,0,0.1,0,0,0c0,0-0.1,0-0.1,0
				C561.7,753,561.5,753,561.5,753"/>
			<path id="path1_1_" class="st12" d="M557.9,747.1c-0.1,0.1-0.2,0.3-0.2,0.5c0,0.2,0.1,0.3,0.3,0.3c0.3,0,0.3,0,0.4,0.1
				c0,0,0.1,0.1,0.1,0.1c0,0,0.1,0.1,0.1,0.2c0,0.3-0.1,0.4-0.1,0.4c-0.1,0.1-0.1,0.1-0.1,0.5c0,0,0,0.1-0.1,0.1
				c-0.1,0.1-0.1,0.2-0.1,0.4c0,0.1,0,0.2-0.1,0.2c-0.2,0.2-0.2,0.7,0,0.9c0,0.1,0.1,0.1,0.1,0.2c0,0.1,0.1,0.2,0.1,0.2
				c0,0,0.1,0.1,0.1,0.2c0,0.1,0.1,0.2,0.1,0.2c0,0,0.1,0,0.1,0.1c0,0.1,0.1,0.3,0.2,0.3c0,0,0.1,0.1,0.1,0.1c0,0,0,0.1,0,0.1
				s0,0.1,0,0.1c0,0,0.1,0.1,0.1,0.1c0.1,0.1,0.1,0.8,0,0.9c-0.1,0.1-0.1,0.2-0.1,0.5c0,0.1,0,0.1-0.1,0.1c-0.1,0.1-0.1,0.2-0.1,0.4
				c0,0.1,0,0.3-0.1,0.3c-0.1,0.1-0.1,0.2-0.1,0.5c0,0.1,0,0.1-0.1,0.2c-0.1,0.1-0.1,0.2-0.1,0.5c0,0.1,0,0.2-0.1,0.2
				c-0.1,0.1-0.1,0.3-0.1,0.5c0,0,0,0.1-0.1,0.1c-0.1,0.1-0.1,0.1-0.1,0.2c0,0.1-0.1,0.2-0.1,0.2c0,0-0.1,0.1-0.1,0.2
				c0,0.1-0.1,0.1-0.1,0.2c-0.1,0.1-0.1,0.1-0.1,0.2c0,0.1-0.1,0.2-0.1,0.2c0,0-0.1,0.1-0.1,0.2c0,0.1,0,0.1-0.1,0.2
				c0,0-0.1,0.1-0.1,0.1c0,0,0,0,0,0.1c0,0,0,0.1,0,0.1c0,0,0,0.1-0.1,0.1c0,0,0,0-0.1,0.1c-0.1,0.1-0.1,3.7,0,3.8c0,0,0.1,0,0.6,0
				h0.6l0,0l0,0V761c0-1.5,0-1.8,0.1-1.8c0,0,0.1-0.1,0.2-0.2c0-0.1,0.1-0.2,0.1-0.2c0,0,0.1-0.1,0.1-0.1c0,0,0.1-0.1,0.1-0.2
				c0,0,0.1-0.1,0.1-0.2c0-0.1,0.1-0.1,0.1-0.2c0.1-0.1,0.1-0.2,0.1-0.3c0,0,0,0,0,0c0.1,0,0.2-0.2,0.2-0.4c0,0,0,0,0.1-0.1
				c0.1,0,0.1-0.1,0.1-0.3c0-0.1,0-0.2,0.1-0.2c0.1-0.1,0.1-0.2,0.1-0.4c0-0.1,0-0.2,0.1-0.3c0.1-0.1,0.1-0.1,0.1-0.5
				c0-0.1,0-0.1,0.1-0.1c0.1-0.1,0.1-0.1,0.1-0.4c0-0.2,0-0.2,0.1-0.3c0.1-0.1,0.1-0.3,0.1-0.4c0,0,0-0.1,0-0.2l0-0.1l0.1,0
				c0,0,0.1,0,0.2,0c0.1,0,0.3,0.1,0.3,0.1c0.1,0,0.1,0,0.2,0.1c0,0,0.2,0.1,0.2,0.1c0.1,0,0.1,0.2,0,0.3c-0.1,0.1-0.1,0.3-0.1,0.4
				c0,0.1,0,0.3-0.1,0.4c0,0.1-0.1,0.1-0.1,0.3c-0.1,0.4-0.1,0.4-0.1,0.5c-0.1,0.1-0.1,0.2-0.1,0.3c0,0.1-0.1,0.1-0.2,0
				c-0.1-0.1-0.5-0.1-0.5,0c0,0,0,0,0,0c-0.1,0-0.1,0.2-0.1,0.3c0,0.1,0,0.3-0.1,0.3c-0.2,0.2-0.2,0.6,0,0.6c0.1,0,0.2,0.1,0.2,0.1
				c0,0,0.2,0.1,0.3,0.1c0.2,0,0.3,0.1,0.3,0.1c0,0,0.1,0.1,0.2,0.1c0,0,0,0,0,0c0,0.1,0.1,0.2,0.1,0.2c0,0,0.1,0,0.1,0
				c0,0,0.1,0.2,0.1,0.2c0,0,0.1,0,0.1,0.1c0,0.1,0.1,0.1,0.1,0.1s0,0,0,0c0,0,0,0,0.1,0.1s0.1,0.1,0.1,0.1c0,0,0.1,0.1,0.1,0.1
				c0,0,0.1,0.1,0.1,0.1c0,0.1,0.1,0.1,0.1,0.1c0,0,0.1,0.1,0.1,0.1c0,0,0.1,0.2,0.2,0.2c0,0,0,0,0,0.1c0,0,0,0.1,0.1,0.1
				c0,0,0.1,0.1,0.1,0.2s0.1,0.1,0.1,0.1c0,0,0.1,0.1,0.1,0.1c0,0.1,0.1,0.1,0.1,0.1c0,0,0,0,0.1,0.1c0,0.1,0.1,0.1,0.2,0.2
				c0,0,0,0,0,0c0,0.1,0,0.1,0.1,0.2c0,0,0.1,0.1,0.1,0.1c0,0,0.1,0.1,0.1,0.2c0.1,0.1,0.2,0.2,0.2,0.2c0,0,0,0,0.1,0.1
				c0.1,0,0.1,0.1,0.1,0.2c0,0,0,0.1,0.1,0.1c0,0,0.1,0.1,0.1,0.1c0,0,0.1,0.1,0.1,0.1c0,0,0.1,0.1,0.1,0.1c0,0,0.1,0.2,0.2,0.2
				c0,0,0,0,0,0.1c0,0.1,0,0.1,0.2,0.2l0.1,0.1h0.7c0.8,0,0.9,0,0.9-0.1c0-0.1,0-0.1-0.1-0.2c0,0-0.1-0.1-0.1-0.1
				c0-0.1-0.1-0.1-0.1-0.1c0,0-0.1-0.1-0.1-0.1c0-0.1-0.1-0.1-0.1-0.1c0,0-0.1-0.1-0.1-0.1c0-0.1-0.1-0.2-0.1-0.2c0,0,0,0-0.1-0.1
				c0-0.1-0.1-0.1-0.1-0.2c-0.1-0.1-0.1-0.1-0.1-0.2c0,0,0-0.1,0-0.1c0,0-0.1-0.1-0.1-0.1c0,0,0-0.1-0.1-0.1c0,0-0.1-0.1-0.1-0.1
				c0,0-0.1-0.1-0.1-0.1c0,0-0.1-0.1-0.1-0.1c0-0.1-0.1-0.2-0.1-0.2c0,0,0,0,0-0.1s-0.1-0.1-0.1-0.2c-0.1-0.1-0.2-0.2-0.2-0.2
				c0,0-0.1-0.1-0.1-0.1c0,0,0,0-0.1-0.1c0-0.1-0.1-0.1-0.1-0.1c0,0-0.1-0.1-0.1-0.1c0-0.1-0.1-0.1-0.1-0.1c0,0-0.1-0.1-0.1-0.1
				c0,0-0.1-0.1-0.1-0.1c0,0-0.1-0.1-0.1-0.1c0,0-0.1-0.1-0.1-0.2c0-0.1-0.1-0.1-0.1-0.2c0,0-0.1-0.1-0.1-0.1c0,0-0.1-0.1-0.1-0.1
				c0,0-0.1-0.1-0.1-0.1c0,0,0,0-0.1-0.1c0-0.1-0.1-0.1-0.1-0.1c0,0-0.1,0-0.1-0.1c0,0-0.1-0.1-0.1-0.1c0,0-0.1-0.1-0.1-0.1
				s0-0.1-0.1-0.1c-0.1-0.1-0.1-0.1-0.1-0.4c0-0.3,0-0.4,0.1-0.4c0.1-0.1,0.1-0.1,0.1-0.4c0-0.2,0.1-0.3,0.1-0.4
				c0.1-0.1,0.1-0.2,0.1-0.5c0-0.2,0-0.2,0.1-0.3c0,0,0.1-0.1,0.1-0.1c0-0.1,0.2-0.1,0.3,0c0.1,0.1,0.1,0.1,0.2,0.1
				c0,0,0.1,0,0.1,0.1c0,0,0.1,0.1,0.1,0.1c0.1,0,0.1,0.1,0.2,0.1c0.1,0.1,0.1,0.1,0.2,0.1c0,0,0.1,0,0.1,0.1c0,0,0.1,0.1,0.1,0.1
				c0,0,0.1,0,0.1,0s0,0,0,0c0,0,0,0,0.1,0c0,0,0.1,0.1,0.1,0.1s0.1,0,0.1,0c0,0,0,0,0,0s0,0,0.1,0s0,0,0,0s0.1,0,0.1,0.1
				c0.1,0.1,0.2,0.1,0.6,0.1c0.8,0,1.1-0.1,1.2-0.1c0.1,0,0.5-0.1,0.8-0.1c0.5,0,0.7,0,0.8-0.2c0-0.1,0-0.7,0-0.9
				c-0.1-0.4-0.3-0.5-0.7-0.3c-0.1,0-0.4,0.1-0.9,0.1c-0.4,0-0.6,0-1,0.1l-0.2,0l-0.1-0.1c0,0-0.1-0.1-0.1-0.1c-0.1,0-0.1,0-0.2-0.1
				c0-0.1-0.2-0.2-0.3-0.2c0,0,0,0-0.1-0.1s0-0.1-0.1-0.1c0,0-0.1,0-0.1,0c0,0-0.1-0.1-0.1-0.1c0,0-0.2-0.2-0.3-0.2c0,0,0,0-0.1,0
				c0-0.1-0.1-0.1-0.2-0.1c0,0-0.1,0-0.1-0.1c0,0-0.2-0.1-0.3-0.2c0,0-0.1,0-0.1,0c0-0.1-0.1-0.1-0.3-0.2c-0.1,0-0.1,0-0.2-0.1
				c-0.1-0.1-0.1-0.1-0.3-0.1c-0.1,0-0.1,0-0.2,0c-0.1,0,0,0,0.5,0c0.4,0,0.6,0,0.8-0.1c0,0,0.1,0,0.1-0.1c0.1-0.1,0.1-0.1,0.3-0.1
				c0,0,0.1,0,0.1-0.1c0,0,0.1-0.1,0.1-0.1c0,0,0.1-0.1,0.1-0.1c0,0,0.1-0.1,0.1-0.1c0,0,0,0,0.1-0.1c0.1-0.1,0.2-0.2,0.2-0.2
				c0,0,0,0,0-0.1c0-0.1,0-0.1,0.1-0.1c0.1,0,0.1-0.1,0.1-0.2c0.1-0.2,0.1-0.2,0.1-0.2c0.1,0,0.1-0.2,0.1-0.8c0-0.6,0-0.7-0.1-0.8
				c-0.1-0.1-0.1-0.3-0.1-0.3c0,0,0.4,0,0.5,0c0,0,0.1,0,0.1,0.1c0.1,0,0.3,0.1,0.4,0.1c0.1,0,0.3,0,0.3,0.1
				c0.1,0.1,0.3,0.1,0.5,0.1c0.1,0,0.2,0,0.2,0.1c0,0,0.2,0.1,0.4,0.1c0.2,0,0.3,0.1,0.3,0.1c0,0.1,0.2,0.1,0.6,0.2
				c0.1,0,0.1,0,0.1,0c0.1,0.1,0.2,0.1,0.3,0.1c0.3,0,0.4,0.1,0.5,0.1c0.1,0.1,0.2,0.1,0.4,0.1c0.2,0,0.3,0,0.4,0.1
				c0.2,0.1,0.3,0,0.3-0.5c0-0.2,0-0.3-0.3-0.3c-0.2,0-0.4-0.1-0.4-0.1c0-0.1-0.3-0.1-0.5-0.2c-0.2,0-0.2,0-0.3-0.1
				c-0.1-0.1-0.1-0.1-0.3-0.1c-0.2,0-0.4-0.1-0.4-0.1c0,0-0.2-0.1-0.3-0.1c-0.3,0-0.4-0.1-0.4-0.1c-0.1-0.1-0.3-0.1-0.4-0.1
				c-0.2,0-0.3,0-0.4-0.1c-0.1-0.1-0.1-0.1-0.4-0.1c-0.2,0-0.3,0-0.3-0.1c0-0.1-0.2-0.1-0.4-0.1c-0.1,0-0.3,0-0.3-0.1
				c-0.1-0.1-0.3-0.1-0.5-0.1c-0.1,0-0.2,0-0.2-0.1c0,0-0.2-0.1-0.4-0.1c-0.2,0-0.2,0-0.3-0.1c-0.1-0.1-0.2-0.1-0.5-0.1
				c-0.2,0-0.2,0-0.3-0.1c-0.1-0.1-0.4-0.1-0.6-0.1c0,0-0.1,0-0.1,0c-0.1-0.1-0.3-0.1-0.5-0.1c-0.2,0-0.3,0-0.4-0.1
				c0,0-0.1-0.1-0.1-0.1s-0.1,0-0.2,0s-0.2,0-0.2,0c-0.1,0-0.2-0.1-0.3-0.2c-0.1-0.1-0.2-0.2-0.4-0.2c-0.1,0-0.1,0-0.2-0.1
				c-0.1-0.1-0.6-0.2-0.7-0.1c-0.1,0.1-0.7,0-0.8-0.1C558.2,747.1,558,747.1,557.9,747.1 M558.6,747.3c0.1,0,0.2,0,0.2,0
				c0,0,0.2,0,0.3,0c0.1-0.1,0.4-0.1,0.6,0.1c0.1,0,0.1,0.1,0.2,0.1c0.2,0,0.3,0.1,0.4,0.2c0.1,0.2,0.2,0.2,0.4,0.2
				c0.2,0,0.3,0.1,0.4,0.1c0.1,0,0.1,0.1,0.1,0.1s0.1,0,0.1,0c0,0,0.1,0,0.2,0c0.2,0,0.3,0.1,0.4,0.1c0,0,0.2,0.1,0.5,0.1
				c0.1,0,0.2,0,0.2,0.1c0.1,0.1,0.2,0.1,0.4,0.1c0.2,0,0.3,0.1,0.4,0.1c0.1,0.1,0.3,0.1,0.5,0.1c0.1,0,0.2,0,0.2,0.1
				c0.2,0.1,0.2,0.1,0.4,0.1c0.2,0,0.3,0.1,0.4,0.1c0,0,0.1,0,0.2,0.1c0.1,0,0.2,0,0.3,0.1c0.1,0,0.2,0,0.2,0.1
				c0.1,0.1,0.2,0.1,0.3,0.1c0.3,0,0.3,0.1,0.5,0.1c0.1,0.1,0.3,0.1,0.4,0.1c0.1,0,0.3,0.1,0.3,0.1c0,0,0.2,0.1,0.3,0.1
				c0.3,0.1,0.4,0.1,0.5,0.1c0.1,0,0.2,0.1,0.4,0.1c0.2,0,0.3,0.1,0.4,0.1c0.1,0,0.2,0.1,0.5,0.1c0.1,0,0.2,0,0.3,0.1
				c0.2,0.1,0.3,0.1,0.4,0.1c0.4,0,0.5,0.1,0.4,0.4c0,0.1,0,0.2-0.1,0.3l0,0.1l-0.2,0c-0.3,0-0.5-0.1-0.6-0.1c0,0-0.2-0.1-0.3-0.1
				c-0.3-0.1-0.3-0.1-0.4-0.1c-0.1-0.1-0.2-0.1-0.4-0.1c-0.2,0-0.3-0.1-0.4-0.1c-0.1-0.1-0.3-0.1-0.5-0.1c-0.1,0-0.2,0-0.2-0.1
				c-0.2-0.1-0.2-0.1-0.4-0.1c-0.2,0-0.3-0.1-0.4-0.1c-0.1,0-0.1-0.1-0.5-0.1c-0.1,0-0.2-0.1-0.3-0.1c-0.1,0-0.2-0.1-0.3-0.1
				c-0.1,0-0.2,0-0.3-0.1c-0.1,0-0.1,0-0.2,0c0,0-0.1,0-0.1,0c0,0,0,0-0.1,0c0,0-0.1,0-0.1,0c0,0,0,0.1,0.1,0.1c0,0,0,0,0,0.1
				c0,0,0,0.1,0,0.1c0,0,0,0.1,0,0.1c0,0.1,0.1,0.2,0.1,0.2c0.2,0.3,0.2,1,0,1.4c0,0.1-0.1,0.2-0.1,0.2c0,0-0.1,0.1-0.1,0.2
				c0,0-0.1,0.1-0.1,0.2c0,0-0.1,0.1-0.1,0.2c0,0-0.1,0.1-0.1,0.1c0,0,0,0-0.1,0.1c0,0-0.1,0-0.1,0.1c0,0-0.1,0.1-0.1,0.1
				c0,0-0.1,0.1-0.1,0.1c-0.1,0-0.1,0.1-0.2,0.1c-0.1,0-0.2,0.1-0.2,0.1c-0.2,0.1-0.3,0.1-0.7,0.1c-0.4,0-0.6,0-0.6-0.1
				c0,0-0.1-0.1-0.2-0.1c-0.1,0-0.2-0.1-0.3-0.1c0,0-0.1-0.1-0.1-0.1c-0.1-0.1-0.5-0.5-0.5-0.5c0,0,0-0.1-0.1-0.1
				c-0.1-0.1-0.1-0.2-0.2-0.3c0,0,0-0.1-0.1-0.2c-0.1-0.2-0.1-0.2-0.1-0.6c0-0.4,0-0.5,0.1-0.7c0,0,0.1-0.1,0.1-0.2
				c0-0.1,0.1-0.2,0.2-0.3c0,0,0,0,0-0.1s0.1-0.1,0.1-0.1c0,0,0.1-0.1,0.1-0.1c0,0,0.1-0.1,0.1-0.1c0,0,0.1-0.1,0.1-0.1
				c0,0,0.1-0.1,0.1-0.1c0.1,0,0.1-0.1,0.1-0.2c0-0.1-0.1-0.1-0.3-0.2c-0.2,0-0.3,0-0.3-0.1c0,0,0,0,0,0s0,0,0,0
				c0,0-0.2-0.1-0.3-0.1c-0.1,0-0.2,0-0.2,0c-0.3-0.1-0.4,0-0.4,0.2c-0.1,0.2-0.1,0.3-0.1,0.4c0,0.1-0.1,0.2-0.1,0.4
				c0,0.1-0.1,0.2-0.1,0.3c0,0.1-0.1,0.2-0.1,0.2c0,0.1,0,0.2-0.1,0.2c-0.1,0.3-0.1,0.4,0,0.5c0,0.1,0,0.1,0,0.1
				c0,0,0.1,0.2,0.1,0.2c0,0,0.1,0.1,0.1,0.2c0,0,0.1,0.1,0.1,0.2c0,0,0.1,0.1,0.1,0.2c0,0.1,0.1,0.2,0.1,0.2c0,0,0.1,0.1,0.1,0.2
				s0.1,0.2,0.1,0.2c0,0,0.1,0.1,0.1,0.2c0.1,0.2,0.2,0.4,0.4,0.5c0.1,0,0.1,0.1,0.1,0.1c0,0,0.2,0.1,0.3,0.1c0,0,0.3,0.1,0.3,0.1
				c0,0,0.1,0,0.2,0.1c0,0,0.1,0,0.2,0c0.1,0,0.2,0,0.2,0.1c0.1,0,0.1,0.1,0.2,0.1c0.2,0,0.3,0.1,0.3,0.1c0.1,0,0.2,0.1,0.3,0.1
				c0.1,0,0.2,0.1,0.3,0.1c0,0,0.1,0.1,0.1,0.1c0.1,0,0.1,0.1,0.2,0.1c0.1,0,0.1,0.1,0.2,0.1c0,0,0.1,0.1,0.1,0.1s0.1,0.1,0.2,0.1
				s0.1,0.1,0.2,0.1c0,0,0.1,0.1,0.1,0.1c0.1,0,0.1,0.1,0.1,0.1s0.1,0.1,0.1,0.1c0,0,0.1,0.1,0.2,0.1s0.1,0.1,0.2,0.1
				c0.1,0,0.1,0.1,0.2,0.1c0.1,0.1,0.1,0.1,0.2,0.1c0.1,0,0.5,0,0.7-0.1c0.2,0,0.5-0.1,0.9-0.1c0.3,0,0.5,0,0.8-0.1
				c0.1,0,0.1,0,0.2,0.1c0,0.1,0.1,0.1,0.1,0.4c0.1,0.8,0.1,0.8-1.1,0.9c-0.3,0-0.6,0-0.8,0.1c-0.8,0.2-1.2,0.2-1.4,0
				c0,0-0.1-0.1-0.1-0.1c0,0-0.2-0.1-0.2-0.1c0,0-0.1,0-0.1-0.1c0,0-0.1-0.1-0.1-0.1c0,0-0.1-0.1-0.1-0.1c0,0-0.1-0.1-0.1-0.1
				c0,0-0.1-0.1-0.2-0.1c-0.1,0-0.1-0.1-0.2-0.1s-0.1-0.1-0.1-0.1c0,0-0.1-0.1-0.1-0.1c-0.3-0.3-0.5-0.2-0.6,0.3
				c-0.1,0.3-0.1,0.4-0.1,0.5c0,0.1-0.1,0.2-0.1,0.4c0,0.1-0.1,0.3-0.1,0.5c-0.1,0.3-0.1,0.7-0.1,0.8c0,0,0,0,0,0.1
				c0,0.1,0.1,0.1,0.3,0.3c0.1,0.1,0.1,0.1,0.1,0.1c0,0,0,0.1,0.1,0.1s0.1,0.1,0.1,0.1s0,0.1,0.1,0.1c0,0,0.1,0.1,0.1,0.2
				c0.2,0.2,0.4,0.5,0.5,0.6c0.1,0.1,0.1,0.1,0.1,0.1s0,0.1,0.1,0.1c0.1,0.1,0.3,0.3,0.3,0.4c0,0,0.1,0.1,0.1,0.1s0.1,0.1,0.1,0.2
				s0.1,0.1,0.1,0.1c0,0,0.1,0.1,0.1,0.1c0,0,0.1,0.1,0.1,0.1c0,0,0.1,0.1,0.1,0.1c0,0,0,0.1,0.1,0.1c0,0,0.1,0.1,0.1,0.1
				c0,0.1,0.1,0.1,0.1,0.1c0,0,0.1,0.1,0.1,0.1c0,0.1,0.1,0.2,0.2,0.2c0,0,0.1,0.1,0.1,0.1s0,0.1,0.1,0.1s0.1,0.1,0.1,0.1s0,0,0,0
				s0,0,0,0s0,0.1,0.1,0.1c0.2,0.2,0.3,0.3,0.3,0.4c0,0,0,0.1,0.1,0.1c0,0,0.1,0.1,0.1,0.1c0,0,0.1,0.1,0.1,0.1
				c0.1,0.1,0,0.2-0.8,0.2h-0.6l-0.1-0.1c0,0-0.1-0.1-0.1-0.1c0,0-0.1-0.1-0.1-0.1c0-0.1-0.1-0.1-0.1-0.2c0,0,0,0,0-0.1
				s0-0.1-0.1-0.1s-0.1-0.1-0.1-0.2c0,0-0.1-0.1-0.1-0.1c0,0-0.1-0.1-0.1-0.1c0,0-0.1-0.1-0.1-0.2c0-0.1-0.1-0.1-0.1-0.2
				c0,0-0.1-0.1-0.1-0.1c0,0-0.1-0.1-0.1-0.1c0,0-0.1-0.1-0.1-0.1c0,0-0.1-0.1-0.1-0.1c0,0,0-0.1-0.1-0.1c-0.1-0.1-0.1-0.1-0.1-0.1
				s-0.1-0.1-0.1-0.1s-0.1-0.1-0.1-0.1c0,0,0-0.1-0.1-0.1c-0.1-0.1-0.1-0.1-0.1-0.2c0,0-0.1-0.1-0.1-0.1s-0.1-0.1-0.1-0.1
				c0,0-0.1-0.1-0.1-0.1s-0.1-0.1-0.1-0.1c0,0,0-0.1-0.1-0.1s-0.1-0.1-0.1-0.1c0,0,0-0.1-0.1-0.1s-0.1-0.1-0.1-0.2
				c0,0-0.1-0.1-0.1-0.2c0-0.1-0.1-0.1-0.1-0.1c0,0,0-0.1-0.1-0.1c0,0-0.1-0.1-0.1-0.1c0,0-0.1-0.1-0.1-0.1c0,0-0.1-0.1-0.1-0.1
				c0-0.1-0.3-0.3-0.4-0.3c0,0-0.1,0-0.2,0s-0.2-0.1-0.2-0.1c-0.1,0-0.2-0.1-0.3-0.1c-0.1,0-0.2-0.1-0.2-0.2c0-0.1,0.1-0.2,0.1-0.2
				c0,0,0-0.1,0.1-0.1c0.1-0.3,0.1-0.3,0.1-0.4c0,0,0-0.1,0.1-0.1s0.1-0.1,0.1-0.1c0-0.1,0.2-0.1,0.3,0c0.2,0.1,0.3,0.1,0.4,0
				c0.1-0.3,0.1-0.3,0.2-0.5c0-0.1,0.1-0.3,0.1-0.4c0.1-0.1,0.1-0.2,0.1-0.5c0-0.1,0.1-0.3,0.1-0.3c0.1-0.1,0.1-0.4,0.1-0.4
				c0-0.1-0.3-0.2-0.5-0.3c-0.1,0-0.2-0.1-0.3-0.1c-0.2-0.1-0.4-0.1-0.4,0.1c0,0.3-0.1,0.3-0.1,0.4c0,0.1-0.1,0.2-0.1,0.3
				c0,0.2-0.1,0.4-0.1,0.5c0,0.1-0.1,0.1-0.1,0.2s0,0.1,0,0.1c0,0,0,0.1,0,0.2c0,0.1,0,0.1-0.1,0.2c0,0.1-0.1,0.2-0.1,0.4
				c0,0.1,0,0.1-0.1,0.3c0,0.1-0.1,0.2-0.1,0.2c0,0.2-0.1,0.3-0.1,0.3c0,0-0.1,0.1-0.1,0.1c-0.1,0.1-0.1,0.3-0.1,0.3
				c0,0-0.1,0.1-0.1,0.2c0,0,0,0.1-0.1,0.1c0,0-0.1,0.1-0.1,0.2c0,0.1-0.1,0.2-0.1,0.2c-0.1,0.1-0.1,0.2-0.1,0.3c0,0,0,0.1-0.1,0.1
				c0,0-0.1,0.1-0.1,0.2c0,0.1-0.1,0.1-0.1,0.2c0,0-0.1,0.1-0.1,0.1c0,0,0,0.2,0,1.6c0,1.1,0,1.6,0,1.6c0,0.1-0.1,0.1-0.6,0.1
				c-0.5,0-0.6,0-0.6-0.1c0,0,0-3.4,0-3.5c0,0,0-0.1,0.1-0.2c0,0,0.1-0.1,0.1-0.1c0,0,0.1-0.2,0.1-0.3c0,0,0-0.1,0.1-0.1
				c0.1-0.1,0.1-0.2,0.1-0.2c0,0,0.1-0.2,0.1-0.3c0,0,0-0.1,0.1-0.1c0.1-0.1,0.1-0.2,0.1-0.2c0-0.1,0.1-0.1,0.1-0.2c0,0,0-0.1,0-0.1
				c0-0.1,0.1-0.2,0.1-0.3c0,0,0.1-0.2,0.1-0.3c0,0,0-0.1,0.1-0.2c0.1-0.2,0.1-0.3,0.1-0.3c0-0.1,0.1-0.3,0.1-0.4
				c0-0.1,0.1-0.2,0.1-0.3c0-0.1,0.1-0.4,0.1-0.4c0,0,0.1-0.2,0.1-0.4c0-0.1,0-0.2,0.1-0.4c0,0,0-0.1,0.1-0.2c0-0.2,0.1-0.3,0.1-0.4
				c0.1-0.1,0.1-0.2,0.1-0.3c0-0.1,0-0.2,0.1-0.3c0-0.1,0-0.3,0-0.4c0,0,0-0.1,0-0.1c0-0.1-0.1-0.2-0.1-0.2c0,0-0.1-0.1-0.1-0.2
				c0-0.1-0.1-0.2-0.1-0.2c0,0-0.1-0.1-0.1-0.3c0,0,0-0.1-0.1-0.1c-0.1-0.1-0.1-0.1-0.1-0.3c0,0-0.1-0.1-0.1-0.2
				c0,0-0.1-0.1-0.1-0.2c0-0.1-0.1-0.2-0.1-0.2c-0.1-0.2-0.1-0.4,0-0.7c0-0.1,0.1-0.2,0.1-0.4c0-0.1,0.1-0.2,0.1-0.3
				s0.1-0.2,0.1-0.3c0-0.1,0.1-0.3,0.1-0.4c0-0.1,0.1-0.2,0.1-0.4c0,0,0-0.1,0-0.1c0-0.1,0-0.1-0.1-0.2c-0.1-0.1-0.2-0.1-0.5-0.2
				c-0.3,0-0.4-0.1-0.4-0.3C557.8,747.2,557.9,747.2,558.6,747.3 M560.5,748.6c0.1,0,0.2,0,0.2,0.1c0,0,0.1,0.1,0.1,0.1
				c0.1,0,0.3,0.1,0.4,0.1c0.2,0,0.4,0.2,0.2,0.3c-0.1,0-0.1,0-0.1,0.1c0,0-0.1,0.1-0.1,0.1c0,0-0.1,0.1-0.2,0.1
				c-0.2,0.2-0.2,0.2-0.2,0.2c0,0,0,0.1-0.1,0.1c-0.1,0.1-0.1,0.1-0.1,0.3c0,0.1,0,0.1-0.1,0.1c-0.1,0-0.1,0.3-0.1,0.8
				c0,0.4,0,0.4,0.1,0.7c0,0,0,0.1,0.1,0.1c0,0,0.1,0.1,0.1,0.1c0,0.1,0.1,0.3,0.2,0.3c0,0,0,0,0,0.1c0,0,0.1,0.1,0.1,0.1
				c0,0,0.1,0.1,0.1,0.1c0,0,0.1,0.1,0.1,0.1c0,0,0.1,0,0.1,0.1c0,0.1,0.1,0.1,0.1,0.1c0.1,0,0.1,0,0.1,0.1c0,0,0,0-0.1,0
				c0,0-0.1,0-0.2,0s-0.2,0-0.2,0c0,0-0.1,0-0.1-0.1c0,0-0.1-0.1-0.2-0.1c-0.1,0-0.1,0-0.1-0.1c0,0,0-0.1-0.1-0.1
				c-0.1-0.1-0.1-0.1-0.1-0.2c0-0.1-0.1-0.2-0.1-0.2c0,0,0,0,0-0.1c0-0.1-0.1-0.3-0.2-0.3c0,0-0.1,0-0.1-0.1c0-0.1-0.1-0.3-0.1-0.3
				c-0.1,0-0.1-0.1-0.1-0.1c0-0.1-0.1-0.2-0.1-0.3c-0.1-0.1-0.1-0.8,0-0.9c0,0,0.1-0.1,0.1-0.3c0-0.2,0.1-0.3,0.1-0.4
				c0.1-0.1,0.1-0.1,0.1-0.4c0-0.3,0-0.2,0.1-0.2C560.2,748.6,560.3,748.6,560.5,748.6 M562.4,750c0,0-0.1,0.1-0.2,0.1
				s-0.1,0.1-0.2,0.1c0,0-0.1,0-0.1,0.1c0,0,0,0.1-0.1,0.1c-0.1,0.2-0.2,0.7-0.1,0.8c0,0,0.1,0.2,0.2,0.2c0,0,0.1,0.1,0.1,0.1
				c0,0,0.1,0.1,0.2,0.1c0.2,0.1,0.7,0.1,0.9,0c0,0,0.1-0.1,0.1-0.1c0.1,0,0.1-0.1,0.1-0.1c0-0.1,0.1-0.1,0.1-0.1
				c0.2-0.2,0.2-0.7,0-0.9c0,0,0-0.1-0.1-0.1c0,0-0.1-0.1-0.1-0.1c0,0-0.1-0.1-0.1-0.1C563,750,562.6,750,562.4,750 M563,750.2
				C563,750.2,563.1,750.2,563,750.2c0.1,0.1,0.2,0.1,0.2,0.1c0,0,0.1,0,0.1,0c0,0,0,0,0,0s0,0.1,0,0.1s0,0.1,0,0.1s0,0,0.1,0.1
				l0.1,0.1v0.2v0.2l-0.1,0.1c0,0-0.1,0.1-0.1,0.1c0,0,0,0,0,0.1c0,0,0,0.1-0.1,0.1c0,0,0,0.1-0.1,0.1c0,0-0.1,0-0.1,0
				c0,0-0.1,0-0.1,0c0,0-0.1,0-0.1,0.1l-0.1,0.1h-0.2c-0.2,0-0.2,0-0.3-0.1c-0.1-0.1-0.3-0.2-0.3-0.2c0,0,0,0-0.1-0.2
				c0-0.1-0.1-0.1-0.1-0.2c-0.1-0.1-0.1-0.4,0-0.6c0.1-0.1,0.1-0.2,0.1-0.3c0,0,0-0.1,0.1-0.1c0.1,0,0.2-0.1,0.3-0.2
				C562.5,750.1,562.9,750.1,563,750.2 M561.7,753c0,0,0.1,0,0.1,0C561.9,753,561.9,753,561.7,753c0,0.1-0.2,0.1-0.2,0
				C561.4,753,561.6,752.9,561.7,753"/>
			<path id="path2_1_" class="st13" d="M558,747.2c-0.1,0-0.2,0.1-0.2,0.3c0,0.2,0.1,0.3,0.4,0.3c0.3,0,0.4,0.1,0.5,0.2
				c0.1,0.1,0.1,0.1,0.1,0.2c0,0,0,0.1,0,0.1c0,0.2-0.1,0.3-0.1,0.4c-0.1,0.1-0.1,0.2-0.1,0.4c0,0.1,0,0.2-0.1,0.3s-0.1,0.2-0.1,0.3
				c0,0.2-0.1,0.3-0.1,0.4c-0.1,0.3-0.1,0.5,0,0.7c0,0.1,0.1,0.2,0.1,0.2c0,0.1,0.1,0.1,0.1,0.2c0,0,0.1,0.1,0.1,0.2
				c0,0.1,0.1,0.2,0.1,0.3c0,0,0.1,0.1,0.1,0.1c0.1,0.1,0.1,0.3,0.1,0.3c0,0,0.1,0.1,0.1,0.2c0,0.1,0.1,0.2,0.1,0.2
				c0,0,0.1,0.1,0.1,0.2c0,0,0,0.1,0,0.1c0,0.1,0,0.2,0,0.4c0,0.1,0,0.2-0.1,0.3c0,0.2,0,0.2-0.1,0.3c0,0.1-0.1,0.2-0.1,0.4
				c0,0.1,0,0.2-0.1,0.2c-0.1,0.2-0.1,0.2-0.1,0.4c0,0.2-0.1,0.4-0.1,0.4c0,0-0.1,0.3-0.1,0.4c0,0.1,0,0.2-0.1,0.3
				c0,0.1-0.1,0.3-0.1,0.4c0,0.1,0,0.2-0.1,0.3c0,0.1-0.1,0.2-0.1,0.2c0,0.1-0.1,0.2-0.1,0.3c0,0-0.1,0.2-0.1,0.3c0,0,0,0.1,0,0.1
				c-0.1,0.1-0.1,0.2-0.1,0.2c0,0.1-0.1,0.1-0.1,0.2c0,0-0.1,0.1-0.1,0.1c0,0-0.1,0.2-0.1,0.3c0,0-0.1,0.1-0.1,0.2
				c0,0,0,0.1-0.1,0.1c0,0.1-0.1,0.2-0.1,0.3c0,0,0,0.1-0.1,0.1c0,0-0.1,0.1-0.1,0.2c0,0.1,0,3.5,0,3.5c0,0.1,0.1,0.1,0.6,0.1
				c0.5,0,0.6,0,0.6-0.1c0,0,0-0.5,0-1.6c0-1.4,0-1.6,0-1.6c0,0,0.1-0.1,0.1-0.1c0,0,0.1-0.1,0.1-0.2c0-0.1,0.1-0.1,0.1-0.2
				c0,0,0.1-0.1,0.1-0.1c0,0,0.1-0.2,0.1-0.3c0,0,0.1-0.1,0.1-0.2c0-0.1,0.1-0.2,0.1-0.2c0,0,0-0.1,0.1-0.1c0.1-0.2,0.1-0.2,0.1-0.2
				c0,0,0.1-0.1,0.1-0.3c0,0,0-0.1,0.1-0.1c0.1-0.1,0.1-0.2,0.1-0.3c0-0.1,0-0.2,0.1-0.2c0.1-0.2,0.1-0.2,0.1-0.3
				c0-0.2,0.1-0.3,0.1-0.4c0,0,0-0.1,0.1-0.2c0-0.1,0-0.1,0-0.2c0,0,0-0.1,0-0.1s0-0.1,0.1-0.2c0.1-0.1,0.1-0.2,0.1-0.5
				c0-0.1,0.1-0.2,0.1-0.3c0.1-0.1,0.1-0.2,0.1-0.4c0-0.2,0.2-0.2,0.4-0.1c0.1,0,0.2,0.1,0.3,0.1c0.2,0,0.5,0.2,0.5,0.3
				c0,0.1,0,0.3-0.1,0.4c0,0.1-0.1,0.2-0.1,0.3c-0.1,0.3-0.1,0.3-0.1,0.5c0,0.1-0.1,0.2-0.1,0.4c0,0.1,0,0.2-0.2,0.5
				c-0.1,0.1-0.2,0.2-0.4,0c-0.1-0.1-0.3-0.1-0.3,0c0,0,0,0-0.1,0.1s-0.1,0.1-0.1,0.1c0,0.1,0,0.1-0.1,0.4c0,0,0,0.1-0.1,0.1
				c0,0.1-0.1,0.1-0.1,0.2c0,0.1,0,0.1,0.2,0.2c0.1,0,0.2,0.1,0.3,0.1c0.1,0,0.2,0.1,0.2,0.1s0.1,0,0.2,0c0.1,0,0.3,0.2,0.4,0.3
				c0,0,0,0.1,0.1,0.1c0,0,0.1,0.1,0.1,0.1c0,0,0.1,0.1,0.1,0.1c0,0,0.1,0.1,0.1,0.1c0,0,0,0.1,0.1,0.1c0,0.1,0.1,0.1,0.1,0.2
				c0,0,0.1,0.1,0.1,0.2s0.1,0.1,0.1,0.1c0,0,0,0.1,0.1,0.1s0.1,0.1,0.1,0.1c0,0,0,0.1,0.1,0.1s0.1,0.1,0.1,0.1c0,0,0,0.1,0.1,0.1
				s0.1,0.1,0.1,0.1c0,0,0.1,0.1,0.1,0.2c0.1,0.1,0.1,0.1,0.1,0.1c0,0,0,0.1,0.1,0.1s0.1,0.1,0.1,0.1s0.1,0.1,0.1,0.1
				c0.1,0.1,0.1,0.1,0.1,0.1c0,0,0,0,0.1,0.1c0,0,0.1,0.1,0.1,0.1c0,0,0.1,0.1,0.1,0.1c0,0,0.1,0.1,0.1,0.1c0,0,0.1,0.1,0.1,0.2
				c0,0.1,0.1,0.1,0.1,0.2c0,0,0.1,0.1,0.1,0.1c0,0,0.1,0.1,0.1,0.1c0,0,0.1,0.1,0.1,0.2s0.1,0.1,0.1,0.1s0,0,0,0.1
				c0.1,0.1,0.1,0.1,0.1,0.2c0,0,0.1,0.1,0.1,0.1c0,0,0.1,0.1,0.1,0.1l0.1,0.1h0.6c0.8,0,0.9,0,0.8-0.2c0,0-0.1-0.1-0.1-0.1
				c0,0-0.1-0.1-0.1-0.1c0,0-0.1-0.1-0.1-0.1c0,0-0.2-0.2-0.3-0.4c0,0-0.1-0.1-0.1-0.1s0,0,0,0s0,0,0,0s0-0.1-0.1-0.1
				s-0.1-0.1-0.1-0.1s0-0.1-0.1-0.1c0,0-0.1-0.1-0.2-0.2c0-0.1-0.1-0.1-0.1-0.1c0,0-0.1-0.1-0.1-0.1c0-0.1-0.1-0.1-0.1-0.1
				c0,0-0.1-0.1-0.1-0.1c0,0,0-0.1-0.1-0.1c0,0-0.1-0.1-0.1-0.1c0,0-0.1-0.1-0.1-0.1c0,0-0.1-0.1-0.1-0.1s-0.1-0.1-0.1-0.2
				s-0.1-0.1-0.1-0.1c-0.1-0.1-0.2-0.2-0.3-0.4c-0.1-0.1-0.1-0.1-0.1-0.1s0-0.1-0.1-0.1c-0.1-0.1-0.3-0.4-0.5-0.6
				c0,0-0.1-0.1-0.1-0.2c0,0-0.1-0.1-0.1-0.1s0-0.1-0.1-0.1s-0.1-0.1-0.1-0.1c0,0,0-0.1-0.1-0.1c-0.2-0.2-0.2-0.3-0.3-0.3
				c0,0,0-0.1,0-0.1c-0.1,0,0-0.5,0.1-0.8c0.1-0.2,0.1-0.3,0.1-0.5c0-0.2,0.1-0.3,0.1-0.4c0-0.1,0.1-0.2,0.1-0.5
				c0-0.2,0.1-0.3,0.2-0.4c0.1,0,0.2,0.1,0.3,0.2c0,0,0.1,0.1,0.1,0.1c0,0,0.1,0.1,0.1,0.1s0.1,0.1,0.2,0.1c0.1,0,0.1,0.1,0.2,0.1
				c0,0,0.1,0.1,0.1,0.1c0.1,0,0.1,0.1,0.1,0.1c0,0,0.1,0.1,0.1,0.1c0,0,0.1,0.1,0.1,0.1c0,0,0.2,0.1,0.2,0.1c0,0,0.1,0,0.1,0.1
				c0.2,0.2,0.5,0.2,1.4,0c0.1,0,0.4-0.1,0.8-0.1c1.3-0.1,1.3-0.1,1.1-0.9c0-0.3-0.1-0.3-0.1-0.4c-0.1-0.1-0.1-0.1-0.2-0.1
				c-0.3,0-0.6,0.1-0.8,0.1c-0.4,0-0.7,0.1-0.9,0.1c-0.2,0-0.5,0.1-0.7,0.1c-0.1,0-0.1,0-0.2-0.1c0,0-0.1-0.1-0.2-0.1
				c-0.1,0-0.2-0.1-0.2-0.1s-0.1-0.1-0.2-0.1c0,0-0.1-0.1-0.1-0.1s-0.1-0.1-0.1-0.1c-0.1,0-0.1-0.1-0.1-0.1c0,0-0.1-0.1-0.2-0.1
				s-0.1-0.1-0.2-0.1s-0.1-0.1-0.1-0.1c0,0-0.1-0.1-0.2-0.1c-0.1,0-0.1-0.1-0.2-0.1c-0.1,0-0.1-0.1-0.1-0.1
				c-0.1-0.1-0.1-0.1-0.3-0.1c-0.1,0-0.2-0.1-0.3-0.1c-0.1,0-0.1-0.1-0.3-0.1c-0.1,0-0.1-0.1-0.2-0.1c-0.1,0-0.1-0.1-0.2-0.1
				c-0.1,0-0.2,0-0.2,0c-0.1,0-0.2-0.1-0.2-0.1c0,0-0.2-0.1-0.3-0.1c0,0-0.2-0.1-0.3-0.1c0,0-0.1,0-0.1-0.1
				c-0.1-0.1-0.3-0.3-0.4-0.5c0-0.1-0.1-0.2-0.1-0.2c0,0-0.1-0.1-0.1-0.2s-0.1-0.2-0.1-0.2c0,0-0.1-0.1-0.1-0.2
				c0-0.1-0.1-0.2-0.1-0.2c0,0-0.1-0.1-0.1-0.2c0,0-0.1-0.1-0.1-0.2c-0.1-0.1-0.1-0.2-0.1-0.2c0,0,0-0.1,0-0.1c-0.1-0.1,0-0.2,0-0.5
				c0-0.1,0-0.2,0.1-0.2c0-0.1,0-0.2,0.1-0.2c0-0.1,0.1-0.2,0.1-0.3c0-0.2,0.1-0.3,0.1-0.4c0,0,0.1-0.1,0.1-0.4
				c0-0.2,0.1-0.2,0.4-0.2c0.1,0,0.2,0,0.2,0c0.2,0,0.3,0.1,0.3,0.1c0,0,0,0,0,0s0,0,0,0c0,0,0,0,0.3,0.1c0.3,0,0.3,0.1,0.3,0.2
				c0,0.1,0,0.2-0.1,0.2c0,0-0.1,0.1-0.1,0.1c0,0-0.1,0.1-0.1,0.1c0,0-0.1,0.1-0.1,0.1c0,0-0.1,0.1-0.1,0.1c0,0-0.1,0.1-0.1,0.1
				s0,0.1,0,0.1c-0.1,0.1-0.1,0.2-0.2,0.3c0,0.1-0.1,0.2-0.1,0.2c-0.1,0.1-0.1,0.3-0.1,0.7c0,0.4,0,0.4,0.1,0.6
				c0,0.1,0.1,0.1,0.1,0.2c0,0.1,0.1,0.2,0.2,0.3c0,0,0.1,0.1,0.1,0.1c0,0.1,0.4,0.5,0.5,0.5c0,0,0.1,0.1,0.1,0.1
				c0,0,0.1,0.1,0.3,0.1c0.1,0,0.2,0.1,0.2,0.1c0.1,0.1,0.2,0.1,0.6,0.1c0.4,0,0.4,0,0.7-0.1c0.1,0,0.2-0.1,0.2-0.1
				c0.1,0,0.2-0.1,0.2-0.1c0,0,0.1-0.1,0.1-0.1c0,0,0.1-0.1,0.1-0.1c0,0,0.1-0.1,0.1-0.1c0,0,0,0,0.1-0.1c0,0,0.1-0.1,0.1-0.1
				c0,0,0.1-0.1,0.1-0.2c0,0,0.1-0.1,0.1-0.2c0,0,0.1-0.1,0.1-0.2c0,0,0.1-0.1,0.1-0.2c0.2-0.3,0.2-1,0-1.4c0-0.1-0.1-0.2-0.1-0.2
				c0-0.1,0-0.1,0-0.1c0,0,0-0.1,0-0.1c0-0.1,0-0.1,0-0.1c0,0-0.1,0-0.1-0.1c0,0,0,0,0.1,0c0,0,0.1,0,0.1,0c0,0,0,0,0.1,0
				c0,0,0.1,0,0.2,0c0.1,0,0.2,0,0.3,0.1c0.1,0,0.2,0.1,0.3,0.1c0.1,0,0.2,0.1,0.3,0.1c0.3,0.1,0.4,0.1,0.5,0.1
				c0.1,0,0.2,0.1,0.4,0.1c0.2,0,0.3,0.1,0.4,0.1c0.1,0,0.2,0.1,0.2,0.1c0.2,0,0.4,0.1,0.5,0.1c0.1,0.1,0.2,0.1,0.4,0.1
				c0.2,0,0.3,0.1,0.4,0.1c0.1,0,0.2,0.1,0.4,0.1c0.1,0,0.2,0.1,0.3,0.1c0.1,0,0.3,0.1,0.6,0.1l0.2,0l0-0.1c0,0,0.1-0.1,0.1-0.1
				c0-0.4,0-0.4-0.4-0.5c-0.1,0-0.2,0-0.4-0.1c-0.1,0-0.2-0.1-0.3-0.1c-0.2,0-0.4-0.1-0.5-0.1c-0.1,0-0.2-0.1-0.4-0.1
				c-0.2,0-0.3-0.1-0.4-0.1c-0.1,0-0.2-0.1-0.5-0.1c-0.1,0-0.3-0.1-0.3-0.1c-0.1,0-0.2-0.1-0.3-0.1c-0.2,0-0.3-0.1-0.4-0.1
				c-0.1-0.1-0.2-0.1-0.5-0.1c-0.1,0-0.2,0-0.3-0.1c0,0-0.1,0-0.2-0.1c-0.1,0-0.2,0-0.3-0.1c-0.1,0-0.1,0-0.2-0.1
				c-0.1,0-0.2-0.1-0.4-0.1c-0.2,0-0.3-0.1-0.4-0.1c-0.1,0-0.2-0.1-0.2-0.1c-0.2,0-0.3-0.1-0.5-0.1c-0.1,0-0.2-0.1-0.4-0.1
				c-0.2,0-0.3,0-0.4-0.1c-0.1,0-0.2-0.1-0.2-0.1c-0.3-0.1-0.4-0.1-0.5-0.1c0,0-0.2-0.1-0.4-0.1c-0.1,0-0.2,0-0.2,0c0,0-0.1,0-0.1,0
				s-0.1,0-0.1-0.1c-0.1-0.1-0.2-0.1-0.4-0.1c-0.2,0-0.2,0-0.4-0.2c-0.1-0.1-0.3-0.2-0.4-0.2c0,0-0.1,0-0.2-0.1
				c-0.3-0.1-0.5-0.2-0.6-0.1c-0.1,0.1-0.3,0.1-0.3,0c0,0-0.2-0.1-0.4-0.1C558.2,747.2,558.1,747.2,558,747.2 M558.4,747.3
				c0.1,0,0.2,0.1,0.3,0.1c0.1,0.1,0.3,0.1,0.4,0c0.1-0.1,0.3-0.1,0.5,0c0.1,0,0.2,0.1,0.4,0.1c0.1,0,0.2,0.1,0.2,0.1
				c0,0.1,0.2,0.3,0.4,0.3c0.2,0,0.3,0.1,0.4,0.1c0.1,0,0.2,0.1,0.3,0.1c0.3,0.1,0.5,0.1,0.6,0.1c0.1,0,0.2,0.1,0.3,0.1
				c0.2,0,0.3,0.1,0.4,0.1c0.1,0,0.2,0.1,0.5,0.1c0.1,0,0.2,0.1,0.3,0.1c0.1,0,0.2,0.1,0.3,0.1c0.2,0,0.4,0.1,0.4,0.1
				c0,0,0.2,0.1,0.3,0.1c0,0,0.2,0,0.4,0.1c0,0,0.1,0,0.1,0c0,0,0.2,0.1,0.5,0.1c0.1,0,0.2,0,0.2,0c0.1,0,0.3,0.1,0.3,0.1
				c0,0,0.2,0,0.4,0.1c0.1,0,0.1,0,0.2,0.1s0.2,0.1,0.2,0.1c0.3,0,0.4,0.1,0.5,0.1c0.1,0.1,0.2,0.1,0.5,0.1c0.1,0,0.2,0,0.3,0.1
				c0.1,0.1,0.2,0.1,0.4,0.1c0.2,0,0.2,0,0.4,0.1c0.1,0,0.3,0.1,0.4,0.1c0.1,0,0.3,0.1,0.4,0.1c0.1,0,0.2,0.1,0.3,0.1
				c0.4,0.1,0.5,0.1,0.5,0.2c0,0.1,0,0.3,0,0.4c-0.1,0.1-0.5,0-0.7-0.1c-0.1,0-0.2-0.1-0.3-0.1c-0.2,0-0.3-0.1-0.4-0.1
				c-0.1-0.1-0.2-0.1-0.4-0.1c-0.2,0-0.3-0.1-0.3-0.1c-0.1,0-0.2-0.1-0.3-0.1c-0.2,0-0.4-0.1-0.4-0.1c0,0-0.2-0.1-0.3-0.1
				c-0.1,0-0.4-0.1-0.5-0.1c0,0-0.1,0-0.1,0s0,0,0,0c0,0-0.1,0-0.2,0c-0.3-0.1-0.4-0.1-0.4-0.1c-0.1-0.1-0.4-0.1-0.5-0.1
				c-0.1,0-0.2-0.1-0.3-0.1c-0.1-0.1-0.2-0.1-0.3,0c-0.1,0.1-0.1,0.1,0,0.2c0.1,0.1,0.1,0.2,0.1,0.3c0,0,0,0.1,0.1,0.2l0.1,0.2
				l0,0.4c0,0.4,0,0.5-0.1,0.5c0,0-0.1,0.2-0.1,0.3c0,0-0.1,0.3-0.1,0.3c0,0,0,0-0.1,0.1c0,0.1-0.1,0.2-0.4,0.5c0,0-0.1,0.1-0.2,0.1
				c0,0-0.1,0.1-0.1,0.1c-0.1,0.1-0.2,0.1-0.3,0.1c0,0-0.2,0.1-0.2,0.1c0,0-0.1,0-0.1,0c-0.4,0.1-0.7,0-0.9-0.1
				c-0.1,0-0.2-0.1-0.2-0.1c-0.1,0-0.2-0.1-0.3-0.1c0,0-0.1-0.1-0.1-0.1c-0.1,0-0.1-0.1-0.2-0.1s-0.1-0.1-0.1-0.1
				c-0.2-0.1-0.2-0.3-0.3-0.3c0,0-0.1-0.1-0.1-0.1c0,0-0.1-0.2-0.1-0.3c0,0-0.1-0.1-0.1-0.2c-0.1-0.2-0.1-0.5-0.1-0.8
				c0-0.2,0-0.2,0.1-0.4c0-0.1,0.1-0.2,0.1-0.2c0-0.1,0.1-0.2,0.1-0.2c0,0,0.1-0.1,0.1-0.2c0,0,0.1-0.1,0.1-0.1c0,0,0.1-0.1,0.1-0.1
				c0,0,0.1-0.1,0.1-0.1c0,0,0.1,0,0.1-0.1c0,0,0.1-0.1,0.1-0.1c0.1-0.1,0.2-0.1,0.2-0.2l0-0.1l0,0c0,0-0.1-0.1-0.2-0.1
				c-0.2,0-0.4-0.1-0.4-0.1c-0.1-0.1-0.1-0.1-0.5-0.1c-0.1,0-0.2,0-0.2-0.1c-0.3-0.1-0.4,0-0.4,0.3c0,0.1,0,0.1-0.1,0.2
				c-0.1,0.1-0.1,0.2-0.1,0.4c0,0.1-0.1,0.2-0.1,0.3c-0.1,0.1-0.1,0.2-0.1,0.5c0,0.1,0,0.1-0.1,0.2c0,0.1-0.1,0.3,0,0.3
				c0,0.1,0.1,0.2,0.1,0.2c0,0,0,0,0,0.1c0,0,0,0,0,0c0,0,0,0,0,0c0,0,0.1,0.2,0.1,0.2c0,0.1,0.1,0.1,0.1,0.2c0,0.1,0.1,0.1,0.1,0.2
				s0.1,0.1,0.1,0.2c0.1,0.1,0.1,0.2,0.2,0.3c0,0,0,0.1,0.1,0.1c0,0,0.1,0.1,0.1,0.2c0,0.1,0.1,0.2,0.1,0.2s0.1,0.1,0.1,0.1
				c0,0,0.1,0.1,0.1,0.1c0,0,0.1,0,0.1,0c0,0,0.1,0.1,0.3,0.1c0.2,0,0.2,0.1,0.3,0.1c0.1,0.1,0.1,0.1,0.4,0.1c0.1,0,0.2,0.1,0.2,0.1
				c0,0,0.2,0.1,0.3,0.1c0.1,0,0.2,0,0.2,0.1c0.1,0.1,0.1,0.1,0.4,0.1c0.1,0,0.2,0.1,0.2,0.1c0,0,0.1,0.1,0.1,0.1
				c0,0,0.1,0.1,0.2,0.1c0.1,0.1,0.2,0.2,0.3,0.2c0,0,0.1,0,0.1,0.1c0,0,0.1,0.1,0.2,0.1c0.1,0,0.1,0.1,0.2,0.1c0,0,0.1,0.1,0.1,0.1
				s0.1,0.1,0.1,0.1c0,0,0.1,0.1,0.1,0.1c0,0,0.1,0,0.2,0.1c0.1,0.1,0.2,0.1,0.3,0.1c0,0,0,0,0.1,0.1c0.1,0.1,0.1,0.1,0.4,0.1
				c0.3,0,0.5,0,0.8-0.1c0.1,0,0.4-0.1,0.9-0.1c0.2,0,0.4,0,0.5,0c0.1,0,0.2,0,0.2,0.3c0,0.1,0,0.3,0.1,0.4c0.1,0.3,0.1,0.4-0.1,0.4
				c-0.2,0.1-0.5,0.1-1.1,0.2c-0.6,0-0.7,0-1.1,0.1c-0.5,0.1-0.8,0.1-0.9,0c0,0-0.1-0.1-0.1-0.1s-0.1,0-0.1-0.1c0,0-0.1-0.1-0.2-0.1
				c-0.1,0-0.1-0.1-0.2-0.1c0,0-0.1-0.1-0.1-0.1c0,0-0.1,0-0.1-0.1c0,0-0.1-0.1-0.2-0.1c-0.1,0-0.1-0.1-0.2-0.1s-0.1-0.1-0.1-0.1
				c0,0-0.1-0.1-0.1-0.1c-0.1-0.1-0.3-0.2-0.4-0.2c-0.2,0-0.3,0.2-0.3,0.6c0,0.1,0,0.1-0.1,0.2c-0.1,0.1-0.1,0.3-0.1,0.3
				c0,0.1-0.1,0.3-0.1,0.5c0,0.1-0.1,0.3-0.1,0.4c0,0,0,0.1,0,0.2c-0.1,0.2,0,0.4,0,0.4c0,0,0,0,0,0s0,0.1,0.1,0.1
				c0.1,0.1,0.1,0.1,0.1,0.1s0,0.1,0.1,0.1c0,0,0.1,0.1,0.1,0.1c0,0,0.1,0.1,0.1,0.1c0,0,0.1,0.1,0.1,0.1c0,0,0.1,0.1,0.1,0.1
				c0.1,0.1,0.2,0.2,0.3,0.4c0,0,0.1,0.1,0.2,0.2c0.1,0.1,0.1,0.1,0.1,0.1s0,0.1,0.1,0.1c0.1,0,0.1,0.1,0.1,0.1c0,0,0.1,0.1,0.1,0.1
				c0,0,0.1,0,0.1,0.1s0,0.1,0.1,0.1c0,0,0.1,0.1,0.1,0.1c0,0,0.1,0.1,0.1,0.1c0,0,0.1,0.1,0.1,0.2c0,0,0.1,0.1,0.1,0.2
				c0.1,0.1,0.1,0.1,0.1,0.2c0,0,0,0,0.1,0.1c0,0,0.1,0.1,0.1,0.1c0,0.1,0.1,0.2,0.2,0.2c0,0,0,0,0,0c0,0,0.1,0.1,0.1,0.2
				c0,0,0.1,0.1,0.1,0.1c0,0.1,0.1,0.1,0.2,0.2c0.1,0.1,0.1,0.1,0.1,0.1c0,0,0,0.1,0.1,0.1c0,0,0.1,0.1,0.1,0.2c0,0,0.1,0.1,0.1,0.1
				c0,0,0.1,0.1,0.1,0.1s0,0.1,0.1,0.1c0,0,0.1,0.1,0.1,0.1c0,0,0,0.1,0.1,0.1c0.1,0.1,0.2,0.2,0.2,0.3c0,0.1-0.1,0.1-0.8,0.1h-0.6
				l-0.1-0.1c-0.1-0.1-0.1-0.2-0.2-0.2c0,0,0-0.1-0.1-0.1c0,0-0.1-0.1-0.1-0.1c0-0.1-0.1-0.2-0.1-0.2c0,0,0,0,0-0.1
				c0,0-0.1-0.1-0.1-0.1c0,0-0.1-0.1-0.1-0.1s-0.1-0.1-0.1-0.2s-0.1-0.1-0.1-0.2c0,0-0.1-0.1-0.1-0.1c0,0-0.1-0.1-0.1-0.1
				c0,0,0-0.1,0-0.1c0,0-0.1-0.1-0.1-0.1c0,0-0.1-0.1-0.1-0.1c0,0-0.1-0.1-0.1-0.1c0,0-0.1-0.1-0.1-0.2c-0.1-0.1-0.1-0.1-0.1-0.1
				c0,0,0-0.1-0.1-0.1s-0.1-0.1-0.1-0.1c0,0,0-0.1-0.1-0.1c-0.1-0.1-0.1-0.1-0.1-0.1c0,0-0.1-0.1-0.1-0.1c0,0-0.1-0.1-0.1-0.1
				c0-0.1-0.1-0.2-0.2-0.2c0,0,0,0-0.1-0.1c0,0-0.1-0.1-0.1-0.2s-0.1-0.1-0.1-0.1c0,0-0.1-0.1-0.1-0.2c-0.1-0.1-0.1-0.1-0.1-0.1
				c0,0-0.1-0.1-0.1-0.1c0,0,0,0-0.1-0.1s-0.1-0.1-0.1-0.1c0,0-0.1-0.1-0.1-0.1c0-0.1-0.1-0.1-0.1-0.1s-0.1,0-0.1-0.1
				c-0.1-0.1-0.1-0.1-0.2-0.1c-0.2,0-0.3-0.1-0.3-0.1c-0.1-0.1-0.2-0.1-0.4-0.1c-0.2,0-0.2-0.1-0.1-0.3c0-0.1,0.1-0.2,0.1-0.3
				c0-0.2,0.1-0.3,0.3-0.5c0,0,0,0,0.1,0c0.2,0.1,0.5,0.1,0.6,0c0,0,0,0,0-0.1c0,0,0.1-0.2,0.1-0.3c0-0.2,0.1-0.3,0.1-0.4
				c0-0.1,0.1-0.2,0.1-0.3c0.1-0.3,0.1-0.4,0.1-0.5c0.1-0.1,0.1-0.3,0.1-0.5c0-0.2-0.2-0.3-0.5-0.4c-0.1,0-0.2-0.1-0.2-0.1
				c-0.3-0.2-0.5-0.1-0.5,0.1c0,0.1,0,0.2-0.1,0.2c0,0-0.1,0.1-0.1,0.1c0,0-0.1,0.2-0.1,0.3c0,0.1-0.1,0.2-0.1,0.3
				c-0.1,0.1-0.1,0.2-0.1,0.4c0,0.1,0,0.2-0.1,0.3c0,0.1-0.1,0.2-0.1,0.4c0,0.1,0,0.2-0.1,0.2c0,0.1-0.1,0.1-0.1,0.2
				c0,0,0,0.1,0,0.1s0,0.1,0,0.2c0,0.1,0,0.1-0.1,0.2c0,0-0.1,0.1-0.1,0.2c0,0-0.1,0.1-0.1,0.1c0,0-0.1,0.1-0.1,0.2
				c0,0-0.1,0.1-0.1,0.2c-0.1,0.1-0.2,0.2-0.2,0.3c0,0,0,0.1-0.1,0.1c0,0.1-0.1,0.1-0.1,0.2c0,0,0,0.1,0,0.1c0,0,0,0,0,0
				s0,0.1-0.1,0.1c0,0-0.1,0.1-0.1,0.1c0,0,0,0.1-0.1,0.1s0,0.1,0,0.1s0,0-0.1,0.1c-0.1,0.1-0.1,0.1-0.1,1.8v1.6l0,0
				c-0.1,0.1-1,0.1-1.1,0l0,0v-1.7c0-1.8,0-1.8,0.1-1.9c0,0,0.1-0.1,0.1-0.1c0,0,0.1-0.2,0.1-0.2c0,0,0.1-0.2,0.1-0.2
				c0,0,0-0.1,0.1-0.1c0.1-0.1,0.1-0.2,0.1-0.3c0,0,0-0.1,0.1-0.1c0,0,0.1-0.1,0.1-0.2c0-0.1,0.1-0.2,0.1-0.2c0,0,0.1-0.1,0.1-0.2
				c0-0.1,0.1-0.1,0.1-0.2c0,0,0.1-0.2,0.1-0.3c0,0,0-0.1,0.1-0.2c0-0.1,0.1-0.2,0.1-0.3c0.1-0.3,0.1-0.4,0.1-0.5
				c0-0.1,0.1-0.1,0.1-0.2c0-0.1,0.1-0.5,0.1-0.5c0,0,0.1-0.1,0.1-0.5c0-0.1,0.1-0.2,0.1-0.3c0-0.1,0.1-0.2,0.1-0.3
				c0-0.2,0.1-0.3,0.1-0.4c0-0.1,0.1-0.2,0.1-0.3c0-0.2,0-0.3,0.1-0.4c0.1-0.1,0-0.2,0-0.3c0,0-0.1-0.1-0.1-0.2
				c0-0.1-0.1-0.2-0.1-0.2c0,0-0.1-0.1-0.1-0.2c0,0-0.1-0.1-0.1-0.1c0,0-0.1-0.1-0.1-0.1c0,0,0,0,0-0.1c0,0,0-0.1-0.1-0.1
				c0,0,0-0.1-0.1-0.1c-0.1-0.1-0.1-0.1-0.1-0.2c0-0.1-0.1-0.1-0.1-0.2s-0.1-0.1-0.1-0.2c0-0.1-0.1-0.3-0.1-0.3
				c-0.1,0-0.1-0.3-0.1-0.4c0,0,0,0,0-0.1s0,0,0-0.1c0,0,0.1-0.2,0.1-0.3c0-0.2,0.1-0.3,0.1-0.3c0,0,0.1-0.1,0.1-0.2
				c0-0.2,0.1-0.3,0.1-0.4c0-0.1,0.1-0.1,0.1-0.3c0.1-0.3,0.1-0.4,0.1-0.4l0-0.1l-0.1-0.1c-0.1-0.1-0.1-0.2-0.4-0.2
				c-0.4,0-0.5-0.1-0.5-0.4c0-0.2,0-0.2,0.1-0.2C558.1,747.3,558.1,747.3,558.4,747.3 M562.4,750c0,0-0.1,0.1-0.1,0.1
				c0,0-0.1,0.1-0.1,0.1c-0.1,0-0.1,0.1-0.2,0.2c0,0,0,0.1-0.1,0.1c-0.2,0.2-0.2,0.8,0,1c0,0,0.1,0.1,0.1,0.1c0,0.1,0.1,0.1,0.1,0.1
				c0,0,0.1,0.1,0.2,0.1c0.1,0.1,0.2,0.1,0.3,0.1c0.2,0,0.3,0,0.6,0c0,0,0.1,0,0.1-0.1s0.1-0.1,0.1-0.1c0.1,0,0.1-0.1,0.1-0.1
				c0-0.1,0.1-0.1,0.1-0.2c0.2-0.2,0.1-0.8,0-0.9c0,0-0.1-0.1-0.1-0.1c0,0-0.1-0.1-0.2-0.2c0,0-0.1-0.1-0.1-0.1
				C563.1,750,562.6,749.9,562.4,750 M563,750.1c0.1,0,0.1,0.1,0.2,0.1c0,0,0.1,0.1,0.1,0.1c0.1,0,0.1,0.1,0.1,0.1
				c0,0,0,0.1,0.1,0.1c0.2,0.2,0.2,0.7,0,0.9c0,0-0.1,0.1-0.1,0.1c0,0.1-0.1,0.1-0.1,0.1c0,0-0.1,0.1-0.1,0.1
				c-0.2,0.2-0.6,0.2-0.9,0c-0.1,0-0.1-0.1-0.2-0.1c0,0-0.1-0.1-0.1-0.1c0-0.1-0.1-0.2-0.2-0.2c-0.1-0.1-0.1-0.7,0.1-0.8
				c0,0,0.1-0.1,0.1-0.1c0-0.1,0.1-0.1,0.1-0.1c0,0,0.1,0,0.2-0.1C562.5,750,562.8,750,563,750.1"/>
			<path id="path3_1_" class="st14" d="M558,747.3c-0.1,0-0.1,0.1-0.1,0.2c0,0.2,0.1,0.3,0.5,0.4c0.2,0,0.3,0.1,0.4,0.2l0.1,0.1
				l0,0.1c0,0.1-0.1,0.1-0.1,0.4c0,0.1-0.1,0.2-0.1,0.3c0,0-0.1,0.1-0.1,0.4c0,0.1-0.1,0.2-0.1,0.2c-0.1,0.1-0.1,0.2-0.1,0.3
				c0,0.1-0.1,0.3-0.1,0.3c0,0,0,0,0,0.1s0,0,0,0.1c-0.1,0.1,0,0.4,0.1,0.4c0,0,0.1,0.1,0.1,0.3c0,0.1,0.1,0.1,0.1,0.2
				s0.1,0.1,0.1,0.2c0,0.1,0.1,0.2,0.1,0.2c0,0,0.1,0.1,0.1,0.1c0,0,0,0.1,0.1,0.1c0,0,0,0.1,0,0.1c0,0,0,0,0.1,0.1
				c0,0,0.1,0.1,0.1,0.1c0,0.1,0.1,0.2,0.1,0.2c0,0,0.1,0.1,0.1,0.2c0,0.1,0.1,0.2,0.1,0.2c0.1,0.1,0.1,0.2,0,0.3
				c0,0.1-0.1,0.2-0.1,0.4c0,0.1-0.1,0.2-0.1,0.3c0,0.1-0.1,0.2-0.1,0.4c0,0.1-0.1,0.2-0.1,0.3c0,0.1-0.1,0.2-0.1,0.3
				c-0.1,0.3-0.1,0.4-0.1,0.5c0,0-0.1,0.4-0.1,0.5c0,0,0,0.1-0.1,0.2c-0.1,0.1-0.1,0.2-0.1,0.5c0,0.1-0.1,0.2-0.1,0.3
				c0,0.1-0.1,0.2-0.1,0.2c0,0.1-0.1,0.2-0.1,0.3c0,0-0.1,0.1-0.1,0.2c0,0.1-0.1,0.1-0.1,0.2c0,0-0.1,0.1-0.1,0.2
				c0,0.1-0.1,0.2-0.1,0.2c0,0-0.1,0.1-0.1,0.1c0,0.1-0.1,0.2-0.1,0.3c0,0.1-0.1,0.1-0.1,0.1c0,0-0.1,0.2-0.1,0.2
				c0,0-0.1,0.2-0.1,0.2c0,0,0,0.1-0.1,0.1c-0.1,0.1-0.1,0.1-0.1,1.9v1.7l0,0c0.1,0.1,1,0.1,1.1,0l0,0v-1.5c0-1.7,0-1.6,0.1-1.8
				c0,0,0.1-0.1,0.1-0.1s0,0,0-0.1s0-0.1,0.1-0.1c0,0,0.1-0.1,0.1-0.1c0,0,0.1-0.1,0.1-0.1s0,0,0,0c0,0,0,0,0-0.1c0,0,0-0.1,0.1-0.2
				c0-0.1,0.1-0.1,0.1-0.1c0,0,0.1-0.2,0.2-0.3c0,0,0.1-0.1,0.1-0.2c0,0,0.1-0.1,0.1-0.2c0,0,0.1-0.1,0.1-0.1
				c0.1-0.1,0.1-0.2,0.1-0.2c0,0,0.1-0.1,0.1-0.2c0-0.1,0-0.1,0-0.2s0-0.1,0-0.1c0,0,0-0.1,0.1-0.2c0-0.1,0.1-0.2,0.1-0.2
				c0-0.2,0.1-0.3,0.1-0.4c0.1-0.1,0.1-0.2,0.1-0.3c0-0.2,0.1-0.3,0.1-0.4c0-0.1,0.1-0.2,0.1-0.3c0-0.1,0.1-0.2,0.1-0.3
				c0,0,0.1-0.1,0.1-0.1c0,0,0-0.1,0.1-0.2c0-0.3,0.2-0.3,0.5-0.1c0.1,0,0.2,0.1,0.2,0.1c0.4,0.1,0.5,0.2,0.5,0.4
				c0,0.2-0.1,0.4-0.1,0.5c0,0.1-0.1,0.2-0.1,0.5c0,0.1,0,0.2-0.1,0.3c-0.1,0.1-0.1,0.2-0.1,0.4c0,0.2-0.1,0.3-0.1,0.3
				c0,0,0,0,0,0.1c-0.1,0.1-0.4,0.2-0.6,0c0,0-0.1,0-0.1,0c-0.2,0.2-0.2,0.3-0.3,0.5c0,0.1-0.1,0.2-0.1,0.3
				c-0.1,0.2-0.1,0.2,0.1,0.3c0.2,0,0.3,0.1,0.4,0.1c0.1,0.1,0.2,0.1,0.3,0.1c0.1,0,0.1,0,0.2,0.1c0,0,0.1,0.1,0.1,0.1
				c0,0,0.1,0,0.1,0.1c0,0.1,0.1,0.1,0.1,0.1c0,0,0.1,0.1,0.1,0.1s0.1,0.1,0.1,0.1c0,0,0.1,0.1,0.1,0.1c0,0,0,0.1,0.1,0.1
				c0.1,0.1,0.1,0.1,0.1,0.2c0,0,0.1,0.1,0.1,0.1s0.1,0.1,0.1,0.2c0,0,0,0.1,0.1,0.1c0,0,0.1,0.1,0.2,0.2c0,0,0,0.1,0.1,0.1
				c0,0,0.1,0.1,0.1,0.1c0,0,0.1,0.1,0.1,0.1c0.1,0.1,0.1,0.1,0.1,0.1c0,0,0,0.1,0.1,0.1c0.1,0.1,0.1,0.1,0.1,0.1c0,0,0,0.1,0.1,0.1
				c0.1,0.1,0.1,0.1,0.1,0.2c0,0,0.1,0.1,0.1,0.1c0,0,0.1,0.1,0.1,0.1c0,0.1,0.1,0.1,0.1,0.1c0,0,0,0,0,0.1c0,0,0.1,0.1,0.1,0.1
				c0,0,0.1,0.1,0.1,0.1s0.1,0.1,0.1,0.2c0.1,0.1,0.1,0.1,0.1,0.2s0.1,0.1,0.1,0.1c0,0,0.1,0.1,0.1,0.1c0,0,0,0.1,0,0.1
				c0,0,0.1,0.1,0.1,0.2c0,0,0.1,0.1,0.1,0.1c0,0,0.1,0.1,0.1,0.1c0,0,0.1,0.1,0.2,0.2l0.1,0.1h0.6c0.6,0,0.8,0,0.8-0.1
				c0,0-0.1-0.2-0.2-0.3c0,0-0.1-0.1-0.1-0.1c0,0-0.1-0.1-0.1-0.1c0,0-0.1-0.1-0.1-0.1s0,0-0.1-0.1c0,0-0.1-0.1-0.1-0.1
				c0,0-0.1-0.1-0.1-0.2c0,0-0.1-0.1-0.1-0.1c0,0,0-0.1-0.1-0.1c-0.1-0.1-0.1-0.2-0.2-0.2c0-0.1-0.1-0.1-0.1-0.1
				c0,0-0.1-0.1-0.1-0.2c0,0,0,0,0,0c0,0-0.1-0.1-0.2-0.2c0,0-0.1-0.1-0.1-0.1c0,0-0.1-0.1-0.1-0.1c0,0,0-0.1-0.1-0.2
				c0,0-0.1-0.1-0.1-0.2s-0.1-0.1-0.1-0.2c0,0-0.1-0.1-0.1-0.1c0,0-0.1-0.1-0.1-0.1c0,0-0.1-0.1-0.1-0.1s0,0-0.1-0.1
				c-0.1,0-0.1-0.1-0.1-0.1c0,0,0-0.1-0.1-0.1c-0.1,0-0.1-0.1-0.1-0.1s0-0.1-0.1-0.1c-0.1-0.1-0.1-0.1-0.2-0.2
				c-0.1-0.2-0.2-0.3-0.3-0.4c0,0-0.1-0.1-0.1-0.1c0,0-0.1-0.1-0.1-0.1c0,0-0.1-0.1-0.1-0.1s-0.1-0.1-0.1-0.1c0,0-0.1-0.1-0.1-0.1
				s0-0.1-0.1-0.1c-0.1-0.1-0.1-0.1-0.1-0.1s0,0,0,0c-0.1,0-0.1-0.2,0-0.4c0-0.1,0-0.2,0-0.2c0-0.1,0.1-0.3,0.1-0.4
				c0.1-0.1,0.1-0.4,0.1-0.5c0-0.1,0-0.2,0.1-0.3c0,0,0.1-0.1,0.1-0.2c0.1-0.5,0.1-0.6,0.3-0.6c0,0,0.3,0.1,0.4,0.2
				c0,0,0.1,0.1,0.1,0.1s0.1,0.1,0.1,0.1s0.1,0.1,0.2,0.1c0.1,0,0.1,0.1,0.2,0.1c0,0,0.1,0.1,0.1,0.1c0,0,0.1,0,0.1,0.1
				c0,0,0.1,0.1,0.2,0.1c0.1,0,0.2,0.1,0.2,0.1c0,0,0.1,0.1,0.1,0.1c0,0,0.1,0,0.1,0.1c0.1,0.1,0.4,0.2,0.9,0
				c0.3-0.1,0.5-0.1,1.1-0.1c0.7,0,0.9-0.1,1.1-0.2c0.1-0.1,0.1-0.1,0.1-0.4c0-0.1,0-0.3-0.1-0.4c0-0.2-0.1-0.3-0.2-0.3
				c0,0-0.2,0-0.5,0c-0.5,0-0.8,0.1-0.9,0.1c-0.7,0.2-1.2,0.2-1.3,0c0,0,0-0.1-0.1-0.1c-0.1,0-0.2-0.1-0.3-0.1
				c-0.1-0.1-0.1-0.1-0.2-0.1c0,0-0.1,0-0.1-0.1c0,0-0.1-0.1-0.1-0.1s-0.1-0.1-0.1-0.1c0,0-0.1-0.1-0.2-0.1c-0.1,0-0.1-0.1-0.2-0.1
				c0,0-0.1-0.1-0.1-0.1c0,0-0.2-0.1-0.3-0.2c0,0-0.1-0.1-0.2-0.1c0,0-0.1,0-0.1-0.1c0,0-0.1-0.1-0.2-0.1c-0.2-0.1-0.3-0.1-0.4-0.1
				c-0.1,0-0.1-0.1-0.2-0.1c-0.1,0-0.3-0.1-0.3-0.1c0,0-0.1-0.1-0.2-0.1c-0.2,0-0.3-0.1-0.4-0.1c-0.1-0.1-0.2-0.1-0.3-0.1
				c-0.1,0-0.3-0.1-0.3-0.1c0,0,0,0-0.1,0c0,0-0.1-0.1-0.1-0.1c0,0-0.1-0.1-0.1-0.1c0,0-0.1-0.1-0.1-0.2c0-0.1-0.1-0.2-0.1-0.2
				c0,0-0.1-0.1-0.1-0.1c0-0.1-0.1-0.3-0.2-0.3c0,0-0.1-0.1-0.1-0.2c0-0.1-0.1-0.2-0.1-0.2c0-0.1-0.1-0.1-0.1-0.2
				c0-0.1-0.1-0.2-0.1-0.2c0,0,0,0,0,0c0,0,0,0,0,0c0,0,0,0,0-0.1c0,0-0.1-0.2-0.1-0.2c0,0,0-0.2,0-0.3c0,0,0-0.1,0.1-0.2
				c0.1-0.3,0.1-0.3,0.1-0.5c0-0.1,0.1-0.2,0.1-0.3c0-0.2,0.1-0.3,0.1-0.4c0-0.1,0.1-0.1,0.1-0.2c0-0.3,0.2-0.4,0.4-0.3
				c0,0,0.1,0,0.2,0.1c0.4,0.1,0.5,0.1,0.5,0.1c0,0,0.2,0.1,0.4,0.1c0.1,0,0.2,0.1,0.2,0.1l0,0l0,0.1c0,0.1-0.1,0.2-0.2,0.2
				c0,0-0.1,0.1-0.1,0.1c0,0-0.1,0.1-0.1,0.1c0,0-0.1,0.1-0.1,0.1c0,0-0.1,0.1-0.1,0.1c0,0-0.1,0.1-0.1,0.1c0,0-0.1,0.1-0.1,0.2
				c0,0-0.1,0.1-0.1,0.2c0,0.1-0.1,0.2-0.1,0.2c-0.1,0.2-0.1,0.2-0.1,0.4c0,0.3,0,0.6,0.1,0.8c0,0.1,0.1,0.2,0.1,0.2
				c0,0.1,0.1,0.2,0.1,0.3c0,0,0.1,0.1,0.1,0.1c0,0.1,0.1,0.2,0.3,0.3c0,0,0.1,0.1,0.1,0.1c0,0,0.1,0.1,0.2,0.1
				c0.1,0,0.1,0.1,0.1,0.1c0,0.1,0.2,0.1,0.3,0.1c0,0,0.2,0,0.2,0.1c0.2,0.1,0.6,0.1,0.9,0.1c0.1,0,0.1,0,0.1,0c0,0,0.2-0.1,0.2-0.1
				c0.1,0,0.2-0.1,0.3-0.1c0,0,0.1-0.1,0.1-0.1c0,0,0.1-0.1,0.2-0.1c0.3-0.3,0.4-0.4,0.4-0.5c0-0.1,0.1-0.1,0.1-0.1
				c0,0,0.1-0.2,0.1-0.3c0,0,0.1-0.2,0.1-0.3c0.1,0,0.1-0.2,0.1-0.5l0-0.4l-0.1-0.2c0-0.1-0.1-0.2-0.1-0.2c0-0.1,0-0.2-0.1-0.3
				c-0.1-0.1-0.1-0.2,0-0.2c0,0,0.2,0,0.3,0c0,0,0.2,0.1,0.3,0.1c0.1,0,0.4,0.1,0.5,0.1c0.1,0,0.1,0,0.4,0.1c0.1,0,0.2,0,0.2,0
				c0,0,0,0,0,0s0,0,0.1,0c0,0,0.4,0.1,0.5,0.1c0.1,0,0.3,0.1,0.3,0.1c0,0,0.2,0.1,0.4,0.1c0.1,0,0.2,0,0.3,0.1
				c0.1,0,0.2,0.1,0.3,0.1c0.2,0,0.3,0.1,0.4,0.1c0.1,0.1,0.2,0.1,0.4,0.1c0.1,0,0.2,0,0.3,0.1c0.2,0.1,0.7,0.2,0.7,0.1
				c0.1-0.1,0.1-0.3,0-0.4c-0.1-0.1-0.1-0.1-0.5-0.2c-0.1,0-0.2-0.1-0.3-0.1c-0.1-0.1-0.3-0.1-0.4-0.1c-0.1,0-0.3,0-0.4-0.1
				c-0.1-0.1-0.2-0.1-0.4-0.1c-0.2,0-0.3-0.1-0.4-0.1c-0.1,0-0.2-0.1-0.3-0.1c-0.3,0-0.3-0.1-0.5-0.1c-0.1-0.1-0.3-0.1-0.5-0.1
				c-0.1,0-0.1,0-0.2-0.1s-0.2-0.1-0.2-0.1c-0.2,0-0.3-0.1-0.4-0.1c0,0-0.2-0.1-0.3-0.1c0,0-0.1,0-0.2,0c-0.3-0.1-0.5-0.1-0.5-0.1
				c0,0,0,0-0.1,0c-0.2,0-0.4-0.1-0.4-0.1c-0.1,0-0.3-0.1-0.3-0.1c0,0-0.2-0.1-0.4-0.1c-0.1,0-0.2-0.1-0.3-0.1
				c-0.1,0-0.2-0.1-0.3-0.1c-0.3,0-0.4-0.1-0.5-0.1c-0.1-0.1-0.2-0.1-0.4-0.1c-0.1,0-0.2-0.1-0.3-0.1c-0.1-0.1-0.2-0.1-0.6-0.1
				c-0.1,0-0.2,0-0.3-0.1c-0.1-0.1-0.2-0.1-0.4-0.1c-0.2,0-0.4-0.2-0.4-0.3c0,0-0.1-0.1-0.2-0.1c-0.2,0-0.3-0.1-0.4-0.1
				c-0.2-0.1-0.4-0.1-0.5,0c-0.1,0.1-0.3,0.1-0.4,0c0,0-0.1-0.1-0.3-0.1C558.1,747.3,558.1,747.3,558,747.3 M558.3,747.4
				c0.1,0,0.1,0,0.1,0.1c0.1,0.2,0.7,0.2,0.7,0c0-0.1,0.1-0.1,0.3,0c0.1,0.1,0.1,0.1,0.4,0.1c0.2,0,0.2,0,0.2,0.1
				c0.1,0.3,0.2,0.4,0.5,0.4c0.1,0,0.1,0,0.2,0.1c0.1,0.1,0.2,0.1,0.5,0.1c0.2,0,0.2,0,0.3,0.1c0.1,0.1,0.1,0.1,0.5,0.1
				c0.1,0,0.2,0,0.2,0.1c0.1,0.1,0.2,0.1,0.5,0.1c0.3,0,0.3,0,0.3,0.1c0.1,0.1,0.2,0.1,0.4,0.1c0.2,0,0.3,0,0.3,0.1
				c0.1,0.1,0.2,0.1,0.4,0.1c0.2,0,0.2,0,0.3,0c0.1,0.1,0.2,0.2,0.4,0.2c0.2,0,0.3,0,0.4,0.1c0.1,0.1,0.2,0.1,0.5,0.1
				c0.2,0,0.2,0,0.2,0.1c0.1,0.1,0.2,0.1,0.5,0.1c0.2,0,0.3,0,0.3,0.1c0,0.1,0.1,0.1,0.3,0.1c0.3,0,0.4,0,0.5,0.1
				c0.1,0.1,0.2,0.1,0.4,0.1c0.2,0,0.2,0,0.3,0.1c0,0,0.2,0.1,0.3,0.1c0.2,0,0.3,0,0.3,0.1c0,0.1,0.2,0.1,0.5,0.1
				c0.2,0,0.2,0,0.3,0.1c0,0,0.1,0.1,0.1,0.1c0.1,0,0.1,0,0.1,0.2l0,0.1l-0.1,0c-0.2,0-0.3,0-0.4-0.1c0-0.1-0.1-0.1-0.5-0.1
				c-0.2,0-0.2,0-0.3-0.1c-0.1-0.1-0.2-0.1-0.5-0.1c-0.2,0-0.3,0-0.3-0.1c0-0.1-0.2-0.1-0.4-0.1c-0.2,0-0.3,0-0.4-0.1
				c-0.1-0.1-0.2-0.1-0.4-0.1c-0.2,0-0.2,0-0.3,0c-0.1-0.1-0.2-0.2-0.4-0.2c-0.2,0-0.3,0-0.4-0.1c-0.1-0.1-0.2-0.1-0.5-0.1
				c-0.2,0-0.2,0-0.3-0.1c-0.1-0.1-0.4-0.2-0.5-0.1c-0.1,0.1,0,0.4,0.1,0.5c0,0,0,0.1,0.1,0.2c0,0.2,0.1,0.3,0.1,0.4
				c0.1,0.1,0.1,0.5,0,0.6c0,0,0,0.1,0,0.1c0,0,0,0.1,0,0.1c0,0,0,0.1,0,0.2c0,0.2,0,0.2-0.1,0.2c-0.1,0-0.1,0.2-0.1,0.3
				c0,0,0,0.1,0,0.1c-0.1,0-0.1,0.1-0.1,0.1c0,0.1,0,0.1-0.1,0.1c-0.1,0-0.1,0.1-0.1,0.1c0,0,0,0-0.1,0.1c-0.1,0-0.3,0.1-0.3,0.1
				c0,0-0.1,0.1-0.2,0.1c-0.2,0-0.4,0.1-0.5,0.1c0,0.1-0.5,0-0.6,0c-0.1-0.1-0.2-0.1-0.4-0.1c-0.2,0-0.2,0-0.3-0.1
				c0-0.1-0.1-0.1-0.3-0.1c0,0-0.1,0-0.1-0.1c0-0.1-0.1-0.1-0.1-0.1c0,0-0.1,0-0.1-0.1c0-0.1-0.1-0.2-0.2-0.2c0,0,0,0-0.1-0.1
				c0-0.1-0.1-0.2-0.1-0.3c-0.1-0.1-0.1-0.1-0.1-0.2c0-0.2,0-0.3-0.1-0.4c-0.1-0.1-0.1-0.5,0-0.6c0.1-0.2,0.1-0.3,0.1-0.4
				c0-0.1,0-0.1,0.1-0.2c0.1-0.1,0.2-0.2,0.2-0.3c0-0.1,0-0.1,0.1-0.1c0.1,0,0.1-0.1,0.1-0.2c0,0,0,0,0,0c0.1,0,0.2-0.1,0.2-0.1
				c0,0,0-0.1,0.1-0.1c0.1,0,0.2-0.1,0.2-0.1c0,0,0-0.1,0-0.1c0.1-0.2,0-0.3-0.4-0.3c-0.1,0-0.2,0-0.2,0c-0.1-0.1-0.2-0.1-0.5-0.2
				c-0.2,0-0.2,0-0.3-0.1c-0.1-0.2-0.5-0.1-0.6,0.1c0,0.2-0.1,0.3-0.1,0.3c-0.1,0-0.1,0.2-0.1,0.4c0,0.2,0,0.2-0.1,0.3
				c-0.1,0.1-0.1,0.2-0.1,0.3c0,0.1,0,0.3-0.1,0.3c-0.1,0-0.1,0.5,0,0.5c0,0,0,0,0.1,0.1c0,0.1,0.1,0.2,0.1,0.3c0,0,0.1,0,0.1,0.2
				c0,0.1,0.1,0.2,0.1,0.2c0,0,0.1,0.1,0.1,0.2c0,0.1,0.1,0.2,0.1,0.3c0,0,0.1,0,0.1,0.1c0,0.2,0.1,0.2,0.1,0.3c0,0,0.1,0.1,0.1,0.1
				c0,0.1,0.1,0.2,0.2,0.3c0.1,0.1,0.1,0.1,0.1,0.1c0,0,0.3,0.1,0.4,0.1c0.1,0,0.1,0,0.2,0.1c0.1,0.1,0.1,0.1,0.4,0.1
				c0.1,0,0.2,0,0.2,0c0,0.1,0.1,0.1,0.5,0.2c0,0,0.1,0,0.1,0.1c0,0,0.1,0.1,0.1,0.1s0.1,0,0.1,0c0.1,0,0.1,0,0.2,0c0,0,0.1,0,0.1,0
				c0,0.1,0.2,0.1,0.3,0.1c0.1,0,0.1,0,0.1,0.1c0,0,0.1,0.1,0.2,0.1c0.1,0,0.2,0.1,0.2,0.1c0,0,0.1,0.1,0.1,0.1c0,0,0.1,0,0.1,0.1
				c0,0,0.1,0.1,0.1,0.1c0,0,0,0,0,0s0,0,0,0c0,0,0.1,0,0.1,0.1c0.1,0.1,0.1,0.1,0.2,0.1c0.1,0,0.1,0,0.1,0.1c0,0,0.1,0.1,0.2,0.1
				c0,0,0.1,0.1,0.1,0.1c0.1,0.1,0.1,0.1,0.7,0.1c0.6,0,0.9,0,1-0.1c0.1-0.1,1-0.1,1.1-0.1c0,0,0,0.1,0,0.2c0,0.1,0,0.3,0,0.4
				s0,0.2,0,0.2c0,0-0.1,0.1-0.2,0.1c-0.2,0-0.4,0.1-0.5,0.1c0,0-0.1,0-0.6,0c-0.9,0-1.2,0.1-1.4,0.2c-0.1,0.1-0.2,0.1-0.4,0
				c-0.1-0.1-0.1-0.1-0.2-0.1c-0.1,0-0.1,0-0.1,0c0,0-0.1-0.1-0.1-0.1c0,0-0.1-0.1-0.2-0.1c-0.1-0.1-0.2-0.1-0.3-0.1
				c0,0,0,0-0.1-0.1c0,0,0-0.1-0.1-0.1c-0.1-0.1-0.1-0.1-0.2-0.1c0-0.1-0.1-0.1-0.3-0.1c-0.1,0-0.1,0-0.1,0c0-0.1-0.1-0.1-0.2-0.1
				c0,0-0.1,0-0.1-0.1c-0.1-0.1-0.1-0.1-0.2-0.1c-0.2,0-0.2,0.1-0.3,0.4c0,0.3,0,0.3-0.1,0.4c-0.1,0.1-0.1,0.3-0.1,0.7
				c0,0,0,0.1-0.1,0.1c-0.1,0.1-0.1,0.2-0.1,0.4c0,0.2,0,0.3-0.1,0.3c-0.1,0.1-0.1,0.4,0,0.4c0,0,0,0,0.1,0.1c0,0.1,0.1,0.1,0.1,0.1
				c0.1,0,0.1,0,0.1,0.1c0,0.1,0.1,0.1,0.1,0.1c0,0,0.1,0,0.1,0.1c0,0.1,0.1,0.1,0.1,0.1c0,0,0.1,0.1,0.1,0.1c0,0,0,0.1,0,0.1
				c0,0,0.1,0.1,0.1,0.2s0.1,0.1,0.1,0.1c0,0,0,0.1,0.1,0.1c0.1,0,0.1,0.1,0.1,0.1c0,0.1,0.1,0.2,0.2,0.2c0,0,0,0,0.1,0.1
				c0,0.1,0,0.1,0.1,0.1c0,0,0.1,0.1,0.1,0.1c0,0,0.1,0.1,0.1,0.1s0.1,0.1,0.1,0.1s0,0,0,0.1c0,0,0,0,0,0.1c0,0,0,0.1,0.1,0.1
				c0,0,0.1,0.1,0.1,0.1c0,0,0.1,0.1,0.1,0.1c0,0,0,0,0.1,0.1c0,0.1,0.1,0.1,0.2,0.1c0,0,0,0,0,0.1c0,0.1,0.1,0.1,0.1,0.2
				c0,0,0.1,0,0.1,0.1c0,0,0,0.1,0.1,0.1c0.1,0,0.1,0.1,0.1,0.1c0,0,0,0,0,0.1c0,0,0,0.1,0.1,0.1c0,0,0,0.1,0.1,0.1
				c0,0,0.1,0.1,0.1,0.1c0,0.1,0.1,0.1,0.1,0.1c0,0,0.1,0,0.1,0.1c0.1,0.1,0.1,0.2,0.1,0.2c0,0,0.1,0,0.1,0.1c0,0.1,0,0.1,0.1,0.2
				c0,0,0.1,0.1,0.1,0.1c0,0,0.1,0.1,0.1,0.2s0.1,0.1,0.1,0.2c0,0.1,0,0.1,0.1,0.2c0.1,0.1,0.1,0.1-0.6,0.1h-0.6l0,0
				c0-0.1-0.1-0.1-0.1-0.1c0,0,0,0-0.1-0.1c0,0,0-0.1-0.1-0.1s0,0-0.1,0c0,0,0,0-0.1-0.1c0,0-0.1-0.1-0.1-0.2
				c-0.1-0.1-0.1-0.1-0.1-0.1c0-0.1-0.1-0.1-0.1-0.1c0,0-0.1-0.1-0.1-0.1c0-0.1-0.1-0.1-0.1-0.1c-0.1,0-0.1,0-0.1-0.1
				c0-0.1-0.1-0.1-0.1-0.2c0,0-0.1,0-0.1-0.1c0-0.1,0-0.1-0.1-0.2c0,0-0.1-0.1-0.1-0.1c0,0-0.1-0.1-0.1-0.2
				c-0.1-0.1-0.1-0.1-0.1-0.2c0,0-0.1-0.1-0.1-0.1c0,0-0.1-0.1-0.1-0.1c0-0.1-0.1-0.1-0.1-0.2c0,0-0.1-0.1-0.1-0.1
				c0-0.1-0.1-0.1-0.1-0.1c-0.1,0-0.1,0-0.1-0.1c0-0.1,0-0.1-0.1-0.1c-0.1,0-0.1-0.1-0.1-0.1c0,0-0.1-0.1-0.1-0.2
				c-0.1-0.1-0.1-0.2-0.1-0.2c0,0-0.1-0.1-0.1-0.1c0,0,0,0-0.1-0.1c0-0.1-0.1-0.1-0.1-0.1c0,0-0.1,0-0.1-0.1c0-0.1-0.1-0.1-0.1-0.2
				c0,0-0.1,0-0.1-0.1c0-0.1,0-0.1-0.1-0.2c0,0-0.1-0.1-0.1-0.1c-0.1-0.2-0.2-0.3-0.5-0.3c-0.1,0-0.1,0-0.2-0.1
				c0-0.1-0.1-0.1-0.3-0.1c-0.3,0-0.3,0-0.3-0.1c0.1-0.1,0.1-0.3,0.1-0.5c0-0.1,0-0.1,0.1-0.2c0,0,0.1-0.1,0.1-0.1
				c0-0.1,0.1-0.1,0.2-0.1c0,0,0.2,0,0.3,0c0.4,0,0.4,0,0.5-0.6c0-0.2,0-0.2,0.1-0.3c0.1-0.1,0.1-0.2,0.1-0.5c0-0.2,0-0.2,0.1-0.2
				c0.1-0.1,0.1-0.3,0.1-0.6c0-0.3-0.1-0.4-0.5-0.5c-0.2,0-0.2,0-0.2-0.1c0-0.1-0.5-0.2-0.6-0.1c-0.1,0-0.1,0.2-0.1,0.3
				c0,0,0,0.1-0.1,0.1c-0.1,0.1-0.1,0.1-0.1,0.4c0,0.2-0.1,0.3-0.1,0.3c0,0-0.1,0.2-0.1,0.4c0,0.2,0,0.2-0.1,0.3
				c-0.1,0.1-0.1,0.2-0.1,0.3c0,0.2-0.1,0.4-0.1,0.4c-0.1,0-0.1,0.3-0.1,0.5c0,0.1,0,0.1-0.1,0.2c-0.1,0.1-0.1,0.2-0.1,0.3
				c0,0.1,0,0.1-0.1,0.1c0,0-0.1,0-0.1,0.1s0,0.1,0,0.1c0,0,0,0.1,0,0.1c0,0.1,0,0.1-0.1,0.1c-0.1,0-0.2,0.2-0.2,0.3
				c0,0,0,0.1-0.1,0.1c-0.1,0.1-0.1,0.1-0.1,0.2c0,0.1,0,0.1-0.1,0.1c-0.1,0.1-0.1,0.2-0.1,0.2c0,0.1,0,0.1-0.1,0.1c0,0,0,0-0.1,0
				c-0.1,0.1-0.1,0.1-0.1,1.8v1.6h-0.6h-0.5v-1.7V759l0.1-0.1c0.1-0.1,0.1-0.2,0.1-0.3c0,0,0-0.1,0.1-0.1c0.1,0,0.1-0.1,0.1-0.3
				c0-0.1,0-0.1,0.1-0.1c0.1,0,0.1-0.2,0.1-0.3c0,0,0,0,0-0.1c0.1,0,0.1-0.1,0.1-0.1c0-0.1,0.1-0.2,0.1-0.2c0.1,0,0.1-0.2,0.1-0.2
				c0-0.1,0-0.1,0.1-0.1c0.1-0.1,0.2-0.2,0.2-0.3c0,0,0-0.1,0.1-0.1c0.1-0.1,0.1-0.2,0.1-0.4c0-0.1,0-0.3,0.1-0.3
				c0.1,0,0.1-0.2,0.2-0.6c0-0.1,0-0.1,0.1-0.2c0.1-0.1,0.1-0.2,0.1-0.5c0-0.2,0-0.2,0-0.2c0.1,0,0.2-0.3,0.2-0.5
				c0-0.1,0-0.1,0.1-0.2c0.1-0.1,0.1-0.2,0.1-0.4c0-0.2,0-0.2,0.1-0.3c0.1-0.1,0.1-0.5,0-0.5c0,0-0.1,0-0.1-0.1
				c0-0.1-0.1-0.2-0.1-0.3c0,0-0.1,0-0.1-0.1c0-0.2-0.1-0.3-0.2-0.3c0,0-0.1,0-0.1-0.1c0-0.1-0.1-0.2-0.1-0.3c0,0-0.1-0.1-0.1-0.2
				c0-0.1-0.1-0.3-0.1-0.3c0,0-0.1-0.1-0.1-0.2c0-0.1-0.1-0.3-0.2-0.3c0,0,0,0,0-0.1s0-0.1,0-0.1c0.1,0,0.2-0.2,0.2-0.4
				c0-0.1,0-0.3,0.1-0.3c0.1-0.1,0.1-0.3,0.1-0.5c0-0.1,0-0.2,0-0.2c0,0,0.1,0,0.1-0.1c0,0,0-0.2,0-0.3c0-0.2,0-0.2,0.1-0.3
				c0.1-0.1,0.1-0.4,0-0.5c0,0-0.2-0.1-0.3-0.1c-0.2,0-0.3,0-0.3-0.1c0,0-0.1-0.1-0.1-0.1c-0.1,0-0.1-0.1-0.1-0.1
				C558,747.4,558.1,747.3,558.3,747.4 M562.2,750c0,0-0.1,0.1-0.1,0.1c0,0-0.1,0.1-0.1,0.1c-0.1,0-0.1,0.1-0.1,0.1
				c0,0,0,0.1-0.1,0.1c-0.2,0-0.2,1.1,0,1.2c0,0,0.1,0.1,0.1,0.1c0,0.1,0.1,0.1,0.1,0.1c0,0,0.1,0,0.2,0.1c0.1,0.1,1,0.1,1.1,0
				c0.1-0.1,0.1-0.1,0.1-0.1c0,0,0.1-0.1,0.1-0.2c0,0,0,0,0.1-0.1c0.1-0.1,0.1-0.1,0.1-0.6c0-0.5,0-0.5-0.1-0.6
				c-0.1,0-0.1,0-0.1-0.1c0-0.1-0.1-0.2-0.1-0.2c0,0-0.1,0-0.1-0.1C563.2,749.9,562.5,749.9,562.2,750 M563,750c0.1,0,0.1,0,0.1,0.1
				c0,0,0.1,0.1,0.1,0.1c0.1,0,0.2,0.1,0.2,0.2c0,0,0,0.1,0.1,0.1c0.2,0.2,0.2,0.8,0,0.9c0,0-0.1,0.1-0.1,0.2c0,0.1-0.1,0.1-0.1,0.1
				c0,0-0.1,0.1-0.1,0.1s-0.1,0.1-0.1,0.1c-0.3,0.1-0.4,0.1-0.6,0c-0.1,0-0.2,0-0.3-0.1c-0.1,0-0.1-0.1-0.2-0.1c0,0-0.1-0.1-0.1-0.1
				c0-0.1-0.1-0.1-0.1-0.1c-0.2-0.2-0.2-0.8,0-1c0,0,0.1-0.1,0.1-0.1c0,0,0.1-0.1,0.2-0.2c0,0,0.1-0.1,0.1-0.1
				C562.4,750,562.8,749.9,563,750"/>
			<path id="path4_1_" class="st9" d="M558.1,747.4c-0.1,0-0.1,0.1-0.2,0.2c0,0.1,0,0.1,0.1,0.1c0,0,0.1,0.1,0.1,0.1
				c0.1,0.1,0.2,0.1,0.3,0.1c0.1,0,0.3,0,0.3,0.1c0.1,0.1,0.1,0.4,0,0.5c-0.1,0.1-0.1,0.1-0.1,0.3c0,0.1,0,0.2,0,0.3
				c-0.1,0.1-0.1,0.1-0.1,0.1c0,0,0,0.1,0,0.2c0,0.2-0.1,0.4-0.1,0.5c0,0-0.1,0.1-0.1,0.3c0,0.2-0.1,0.4-0.2,0.4c0,0,0,0,0,0.1
				s0,0.1,0,0.1c0,0,0.2,0.2,0.2,0.3c0,0.1,0.1,0.2,0.1,0.2c0,0,0.1,0.1,0.1,0.3c0,0.1,0,0.1,0.1,0.2c0.1,0.1,0.1,0.1,0.1,0.3
				c0,0,0,0.1,0.1,0.1c0.1,0,0.1,0.1,0.2,0.3c0,0,0,0.1,0.1,0.1c0.1,0,0.1,0.1,0.1,0.3c0,0.1,0,0.1,0.1,0.1c0.1,0.1,0.1,0.4,0,0.5
				c-0.1,0-0.1,0.1-0.1,0.3c0,0.3,0,0.3-0.1,0.4c-0.1,0.1-0.1,0.1-0.1,0.2c0,0.2-0.1,0.5-0.2,0.5c0,0,0,0,0,0.2c0,0.3,0,0.4-0.1,0.5
				c-0.1,0.1-0.1,0.1-0.1,0.2c0,0.3-0.1,0.5-0.2,0.6c0,0-0.1,0.2-0.1,0.3c0,0.2,0,0.3-0.1,0.4c0,0-0.1,0.1-0.1,0.1
				c0,0.1-0.1,0.3-0.2,0.3c-0.1,0-0.1,0.1-0.1,0.1c0,0.1-0.1,0.2-0.1,0.2c0,0-0.1,0.1-0.1,0.2c0,0-0.1,0.1-0.1,0.1c0,0,0,0,0,0.1
				c0,0.1-0.1,0.3-0.1,0.3c-0.1,0-0.1,0-0.1,0.1c0,0.1-0.1,0.2-0.1,0.3c0,0-0.1,0.1-0.1,0.1c0,0.1,0,0.2-0.1,0.3l-0.1,0.1v1.7v1.7
				h0.5h0.6v-1.6c0-1.7,0-1.7,0.1-1.8c0,0,0.1,0,0.1,0c0,0,0,0,0.1-0.1c0-0.1,0.1-0.2,0.1-0.2c0,0,0.1-0.1,0.1-0.1
				c0-0.1,0-0.1,0.1-0.2c0,0,0.1-0.1,0.1-0.1c0-0.1,0.1-0.3,0.2-0.3c0,0,0.1-0.1,0.1-0.1c0,0,0-0.1,0-0.1c0,0,0-0.1,0-0.1
				s0.1-0.1,0.1-0.1c0,0,0.1,0,0.1-0.1c0-0.1,0.1-0.2,0.1-0.3c0.1-0.1,0.1-0.1,0.1-0.2c0-0.2,0.1-0.5,0.1-0.5c0,0,0.1-0.1,0.1-0.4
				c0-0.2,0-0.2,0.1-0.3c0.1-0.1,0.1-0.1,0.1-0.3c0-0.2,0.1-0.4,0.1-0.4c0,0,0.1-0.1,0.1-0.3c0-0.2,0-0.3,0.1-0.4
				c0,0,0.1-0.1,0.1-0.1c0-0.1,0.1-0.3,0.1-0.3c0.1-0.1,0.6,0,0.6,0.1c0,0,0,0,0.2,0.1c0.4,0,0.5,0.1,0.5,0.5c0,0.4-0.1,0.6-0.1,0.6
				c-0.1,0-0.1,0.1-0.1,0.2c0,0.3,0,0.4-0.1,0.5c-0.1,0.1-0.1,0.1-0.1,0.3c0,0.5-0.1,0.6-0.5,0.6c-0.1,0-0.2,0-0.3,0
				c-0.1,0-0.2,0-0.2,0.1c0,0,0,0.1-0.1,0.1c-0.1,0-0.1,0.1-0.1,0.2c0,0.2-0.1,0.4-0.1,0.5c0,0,0,0,0.3,0.1c0.2,0,0.3,0.1,0.3,0.1
				c0,0,0,0.1,0.2,0.1c0.3,0,0.4,0.1,0.5,0.3c0,0,0.1,0.1,0.1,0.1c0.1,0,0.1,0.1,0.1,0.2c0,0,0,0.1,0.1,0.1c0.1,0,0.1,0.1,0.1,0.2
				c0,0,0,0.1,0.1,0.1c0,0,0.1,0.1,0.1,0.1c0,0.1,0.1,0.1,0.1,0.1c0,0,0.1,0.1,0.1,0.1c0,0,0,0.1,0.1,0.2c0.1,0.1,0.1,0.1,0.1,0.2
				c0,0,0,0.1,0.1,0.1c0.1,0,0.1,0.1,0.1,0.1c0,0.1,0,0.1,0.1,0.1c0,0,0.1,0.1,0.1,0.1c0,0.1,0.1,0.1,0.1,0.1c0.1,0,0.1,0.1,0.1,0.2
				c0,0,0,0.1,0.1,0.1c0,0,0.1,0.1,0.1,0.1c0,0,0.1,0.1,0.1,0.2c0.1,0.1,0.1,0.1,0.1,0.2c0,0,0,0.1,0.1,0.1c0.1,0,0.1,0.1,0.1,0.2
				c0,0,0,0.1,0.1,0.1c0.1,0,0.1,0.1,0.1,0.2c0,0,0,0.1,0.1,0.1c0.1,0,0.1,0.1,0.1,0.1c0,0,0.1,0.1,0.1,0.1c0,0,0.1,0.1,0.1,0.1
				c0,0,0.1,0.1,0.1,0.1c0.1,0.1,0.1,0.1,0.1,0.2c0,0,0,0.1,0.1,0.1c0,0,0,0,0.1,0s0,0.1,0.1,0.1c0,0.1,0,0.1,0.1,0.1
				c0.1,0,0.1,0.1,0.1,0.1l0,0h0.6c0.7,0,0.7,0,0.6-0.1c-0.1-0.1-0.1-0.1-0.1-0.2c0,0-0.1-0.1-0.1-0.2s-0.1-0.1-0.1-0.2
				c0,0-0.1-0.1-0.1-0.1c-0.1,0-0.1-0.1-0.1-0.2c0,0,0,0-0.1-0.1c-0.1,0-0.1,0-0.1-0.2c0,0,0,0-0.1-0.1c0,0-0.1-0.1-0.1-0.1
				c0-0.1-0.1-0.1-0.1-0.1c0,0-0.1,0-0.1-0.1c0,0,0-0.1-0.1-0.1c0,0,0,0,0-0.1c0,0-0.1-0.1-0.1-0.1c0,0-0.1-0.1-0.1-0.1
				c0-0.1,0-0.1-0.1-0.1c-0.1,0-0.1-0.1-0.1-0.2c0,0,0-0.1,0-0.1c-0.1,0-0.1-0.1-0.2-0.1c0,0,0-0.1-0.1-0.1c0,0-0.1-0.1-0.1-0.1
				c0,0,0-0.1-0.1-0.1c0,0-0.1-0.1-0.1-0.1c0,0,0,0,0-0.1c0,0,0-0.1,0-0.1s0-0.1-0.1-0.1s-0.1-0.1-0.1-0.1c0,0,0-0.1-0.1-0.1
				c-0.1,0-0.1-0.1-0.1-0.1c0-0.1,0-0.1-0.1-0.1c0,0-0.2-0.1-0.2-0.2c0,0,0-0.1-0.1-0.1c0,0-0.1-0.1-0.1-0.1c0,0-0.1-0.1-0.1-0.1
				s-0.1-0.1-0.1-0.2c0,0,0-0.1,0-0.1c0,0,0,0-0.1-0.1c0,0-0.1-0.1-0.1-0.1c0-0.1-0.1-0.1-0.1-0.1c0,0-0.1-0.1-0.1-0.1
				c0-0.1,0-0.1-0.1-0.1c-0.1,0-0.1,0-0.1-0.1c0-0.1-0.1-0.1-0.1-0.1c-0.1,0-0.2-0.4,0-0.4c0,0,0.1-0.1,0.1-0.3c0-0.3,0-0.3,0.1-0.4
				c0,0,0.1-0.1,0.1-0.1c0-0.3,0.1-0.6,0.1-0.7c0.1-0.1,0.1-0.1,0.1-0.4c0-0.3,0.1-0.4,0.3-0.4c0.1,0,0.2,0,0.2,0.1
				c0,0,0.1,0.1,0.1,0.1c0.1,0,0.2,0.1,0.2,0.1c0,0,0,0,0.1,0c0.1,0,0.2,0.1,0.3,0.1c0,0.1,0.1,0.1,0.2,0.1c0.1,0,0.1,0,0.1,0.1
				c0,0,0,0.1,0.1,0.1c0.1,0,0.2,0.1,0.3,0.1c0,0.1,0.2,0.1,0.2,0.1c0,0,0.1,0.1,0.1,0.1c0,0,0,0,0.1,0c0.1,0,0.1,0,0.2,0.1
				c0.1,0.1,0.2,0.1,0.4,0c0.2-0.1,0.5-0.1,1.4-0.2c0.4,0,0.5,0,0.6,0c0.1-0.1,0.3-0.1,0.5-0.1c0.1,0,0.2,0,0.2-0.1c0,0,0-0.1,0-0.2
				s0-0.3,0-0.4c0-0.1,0-0.2,0-0.2c-0.1-0.1-1,0-1.1,0.1c-0.2,0.1-0.4,0.1-1,0.1c-0.6,0-0.5,0-0.7-0.1c0,0-0.1-0.1-0.1-0.1
				c-0.1,0-0.2-0.1-0.2-0.1c0,0,0,0-0.1-0.1c-0.1,0-0.1-0.1-0.2-0.1c-0.1,0-0.1-0.1-0.1-0.1c0,0,0,0,0,0s0,0,0,0
				c0,0-0.1-0.1-0.1-0.1c0,0-0.1-0.1-0.1-0.1c-0.1,0-0.1-0.1-0.1-0.1c0,0-0.1-0.1-0.2-0.1c-0.1,0-0.2-0.1-0.2-0.1
				c0,0-0.1-0.1-0.1-0.1c-0.1,0-0.2-0.1-0.3-0.1c0,0,0,0-0.1,0c0,0-0.1,0-0.2,0c-0.1,0-0.1,0-0.1,0s-0.1,0-0.1-0.1
				c0,0-0.1-0.1-0.1-0.1c-0.4-0.1-0.4-0.1-0.5-0.2c0,0-0.1,0-0.2,0c-0.2,0-0.3,0-0.4-0.1c-0.1-0.1-0.1-0.1-0.2-0.1
				c-0.2,0-0.4-0.1-0.4-0.1c0,0-0.1-0.1-0.1-0.1c-0.1-0.1-0.2-0.2-0.2-0.3c0,0,0-0.1-0.1-0.1c-0.1,0-0.1-0.1-0.1-0.3
				c0-0.1,0-0.1-0.1-0.1c-0.1,0-0.1-0.1-0.1-0.3c0-0.1-0.1-0.2-0.1-0.2c0,0-0.1-0.1-0.1-0.2c0-0.1,0-0.1-0.1-0.2
				c-0.1,0-0.1-0.1-0.1-0.3c0-0.1,0-0.1-0.1-0.1c-0.1-0.1-0.2-0.5,0-0.5c0,0,0.1-0.2,0.1-0.3c0-0.1,0.1-0.3,0.1-0.3
				c0.1-0.1,0.1-0.1,0.1-0.3c0-0.2,0.1-0.4,0.1-0.4c0,0,0.1-0.1,0.1-0.3c0-0.2,0.4-0.3,0.6-0.1c0,0,0.1,0.1,0.3,0.1
				c0.3,0,0.5,0.1,0.5,0.2c0,0,0.1,0,0.2,0c0.4,0,0.5,0.1,0.4,0.3c0,0.1,0,0.1,0,0.1c0,0-0.2,0.1-0.2,0.1c-0.1,0-0.1,0-0.1,0.1
				c0,0-0.1,0.1-0.2,0.1c0,0,0,0,0,0c0,0.1-0.1,0.1-0.1,0.2c-0.1,0-0.1,0.1-0.1,0.1c0,0.1-0.1,0.2-0.2,0.3c-0.1,0.1-0.1,0.1-0.1,0.2
				c0,0.2,0,0.3-0.1,0.4c-0.1,0.1-0.1,0.5,0,0.6c0.1,0.1,0.1,0.3,0.1,0.4c0,0.1,0,0.1,0.1,0.2c0.1,0.1,0.1,0.2,0.1,0.3
				c0,0.1,0,0.1,0.1,0.1c0.1,0,0.1,0.1,0.2,0.2c0,0,0,0.1,0.1,0.1c0.1,0,0.1,0.1,0.1,0.1c0,0,0,0,0.1,0.1c0.2,0.1,0.2,0.1,0.3,0.1
				c0,0.1,0.1,0.1,0.3,0.1c0.2,0,0.3,0.1,0.4,0.1c0.1,0.1,0.5,0.1,0.6,0c0.1-0.1,0.3-0.1,0.5-0.1c0.1,0,0.2,0,0.2-0.1
				c0,0,0.1-0.1,0.3-0.1c0.1,0,0.1,0,0.1-0.1c0-0.1,0.1-0.1,0.1-0.1c0.1,0,0.1,0,0.1-0.1c0-0.1,0.1-0.1,0.1-0.1c0,0,0,0,0-0.1
				c0-0.1,0.1-0.2,0.1-0.3c0.1,0,0.1-0.1,0.1-0.2c0-0.1,0-0.2,0-0.2c0,0,0-0.1,0-0.1c0,0,0,0,0-0.1c0.1-0.1,0.1-0.5,0-0.6
				c-0.1-0.1-0.1-0.2-0.1-0.4c0-0.1,0-0.2-0.1-0.2c-0.1,0-0.2-0.4-0.1-0.5c0.1-0.1,0.4,0,0.5,0.1c0.1,0,0.1,0.1,0.3,0.1
				c0.3,0,0.4,0.1,0.5,0.1c0,0.1,0.2,0.1,0.4,0.1c0.2,0,0.4,0.1,0.4,0.2c0,0,0.1,0,0.3,0c0.3,0,0.4,0,0.4,0.1
				c0.1,0.1,0.2,0.1,0.4,0.1c0.2,0,0.4,0.1,0.4,0.1c0,0,0.1,0,0.3,0.1c0.3,0,0.4,0.1,0.5,0.1c0.1,0.1,0.1,0.1,0.3,0.1
				c0.4,0,0.5,0.1,0.5,0.1c0,0.1,0.2,0.1,0.4,0.1l0.1,0l0-0.1c0-0.2,0-0.2-0.1-0.2c0,0-0.1,0-0.1-0.1c-0.1-0.1-0.1-0.1-0.3-0.1
				c-0.4,0-0.5-0.1-0.5-0.1c0,0-0.2-0.1-0.3-0.1c-0.1,0-0.3,0-0.3-0.1c-0.1-0.1-0.1-0.1-0.3-0.1c-0.3,0-0.4-0.1-0.4-0.1
				c-0.1-0.1-0.2-0.1-0.5-0.1c-0.2,0-0.3,0-0.3-0.1c0,0-0.1,0-0.3-0.1c-0.3,0-0.4-0.1-0.5-0.1c0,0-0.1-0.1-0.2-0.1
				c-0.3,0-0.4-0.1-0.5-0.1c0-0.1-0.2-0.1-0.4-0.1c-0.2,0-0.4-0.1-0.4-0.2c0,0-0.1,0-0.3,0c-0.3,0-0.4,0-0.4-0.1
				c-0.1-0.1-0.2-0.1-0.3-0.1c-0.2,0-0.3-0.1-0.4-0.1c0-0.1-0.1-0.1-0.3-0.1c-0.3,0-0.4-0.1-0.5-0.1c0,0-0.1,0-0.2-0.1
				c-0.4,0-0.4-0.1-0.5-0.1c0,0-0.1-0.1-0.3-0.1c-0.3,0-0.4-0.1-0.5-0.1c-0.1-0.1-0.1-0.1-0.2-0.1c-0.3,0-0.4-0.1-0.5-0.4
				c0,0-0.1,0-0.2-0.1c-0.3,0-0.3,0-0.4-0.1c-0.1-0.1-0.3-0.1-0.3,0c0,0.2-0.5,0.2-0.7,0C558.4,747.4,558.2,747.3,558.1,747.4
				 M563.2,750C563.2,750,563.3,750.1,563.2,750c0.1,0.1,0.1,0.2,0.2,0.2c0.1,0,0.1,0.1,0.1,0.2c0,0,0,0.1,0.1,0.1
				c0.1,0.1,0.1,0.1,0.1,0.6c0,0.5,0,0.5-0.1,0.6c0,0-0.1,0-0.1,0.1c0,0.1-0.1,0.2-0.1,0.2c0,0-0.1,0-0.1,0.1
				c-0.1,0.1-0.9,0.1-1.1,0c-0.1-0.1-0.1-0.1-0.2-0.1c0,0-0.1,0-0.1-0.1c0,0,0-0.1-0.1-0.1c-0.1,0-0.1-0.1-0.1-0.5
				c0-0.4,0-0.6,0.1-0.6c0,0,0.1-0.1,0.1-0.1c0,0,0.1-0.1,0.1-0.1c0,0,0.1,0,0.1-0.1c0.1-0.1,0.1-0.1,0.6-0.1
				C563.1,749.9,563.1,749.9,563.2,750"/>
		</g>
	</g>
	<g id="TUHURA">
		<rect x="260" y="602" width="18" height="18"/>
		<g>
			<g>
				<g>
					<path class="st9" d="M274.8,609.8c-0.1-0.4-0.4-0.6-0.7-0.6c-0.3,0-0.6,0.2-0.7,0.5h-1.5v-1h1c0.1,0,0.2-0.1,0.2-0.2
						c0,0,0,0,0,0v-1c0.4-0.1,0.6-0.6,0.4-1c-0.1-0.3-0.5-0.5-0.9-0.4c-0.4,0.1-0.6,0.6-0.5,1c0.1,0.2,0.2,0.4,0.4,0.4v0.8h-0.7
						v-0.5c0-0.1-0.1-0.2-0.2-0.2c0,0,0,0,0,0h-0.5v-1.3c0.4-0.1,0.6-0.6,0.4-1c-0.1-0.3-0.5-0.5-0.9-0.4c-0.4,0.1-0.6,0.6-0.5,1
						c0.1,0.2,0.2,0.4,0.4,0.4v1.3h-1v-3.9c0-0.1-0.1-0.2-0.2-0.2c0,0,0,0,0,0c-3,0-5.4,2.2-5.4,5c0,1.3,0.5,3.1,1.4,4.6
						c0.2,0.3,0.4,0.6,0.6,0.9c0.4,0.6,0.9,1.3,1,2c-0.2,0.1-0.3,0.4-0.3,0.6c0,0.2,0.1,0.3,0.2,0.5c-0.1,0.1-0.2,0.3-0.2,0.5
						c0,0.4,0.3,0.7,0.7,0.7h4.2c0.4,0,0.7-0.3,0.7-0.7c0,0,0,0,0,0c0-0.2-0.1-0.4-0.2-0.5c0.1-0.1,0.2-0.3,0.2-0.5
						c0-0.4-0.3-0.7-0.7-0.7c0,0,0,0,0,0h-1.8v-4.7h0.5v0.7c0,0.1,0.1,0.2,0.2,0.2c0,0,0,0,0,0h0.7v0.3c-0.4,0.1-0.6,0.6-0.4,0.9
						c0.1,0.4,0.6,0.6,0.9,0.4c0.4-0.1,0.6-0.6,0.4-0.9c-0.1-0.2-0.2-0.4-0.4-0.4v-0.5c0-0.1-0.1-0.2-0.2-0.2c0,0,0,0,0,0h-0.7v-0.5
						h1c0.1,0,0.2-0.1,0.2-0.2c0,0,0,0,0,0v-0.5h1.5c0.1,0.4,0.6,0.6,1,0.4C274.7,610.4,274.8,610.1,274.8,609.8z M272.8,606.5
						c0.1,0,0.2,0.1,0.2,0.2c0,0.1-0.1,0.2-0.2,0.2s-0.2-0.1-0.2-0.2C272.6,606.6,272.7,606.5,272.8,606.5z M266.4,613.4
						c-0.2-0.3-0.4-0.6-0.5-0.8c-0.8-1.4-1.3-3.1-1.3-4.3c0-2.4,2-4.4,4.7-4.5v1.7c-0.1,0-0.1,0-0.2,0c-0.1,0-0.2,0.1-0.2,0.2
						l-0.1,0.4c-0.1,0-0.1,0-0.2,0l-0.2-0.3c-0.1-0.1-0.2-0.1-0.3-0.1c-0.3,0.1-0.5,0.3-0.8,0.4c-0.1,0.1-0.1,0.2-0.1,0.3l0.1,0.3
						c0,0-0.1,0.1-0.1,0.1l-0.3-0.1c-0.1,0-0.2,0-0.3,0.1c-0.2,0.2-0.3,0.5-0.5,0.8c0,0.1,0,0.2,0.1,0.3l0.3,0.2c0,0.1,0,0.1,0,0.2
						l-0.4,0.1c-0.1,0-0.2,0.1-0.2,0.2v0.8c0,0.1,0.1,0.2,0.2,0.2l0.4,0.1c0,0.1,0,0.1,0,0.2l-0.3,0.2c-0.1,0.1-0.1,0.2-0.1,0.3
						c0.1,0.3,0.3,0.5,0.5,0.8c0.1,0.1,0.2,0.1,0.3,0.1l0.3-0.1c0,0,0.1,0.1,0.1,0.1l-0.1,0.3c0,0.1,0,0.2,0.1,0.3
						c0.2,0.2,0.5,0.3,0.8,0.5c0.1,0,0.2,0,0.3-0.1l0.2-0.3c0.1,0,0.1,0,0.2,0l0.1,0.4c0,0.1,0.1,0.2,0.2,0.2c0.1,0,0.1,0,0.2,0v2.7
						h-1.7C267.3,614.8,266.8,614.1,266.4,613.4z M267.2,609.2c0,1.1,0.8,2.1,2,2.2v0.8l0-0.2c0-0.1-0.1-0.2-0.2-0.2
						c-0.1,0-0.3-0.1-0.4-0.1c0,0-0.1,0-0.1,0c-0.1,0-0.1,0-0.2,0.1L268,612c-0.1-0.1-0.3-0.1-0.4-0.2l0.1-0.3c0-0.1,0-0.2-0.1-0.3
						c-0.1-0.1-0.2-0.2-0.3-0.3c-0.1-0.1-0.2-0.1-0.3-0.1l-0.3,0.1c-0.1-0.1-0.2-0.2-0.2-0.4l0.3-0.2c0.1-0.1,0.1-0.2,0.1-0.3
						c-0.1-0.1-0.1-0.3-0.1-0.4c0-0.1-0.1-0.2-0.2-0.2l-0.3-0.1v-0.4l0.3-0.1c0.1,0,0.2-0.1,0.2-0.2c0-0.1,0.1-0.3,0.1-0.4
						c0-0.1,0-0.2-0.1-0.3l-0.3-0.2c0.1-0.1,0.1-0.3,0.2-0.4l0.3,0.1c0.1,0,0.2,0,0.3-0.1c0.1-0.1,0.2-0.2,0.3-0.3
						c0.1-0.1,0.1-0.2,0.1-0.3l-0.1-0.3c0.1-0.1,0.2-0.2,0.4-0.2l0.2,0.3c0.1,0.1,0.2,0.1,0.3,0.1c0.1-0.1,0.3-0.1,0.4-0.1
						c0.1,0,0.2-0.1,0.2-0.2l0-0.2v0.8C268,607.1,267.2,608,267.2,609.2z M269.2,607.5v3.4c-0.9-0.1-1.6-1-1.5-1.9
						C267.8,608.2,268.4,607.6,269.2,607.5z M271.7,617.3c0,0.1-0.1,0.3-0.2,0.3h-4.2c-0.1,0-0.2-0.1-0.2-0.3c0,0,0,0,0,0
						c0-0.1,0.1-0.3,0.2-0.3h4.2C271.6,617,271.7,617.1,271.7,617.3C271.7,617.3,271.7,617.3,271.7,617.3z M271.4,616
						c0.1,0,0.2,0.1,0.2,0.2c0,0,0,0,0,0c0,0.1-0.1,0.2-0.2,0.2h-4c-0.1,0-0.2-0.1-0.2-0.2c0,0,0,0,0,0c0-0.1,0.1-0.2,0.1-0.2
						c0,0,0.1,0,0.1,0L271.4,616L271.4,616z M271.4,612.6c0.1,0,0.2,0.1,0.2,0.2s-0.1,0.2-0.2,0.2c-0.1,0-0.2-0.1-0.2-0.2
						C271.1,612.7,271.2,612.6,271.4,612.6z M270.9,605.2c0.1,0,0.2,0.1,0.2,0.2c0,0.1-0.1,0.2-0.2,0.2c-0.1,0-0.2-0.1-0.2-0.2
						C270.6,605.4,270.8,605.2,270.9,605.2z M271.4,610.4h-1.7v-2.4h1.7V610.4z M274.1,610.1c-0.1,0-0.2-0.1-0.2-0.2
						c0-0.1,0.1-0.2,0.2-0.2c0.1,0,0.2,0.1,0.2,0.2C274.3,610,274.2,610.1,274.1,610.1z"/>
				</g>
			</g>
			<g>
				<g>
					<path class="st9" d="M271.8,614.5c-0.1,0.2-0.2,0.3-0.2,0.5l0.5,0.2c0.1-0.1,0.1-0.3,0.2-0.4L271.8,614.5z"/>
				</g>
			</g>
			<g>
				<g>
					<path class="st9" d="M272.3,613.6c-0.1,0.1-0.2,0.3-0.3,0.4l0.4,0.3c0.1-0.1,0.2-0.3,0.3-0.4L272.3,613.6z"/>
				</g>
			</g>
			<g>
				<g>
					<path class="st9" d="M272.9,612.8c-0.1,0.1-0.2,0.3-0.3,0.4l0.4,0.3c0.1-0.1,0.2-0.3,0.3-0.4L272.9,612.8z"/>
				</g>
			</g>
			<g>
				<g>
					<path class="st9" d="M273.3,612c-0.1,0.1-0.1,0.3-0.2,0.4l0.4,0.2c0.1-0.1,0.2-0.3,0.2-0.5L273.3,612z"/>
				</g>
			</g>
			<g>
				<g>
					<path class="st9" d="M273.7,611.1c-0.1,0.2-0.1,0.3-0.2,0.5l0.5,0.2c0.1-0.2,0.1-0.3,0.2-0.5L273.7,611.1z"/>
				</g>
			</g>
			<g>
				<g>
					<path class="st9" d="M274.8,608.2l-0.5,0l0,0c0,0.1,0,0.3,0,0.4l0.5,0C274.8,608.6,274.8,608.4,274.8,608.2L274.8,608.2z"/>
				</g>
			</g>
			<g>
				<g>
					<path class="st9" d="M274.7,607.2l-0.5,0.1c0,0.2,0.1,0.3,0.1,0.5l0.5-0.1C274.8,607.5,274.7,607.4,274.7,607.2z"/>
				</g>
			</g>
			<g>
				<g>
					<path class="st9" d="M274.3,606.2l-0.4,0.2c0.1,0.1,0.1,0.3,0.2,0.4l0.5-0.2C274.5,606.5,274.4,606.3,274.3,606.2z"/>
				</g>
			</g>
			<g>
				<g>
					<path class="st9" d="M273.8,605.3l-0.4,0.3c0.1,0.1,0.2,0.3,0.3,0.4l0.4-0.3C274,605.6,273.9,605.4,273.8,605.3z"/>
				</g>
			</g>
			<g>
				<g>
					<path class="st9" d="M273,604.6l-0.3,0.4c0.1,0.1,0.2,0.2,0.3,0.3l0.3-0.3C273.3,604.8,273.2,604.7,273,604.6z"/>
				</g>
			</g>
			<g>
				<g>
					<path class="st9" d="M272.2,604l-0.2,0.4c0.1,0.1,0.3,0.2,0.4,0.2l0.3-0.4C272.5,604.1,272.3,604.1,272.2,604z"/>
				</g>
			</g>
			<g>
				<g>
					<path class="st9" d="M271.2,603.6l-0.1,0.5c0.2,0,0.3,0.1,0.4,0.2l0.2-0.5C271.5,603.7,271.4,603.6,271.2,603.6z"/>
				</g>
			</g>
			<g>
				<g>
					<path class="st9" d="M270.2,603.3l-0.1,0.5c0.2,0,0.3,0,0.5,0.1l0.1-0.5C270.5,603.4,270.4,603.4,270.2,603.3z"/>
				</g>
			</g>
			<g>
				<g>
					<rect x="262.5" y="616.5" class="st9" width="0.5" height="0.5"/>
				</g>
			</g>
			<g>
				<g>
					<rect x="262.5" y="617.5" class="st9" width="0.5" height="0.5"/>
				</g>
			</g>
			<g>
				<g>
					<rect x="263" y="617" class="st9" width="0.5" height="0.5"/>
				</g>
			</g>
			<g>
				<g>
					<rect x="262.1" y="617" class="st9" width="0.5" height="0.5"/>
				</g>
			</g>
			<g>
				<g>
					<rect x="276" y="603.3" class="st9" width="0.5" height="0.5"/>
				</g>
			</g>
			<g>
				<g>
					<rect x="276" y="604.3" class="st9" width="0.5" height="0.5"/>
				</g>
			</g>
			<g>
				<g>
					<rect x="276.5" y="603.8" class="st9" width="0.5" height="0.5"/>
				</g>
			</g>
			<g>
				<g>
					<rect x="275.5" y="603.8" class="st9" width="0.5" height="0.5"/>
				</g>
			</g>
			<g>
			</g>
			<g>
			</g>
			<g>
			</g>
			<g>
			</g>
			<g>
			</g>
			<g>
			</g>
			<g>
			</g>
			<g>
			</g>
			<g>
			</g>
			<g>
			</g>
			<g>
			</g>
			<g>
			</g>
			<g>
			</g>
			<g>
			</g>
			<g>
			</g>
		</g>
	</g>
	<g id="TROPICALFOREST">
		<rect x="290" y="487" class="st15" width="20" height="20"/>
		<g>
			<g>
				<path class="st9" d="M309.3,491.5L309.3,491.5c-0.1-0.4-0.7-0.6-1.4-0.7c-0.8-0.1-1.9,0.1-2.8,0.5c-0.7,0.3-1.3,0.6-2,1.2
					c-1,0.8-1.6,1.5-1.9,1.8c-0.2,0.3-0.3,0.6-0.5,0.8c0-0.1,0-0.3-0.1-0.4c0,0-0.1,0-0.1-0.1c0-0.2,0.3-1.2,0.7-1.8
					c0.5-0.7,1.1-1.1,1.1-1.1c0.1-0.1,0.2-0.1,0.2-0.1c0,0,0.1-0.2,0.1-0.2c-0.1-0.1-0.2,0.1-0.3,0.1c-0.1,0.1-0.8,0.6-1.2,1.2
					c-0.4,0.6-0.7,1.6-0.7,1.8c-0.1,0-0.1-0.1-0.2-0.1c0,0-0.1,0-0.2,0.1c-0.1-0.2-0.3-1.2-0.7-1.8c-0.4-0.6-1.2-1.1-1.2-1.2
					c-0.1-0.1-0.2-0.2-0.3-0.1c0,0,0,0.1,0.1,0.2c0.1,0,0.2,0,0.2,0.1c0.1,0,0.6,0.4,1.1,1.1c0.4,0.6,0.7,1.5,0.7,1.8
					c-0.1,0-0.1,0.1-0.2,0.1c-0.1,0.1-0.1,0.3-0.1,0.4c-0.2-0.1-0.3-0.5-0.6-0.9c-0.3-0.4-0.7-0.9-1.7-1.7c-0.7-0.5-1.3-0.9-2-1.2
					c-0.9-0.4-1.9-0.5-2.8-0.5c-0.7,0.1-1.3,0.3-1.4,0.7c-0.1,0.3,0.3,1.2,0.7,1.8c0.3,0.4,0.3,0.9,0.4,1.3c0.1,0.6,0.4,1.6,1.1,1.9
					c0.7,0.2,2-0.2,2-0.2s0,0.2-0.4,0.4c-0.5,0.2-0.7,0.5-1,1c-0.2,0.4-0.4,1.1-0.4,1.3c0,0.4,0.1,0.6,0.1,0.8
					c0,0.2,0.1,0.5,0.2,0.6c0.2,0.2,0.1,0.4,0.2,0.6c0.1,0.2,0.4,0.4,0.4,0.4s0,0.5,0.3,0.8c0.3,0.2,0.6,0.4,0.8,0.6
					c0.2,0.2,0.3,0.3,0.8,0.4c0.2,0,0.4,0.4,0.9,0.4c0.6,0,0.6,0,0.9-0.2c0.6-0.2,0.8-1.3,1.1-2.4c0.2-0.8,0.3-1.4,0.6-1.5
					c-0.1,0.5,0,1.3,0,1.3s-0.1,0.4,0,0.5c0,0.2,0,0.5,0.1,0.5c0,0.2,0.1,0.5,0.2,0.5c0.1,0,0.2-0.3,0.2-0.5c0,0,0.1-0.3,0.1-0.5
					c0.1-0.1,0-0.5,0-0.5s0.1-0.8,0-1.3c0.2,0.1,0.4,0.7,0.6,1.5c0.2,1.1,0.5,2.2,1.1,2.4c0.4,0.1,0.4,0,0.9,0
					c0.5,0,0.7-0.5,0.9-0.5c0.4-0.1,0.6-0.2,0.8-0.4c0.2-0.2,0.5-0.3,0.8-0.6c0.3-0.3,0.3-0.8,0.3-0.8s0.3-0.2,0.4-0.4
					c0.1-0.2,0-0.4,0.2-0.6c0.2-0.2,0.2-0.4,0.2-0.6c0-0.2,0.1-0.3,0.1-0.8c0-0.3-0.2-0.7-0.4-1.1c-0.3-0.5-0.5-0.8-1-1
					c-0.4-0.2-0.4-0.4-0.4-0.4s1.3,0.4,2,0.2c0.7-0.2,1-1.2,1.1-1.9c0.1-0.5,0.2-0.9,0.4-1.3C309,492.7,309.4,491.8,309.3,491.5z"/>
			</g>
			<g>
			</g>
			<g>
			</g>
			<g>
			</g>
			<g>
			</g>
			<g>
			</g>
			<g>
			</g>
			<g>
			</g>
			<g>
			</g>
			<g>
			</g>
			<g>
			</g>
			<g>
			</g>
			<g>
			</g>
			<g>
			</g>
			<g>
			</g>
			<g>
			</g>
		</g>
	</g>
	<g id="PLANETARIUM">
		<rect x="436" y="570" width="15" height="15"/>
		<g>
			<g>
				<path class="st9" d="M438.5,581.8c-0.7,0-1.3-0.2-1.5-0.6c-0.4-0.8,0.2-2,1.8-3.5c0.1-0.1,0.2-0.1,0.3,0c0.1,0.1,0.1,0.2,0,0.3
					c-1.4,1.2-2,2.4-1.7,2.9c0.5,0.9,3.5,0.4,7.1-1.7c3.6-2.1,5.5-4.5,5-5.3c-0.3-0.5-1.7-0.5-3.4,0c-0.1,0-0.2,0-0.3-0.1
					c0-0.1,0-0.2,0.1-0.3c2.1-0.6,3.5-0.6,3.9,0.2c0.8,1.4-2,4.1-5.2,5.9C442.6,580.9,440.1,581.8,438.5,581.8z"/>
				<path class="st9" d="M440.1,579.2c-0.5,0-0.8-0.1-1-0.4c-0.1-0.1,0-0.2,0.1-0.3c0.1-0.1,0.2,0,0.3,0.1c0.1,0.2,0.5,0.3,1.3,0.1
					c0.8-0.2,1.7-0.6,2.7-1.1c2.1-1.2,3.1-2.5,2.9-2.9c-0.1-0.1,0-0.2,0.1-0.3c0.1-0.1,0.2,0,0.3,0.1c0.5,0.9-1.2,2.5-3,3.6
					c-1,0.6-2,1-2.8,1.2C440.6,579.1,440.4,579.2,440.1,579.2z"/>
				<path class="st9" d="M439.3,578.9c-0.1,0-0.2,0-0.2-0.1c-1.2-2.1-0.5-4.8,1.6-6c2.1-1.2,4.8-0.5,6,1.6c0.1,0.1,0,0.2-0.1,0.3
					c-0.1,0.1-0.2,0-0.3-0.1c-1.1-1.9-3.5-2.5-5.4-1.5c-1.9,1.1-2.5,3.5-1.5,5.4c0.1,0.1,0,0.2-0.1,0.3
					C439.4,578.9,439.4,578.9,439.3,578.9z"/>
				<path class="st9" d="M443.3,581.6c-0.7,0-1.3-0.1-1.9-0.4c-0.1-0.1-0.2-0.2-0.1-0.3c0.1-0.1,0.2-0.2,0.3-0.1
					c1.2,0.6,2.6,0.5,3.7-0.1c1.1-0.7,1.9-1.8,2-3.2c0-0.1,0.1-0.2,0.2-0.2c0.1,0,0.2,0.1,0.2,0.2c-0.1,1.5-0.9,2.8-2.2,3.5
					C444.8,581.4,444.1,581.6,443.3,581.6z"/>
			</g>
			<g>
			</g>
			<g>
			</g>
			<g>
			</g>
			<g>
			</g>
			<g>
			</g>
			<g>
			</g>
			<g>
			</g>
			<g>
			</g>
			<g>
			</g>
			<g>
			</g>
			<g>
			</g>
			<g>
			</g>
			<g>
			</g>
			<g>
			</g>
			<g>
			</g>
		</g>
	</g>
	<g id="BEAUTIFULSCIENCE">
		<rect x="375" y="623" class="st10" width="15" height="15"/>
		<g>
			<g>
				<g>
					<g>
						<path class="st11" d="M388.2,625.9h-9.4c-0.2,0-0.4,0.2-0.4,0.4v0.4H378c-0.2,0-0.4,0.2-0.4,0.4v0.4h-0.4
							c-0.2,0-0.4,0.2-0.4,0.4v7.6c0,0.2,0.2,0.4,0.4,0.4h9.4c0.2,0,0.4-0.2,0.4-0.4v-0.4h0.4c0.2,0,0.4-0.2,0.4-0.4v-0.4h0.4
							c0.2,0,0.4-0.2,0.4-0.4v-7.6C388.6,626,388.4,625.9,388.2,625.9z M386.6,632.2l-1-1.2c-0.1-0.1-0.2-0.1-0.3,0l-1.2,1.4l-3.4-3
							c-0.1-0.1-0.2-0.1-0.3,0l-3.2,2.8V628c0-0.1,0.1-0.2,0.2-0.2h9c0.1,0,0.2,0.1,0.2,0.2V632.2z M387.2,634.7H387v-6.9
							c0-0.2-0.2-0.4-0.4-0.4H378v-0.2c0-0.1,0.1-0.2,0.2-0.2h9c0.1,0,0.2,0.1,0.2,0.2l0,7.2C387.4,634.6,387.3,634.7,387.2,634.7z
							 M388,633.9h-0.2V627c0-0.2-0.2-0.4-0.4-0.4h-8.6v-0.2c0-0.1,0.1-0.2,0.2-0.2h9c0.1,0,0.2,0.1,0.2,0.2v7.2h0
							C388.2,633.8,388.1,633.9,388,633.9z"/>
						<path class="st11" d="M383.9,629c-0.4,0-0.8,0.4-0.8,0.8c0,0.4,0.4,0.8,0.8,0.8s0.8-0.4,0.8-0.8
							C384.7,629.3,384.3,629,383.9,629z"/>
					</g>
				</g>
			</g>
			<g>
			</g>
			<g>
			</g>
			<g>
			</g>
			<g>
			</g>
			<g>
			</g>
			<g>
			</g>
			<g>
			</g>
			<g>
			</g>
			<g>
			</g>
			<g>
			</g>
			<g>
			</g>
			<g>
			</g>
			<g>
			</g>
			<g>
			</g>
			<g>
			</g>
		</g>
	</g>
	<g id="BabyChange">
		<rect x="315.2" y="680.5" class="st16" width="10.8" height="10.8"/>
		<g>
			<g>
				<path class="st9" d="M321.9,687.1c0,0,0.9,0.9,0.9,0.9c0.3,0.3,0.2,0.8-0.1,1l-1.2,1.3c-0.5,0.5-1.1-0.2-0.6-0.6l0.8-0.8
					l-0.7-0.7L321.9,687.1L321.9,687.1z M319.3,687.1L319.3,687.1c0,0-0.9,0.9-0.9,0.9c-0.3,0.3-0.2,0.8,0.1,1l1.2,1.3
					c0.5,0.5,1.1-0.2,0.6-0.6l-0.8-0.8l0.7-0.7L319.3,687.1 M320.6,683.9c0.7,0,1.3-0.6,1.3-1.3c0-0.7-0.6-1.3-1.3-1.3
					c-0.7,0-1.3,0.6-1.3,1.3C319.4,683.3,319.9,683.9,320.6,683.9z M322,686.6l0-0.9l1,1c0.1,0.1,0.2,0.1,0.3,0.1
					c0.1,0,0.2,0,0.3-0.1c0.2-0.2,0.2-0.5,0-0.6c0,0-1.2-1.3-1.4-1.4c-0.3-0.3-0.8-0.4-1.5-0.4h-0.2c-0.8,0-1.2,0.2-1.5,0.4
					c-0.2,0.2-1.4,1.4-1.4,1.4c-0.2,0.2-0.2,0.4,0,0.6c0.1,0.1,0.2,0.1,0.3,0.1c0.1,0,0.2,0,0.3-0.1l1-1l0,0.9L322,686.6L322,686.6
					L322,686.6z"/>
			</g>
			<g>
			</g>
			<g>
			</g>
			<g>
			</g>
			<g>
			</g>
			<g>
			</g>
			<g>
			</g>
			<g>
			</g>
			<g>
			</g>
			<g>
			</g>
			<g>
			</g>
			<g>
			</g>
			<g>
			</g>
			<g>
			</g>
			<g>
			</g>
			<g>
			</g>
		</g>
	</g>
	<g id="DisabledToilet">
		<rect x="421.1" y="662.8" width="12" height="12"/>
		<g>
			<path class="st9" d="M431.9,671.1l0.3,0.5c0.1,0.1,0,0.3-0.1,0.4l-1.2,0.6c-0.3,0.2-0.7,0-0.8-0.3l-1.2-2.5h-2.6
				c-0.3,0-0.6-0.2-0.6-0.5c-0.6-4.5-0.6-4.2-0.6-4.3c0-0.7,0.6-1.2,1.3-1.2c0.6,0,1.1,0.5,1.2,1.2c0,0.6-0.4,1.1-1,1.2l0.1,0.6h2.5
				c0.2,0,0.3,0.1,0.3,0.3v0.6c0,0.2-0.1,0.3-0.3,0.3h-2.3l0.1,0.6h2.5c0.2,0,0.4,0.1,0.5,0.3l1.1,2.3l0.7-0.3
				C431.6,670.9,431.8,670.9,431.9,671.1L431.9,671.1z M428.4,670.4h-0.5c-0.1,1-1,1.8-2.1,1.8c-1.2,0-2.1-1-2.1-2.1
				c0-0.8,0.4-1.5,1.1-1.8c-0.1-0.5-0.1-0.9-0.2-1.3c-1.2,0.5-2.1,1.7-2.1,3.1c0,1.8,1.5,3.3,3.3,3.3c1.4,0,2.5-0.8,3-2L428.4,670.4
				z"/>
		</g>
	</g>
	<g id="MainStairs_1_">
		<g>
			<defs>
				<rect id="SVGID_1_" x="400" y="660" width="16" height="16"/>
			</defs>
			<clipPath id="SVGID_2_">
				<use xlink:href="#SVGID_1_"  style="overflow:visible;"/>
			</clipPath>
			<rect x="400" y="660" class="st17" width="16" height="16"/>
			<polygon class="st18" points="401.3,672.2 403.8,672.2 403.8,669.7 406.2,669.7 406.2,667.2 408.7,667.2 408.7,664.7 
				411.1,664.7 411.1,662.3 414.8,662.3 414.8,663.5 412.4,663.5 412.4,666 409.9,666 409.9,668.5 407.4,668.5 407.4,671 405,671 
				405,673.5 401.3,673.5 			"/>
		</g>
	</g>
	<g id="TangataStairs">
		<g>
			<defs>
				<rect id="SVGID_3_" x="173" y="683" width="11" height="11"/>
			</defs>
			<clipPath id="SVGID_4_">
				<use xlink:href="#SVGID_3_"  style="overflow:visible;"/>
			</clipPath>
			<rect x="173" y="683" class="st19" width="11" height="11"/>
			<polygon class="st20" points="173.9,691.4 175.6,691.4 175.6,689.7 177.3,689.7 177.3,687.9 179,687.9 179,686.2 180.7,686.2 
				180.7,684.6 183.2,684.6 183.2,685.4 181.5,685.4 181.5,687.1 179.8,687.1 179.8,688.8 178.1,688.8 178.1,690.5 176.4,690.5 
				176.4,692.2 173.9,692.2 			"/>
		</g>
	</g>
	<g id="MainLift_1_">
		<g>
			<defs>
				<rect id="SVGID_5_" x="491" y="680" width="16.9" height="16.9"/>
			</defs>
			<clipPath id="SVGID_6_">
				<use xlink:href="#SVGID_5_"  style="overflow:visible;"/>
			</clipPath>
			<rect x="491.5" y="680.5" class="st21" width="16" height="16"/>
			<g class="st21">
				<defs>
					<rect id="SVGID_7_" x="491" y="680" width="16.9" height="16.9"/>
				</defs>
				<clipPath id="SVGID_8_">
					<use xlink:href="#SVGID_7_"  style="overflow:visible;"/>
				</clipPath>
				<rect x="491.5" y="680.5" class="st22" width="16" height="16"/>
				<path class="st23" d="M493.9,681.4c-1,0-1.5,0.5-1.5,1.5v10.7c0,1,0.5,1.5,1.5,1.5h10.8c1,0,1.5-0.5,1.5-1.5v-10.7
					c0-1-0.5-1.5-1.5-1.5C504.6,681.4,493.9,681.4,493.9,681.4"/>
				<path class="st24" d="M495.8,692.8v-5.2h0c0-0.5,0.4-0.9,0.9-0.9h5.2c0.5,0,0.9,0.4,0.9,0.9v5.2v0c0,0.6-0.4,0.9-0.9,0.9h-5.2
					C496.2,693.7,495.8,693.3,495.8,692.8"/>
				<rect x="496.7" y="687.7" class="st23" width="5.1" height="5.1"/>
				<path class="st24" d="M500.6,682.7c0-0.7,1-0.7,1,0l0,2.1l0.5-0.6c0.4-0.4,1,0.2,0.6,0.6l-1.3,1.5c-0.2,0.2-0.5,0.2-0.7,0
					l-1.3-1.5c-0.4-0.5,0.3-1,0.6-0.6l0.5,0.7L500.6,682.7z"/>
				<path class="st24" d="M497,685.8c0,0.7,1,0.7,1,0l0-2.1l0.5,0.6c0.4,0.4,1-0.2,0.6-0.6l-1.3-1.5c-0.2-0.2-0.5-0.2-0.7,0
					l-1.3,1.5c-0.4,0.5,0.3,1,0.6,0.6l0.5-0.7L497,685.8z"/>
				<path class="st24" d="M501.6,690.6c0,0.1-0.1,0.2-0.2,0.2h-1.1c-0.1,0-0.2-0.1-0.2-0.2v-1.2c0-0.1,0.1-0.2,0.2-0.2h1
					c0.1,0,0.2,0.1,0.2,0.2V690.6z"/>
				<path class="st24" d="M501.4,690.7h-0.4v1.7c0,0.3,0.4,0.3,0.4,0V690.7z"/>
				<path class="st24" d="M500.8,690.7h-0.4v1.7c0,0.3,0.4,0.3,0.4,0V690.7z"/>
				<path class="st24" d="M500.9,689c0.2,0,0.3-0.1,0.3-0.3c0-0.2-0.1-0.3-0.3-0.3c-0.2,0-0.3,0.1-0.3,0.3
					C500.6,688.8,500.7,689,500.9,689"/>
				<path class="st24" d="M500.1,690.6c0,0.1-0.1,0.2-0.2,0.2h-1.1c-0.1,0-0.2-0.1-0.2-0.2v-1.2c0-0.1,0.1-0.2,0.2-0.2h1
					c0.1,0,0.2,0.1,0.2,0.2V690.6z"/>
				<path class="st24" d="M499.8,690.7h-0.4v1.7c0,0.3,0.4,0.3,0.4,0V690.7z"/>
				<path class="st24" d="M499.3,690.7h-0.4v1.7c0,0.3,0.4,0.3,0.4,0V690.7z"/>
				<path class="st24" d="M499.3,689c0.2,0,0.3-0.1,0.3-0.3c0-0.2-0.1-0.3-0.3-0.3c-0.2,0-0.3,0.1-0.3,0.3
					C499,688.8,499.1,689,499.3,689"/>
				<path class="st24" d="M498.5,690.6c0,0.1-0.1,0.2-0.2,0.2h-1.1c-0.1,0-0.2-0.1-0.2-0.2v-1.2c0-0.1,0.1-0.2,0.2-0.2h1
					c0.1,0,0.2,0.1,0.2,0.2V690.6z"/>
				<path class="st24" d="M498.2,690.7h-0.4v1.7c0,0.3,0.4,0.3,0.4,0V690.7z"/>
				<path class="st24" d="M497.7,690.7h-0.4v1.7c0,0.3,0.4,0.3,0.4,0V690.7z"/>
				<path class="st24" d="M497.7,689c0.2,0,0.3-0.1,0.3-0.3c0-0.2-0.1-0.3-0.3-0.3c-0.2,0-0.3,0.1-0.3,0.3
					C497.4,688.8,497.6,689,497.7,689"/>
			</g>
		</g>
	</g>
</g>
<g id="Text">
	<rect x="182" y="575.7" class="st25" width="176" height="57.3"/>
	<text transform="matrix(1 0 0 1 197.9858 583.2266)"><tspan x="0" y="0" class="st26 st27">TUHURA OTAGO COMMUNITY </tspan><tspan x="14.2" y="12" class="st26 st27">TRUST SCIENCE CENTRE</tspan></text>
	<rect x="113" y="564" class="st25" width="54" height="26.7"/>
	<text transform="matrix(1 0 0 1 128.8799 571.5601)"><tspan x="0" y="0" class="st26 st27">1877 </tspan><tspan x="-10" y="12" class="st26 st27">GALLERY</tspan></text>
	<rect x="261.3" y="459.3" class="st25" width="53.7" height="22.7"/>
	<text transform="matrix(1 0 0 1 264.522 466.8936)"><tspan x="0" y="0" class="st26 st27">TROPICAL </tspan><tspan x="5.1" y="12" class="st26 st27">FOREST</tspan></text>
	<rect x="413" y="540" class="st25" width="62" height="37"/>
	<text transform="matrix(1 0 0 1 422.5088 546.0479)"><tspan x="0" y="0" class="st26 st28">PERPETUAL </tspan><tspan x="0.6" y="9.6" class="st26 st28">GUARDIAN </tspan><tspan x="-5.8" y="19.2" class="st26 st28">PLANETARIUM</tspan></text>
	<rect x="490.7" y="599" class="st25" width="68.3" height="41"/>
	<text transform="matrix(1 0 0 1 507.3867 605.8042)"><tspan x="0" y="0" class="st26 st29">SPECIAL </tspan><tspan x="-10" y="10.8" class="st26 st29">EXHIBITIONS </tspan><tspan x="-1.6" y="21.6" class="st26 st29">GALLERY</tspan></text>
	<rect x="360.3" y="593" class="st25" width="47.7" height="73"/>
	<text transform="matrix(1 0 0 1 363.4668 599.0479)"><tspan x="0" y="0" class="st26 st28">BEAUTIFUL </tspan><tspan x="3.9" y="9.6" class="st26 st28">SCIENCE </tspan><tspan x="3.8" y="19.2" class="st26 st28">GALLERY</tspan></text>
	<rect x="521.7" y="733.3" class="st25" width="92.3" height="18.7"/>
	<text transform="matrix(1 0 0 1 521.667 740.8926)" class="st26 st27">PACIFIC CULTURES</text>
	<rect x="417" y="607.3" class="st25" width="43" height="35.7"/>
	<text transform="matrix(1 0 0 1 421.0078 613.3813)"><tspan x="0" y="0" class="st26 st28">BARCLAY </tspan><tspan x="0.2" y="9.6" class="st26 st28">THEATRE</tspan></text>
	<rect x="121" y="728" class="st25" width="184.7" height="12"/>
	<text transform="matrix(1 0 0 1 166.0889 735.5596)" class="st26 st27">TANGATA WHENUA</text>
	<rect x="421.2" y="658.3" class="st25" width="11.8" height="5.8"/>
	<text transform="matrix(1 0 0 1 423.7871 661.2739)" class="st26 st30">WC</text>
	<rect x="315.2" y="676.3" class="st25" width="11.8" height="5.8"/>
	<text transform="matrix(1 0 0 1 317.7871 679.2739)" class="st26 st30">WC</text>
	<rect x="206.2" y="484.3" class="st25" width="11.8" height="5.8"/>
	<text transform="matrix(1 0 0 1 208.7871 487.2739)" class="st26 st30">WC</text>
	<rect x="393" y="785" class="st25" width="30" height="9"/>
	<text transform="matrix(1 0 0 1 396.9209 789.5361)" class="st26 st31">ATRIUM</text>
</g>
</svg>
