<?xml version="1.0" encoding="utf-8"?>
<!-- Generator: Adobe Illustrator 22.1.0, SVG Export Plug-In . SVG Version: 6.00 Build 0)  -->
<svg version="1.1" xmlns="http://www.w3.org/2000/svg" xmlns:xlink="http://www.w3.org/1999/xlink" x="0px" y="0px"
	 viewBox="0 0 595.3 841.9" style="enable-background:new 0 0 595.3 841.9;" xml:space="preserve">
<style type="text/css">
	
		.st0{clip-path:url(#SVGID_2_);fill:none;stroke:#000000;stroke-width:0.54;stroke-linecap:round;stroke-linejoin:round;stroke-miterlimit:10;}
	.st1{fill:#FFFFFF;stroke:#000000;stroke-miterlimit:10;}
	.st2{stroke:#000000;stroke-miterlimit:10;}
	.st3{fill:none;stroke:#000000;stroke-miterlimit:10;}
</style>
<g id="Layer_1">
	<g id="OUTLINE">
		<g id="Reception">
			<g>
				<defs>
					<rect id="SVGID_1_" x="-50.1" y="-98.3" width="625.6" height="815.9"/>
				</defs>
				<clipPath id="SVGID_2_">
					<use xlink:href="#SVGID_1_"  style="overflow:visible;"/>
				</clipPath>
				<line class="st0" x1="93.8" y1="271.8" x2="93" y2="271.8"/>
				<line class="st0" x1="93" y1="271" x2="93.8" y2="271"/>
				<line class="st0" x1="93" y1="271.8" x2="93" y2="271"/>
				<line class="st0" x1="93.8" y1="271" x2="93.8" y2="271.8"/>
				<path class="st0" d="M121.6,291.5c6.6,0.8,12.6-3.7,13.5-10.3c0.1-0.5,0.1-1.1,0.1-1.6"/>
				<path class="st0" d="M107.3,279.6c0,8.8,7.1,15.9,15.9,15.9s15.8-7.1,15.8-15.9"/>
				<path class="st0" d="M106.3,279.6c0,9.3,7.6,16.9,16.9,16.9c9.2,0,16.8-7.6,16.8-16.9"/>
				<path class="st0" d="M104.7,279.6c0,10.2,8.3,18.4,18.5,18.4c10.1,0,18.4-8.2,18.4-18.4"/>
				<path class="st0" d="M111.1,279.6c0,6.1,4.4,11.1,10.4,11.9"/>
				<path class="st0" d="M106.9,280L106.9,280c0.1-0.1,0-0.1,0-0.1S106.9,279.9,106.9,280L106.9,280L106.9,280z"/>
				<path class="st0" d="M105.1,280L105.1,280c0-0.1,0-0.1,0-0.1C105.1,279.9,105.1,279.9,105.1,280C105.1,280,105.1,280,105.1,280
					L105.1,280z"/>
				<line class="st0" x1="111.1" y1="279.6" x2="104.7" y2="279.6"/>
				<line class="st0" x1="104.7" y1="279.6" x2="107.3" y2="279.6"/>
				<line class="st0" x1="110.8" y1="279.6" x2="111.1" y2="279.6"/>
				<path class="st0" d="M139.4,280C139.5,280,139.5,280,139.4,280c0.1-0.1,0.1-0.1,0-0.1C139.4,279.9,139.3,279.9,139.4,280
					L139.4,280L139.4,280z"/>
				<path class="st0" d="M141.3,280L141.3,280c0-0.1,0-0.1,0-0.1C141.2,279.9,141.2,279.9,141.3,280C141.2,280,141.2,280,141.3,280
					L141.3,280z"/>
				<line class="st0" x1="141.6" y1="279.6" x2="135.2" y2="279.6"/>
				<line class="st0" x1="141.6" y1="279.6" x2="139" y2="279.6"/>
				<line class="st0" x1="141.6" y1="279.6" x2="140" y2="279.6"/>
				<line class="st0" x1="111.7" y1="294" x2="115.7" y2="289"/>
				<line class="st0" x1="119.1" y1="297.6" x2="120.5" y2="291.3"/>
				<line class="st0" x1="106.6" y1="287.5" x2="112.3" y2="284.8"/>
				<path class="st0" d="M108.4,286.3C108.4,286.3,108.4,286.3,108.4,286.3c0.1-0.1,0.1-0.1,0-0.1V286.3
					C108.3,286.3,108.4,286.3,108.4,286.3L108.4,286.3z"/>
				<path class="st0" d="M108.7,287L108.7,287C108.8,286.9,108.7,286.9,108.7,287C108.7,286.9,108.7,286.9,108.7,287
					C108.7,287,108.7,287,108.7,287L108.7,287z"/>
				<path class="st0" d="M107.1,287.8C107.1,287.8,107.1,287.8,107.1,287.8c0.1-0.1,0.1-0.1,0-0.1
					C107.1,287.7,107,287.7,107.1,287.8L107.1,287.8L107.1,287.8z"/>
				<path class="st0" d="M106.7,287.1C106.8,287.1,106.8,287.1,106.7,287.1c0.1-0.1,0.1-0.1,0-0.1V287.1
					C106.6,287.1,106.7,287.1,106.7,287.1L106.7,287.1z"/>
				<line class="st0" x1="106.6" y1="287.5" x2="106.5" y2="287.4"/>
				<line class="st0" x1="106.6" y1="287.5" x2="106.4" y2="287.2"/>
				<path class="st0" d="M113.4,292.6C113.4,292.6,113.4,292.5,113.4,292.6c0.1-0.1,0.1-0.1,0-0.1
					C113.4,292.5,113.3,292.5,113.4,292.6L113.4,292.6L113.4,292.6z"/>
				<path class="st0" d="M112.2,294C112.3,294,112.3,294,112.2,294c0.1-0.1,0.1-0.1,0-0.1C112.2,293.9,112.2,293.9,112.2,294
					L112.2,294L112.2,294z"/>
				<path class="st0" d="M112.8,292.1C112.8,292.1,112.8,292,112.8,292.1c0.1-0.1,0.1-0.1,0-0.1V292.1L112.8,292.1L112.8,292.1z"/>
				<path class="st0" d="M111.6,293.5C111.6,293.5,111.6,293.4,111.6,293.5c0.1-0.1,0.1-0.1,0-0.1
					C111.6,293.4,111.5,293.4,111.6,293.5L111.6,293.5L111.6,293.5z"/>
				<path class="st0" d="M119.5,297.3C119.6,297.3,119.6,297.3,119.5,297.3c0.1-0.1,0.1-0.1,0-0.1V297.3
					C119.5,297.3,119.5,297.3,119.5,297.3L119.5,297.3z"/>
				<path class="st0" d="M120,295.5C120,295.5,120,295.5,120,295.5L120,295.5C119.9,295.5,119.9,295.5,120,295.5
					C119.9,295.5,119.9,295.5,120,295.5L120,295.5z"/>
				<path class="st0" d="M119.2,295.3L119.2,295.3C119.2,295.3,119.2,295.3,119.2,295.3C119.2,295.3,119.2,295.3,119.2,295.3
					C119.2,295.3,119.2,295.3,119.2,295.3L119.2,295.3z"/>
				<path class="st0" d="M118.7,297.1C118.8,297.1,118.8,297.1,118.7,297.1c0.1-0.1,0.1-0.1,0-0.1V297.1L118.7,297.1L118.7,297.1z"
					/>
				<line class="st0" x1="127.3" y1="297.6" x2="125.8" y2="291.3"/>
				<line class="st0" x1="134.7" y1="294" x2="130.6" y2="289"/>
				<line class="st0" x1="139.8" y1="287.5" x2="134" y2="284.8"/>
				<path class="st0" d="M138,286.3C138,286.3,138,286.3,138,286.3v-0.1V286.3C137.9,286.3,138,286.3,138,286.3L138,286.3z"/>
				<path class="st0" d="M137.6,287C137.7,287,137.7,287,137.6,287C137.7,286.9,137.7,286.9,137.6,287
					C137.6,286.9,137.6,286.9,137.6,287L137.6,287L137.6,287z"/>
				<path class="st0" d="M139.3,287.8L139.3,287.8c0.1-0.1,0-0.1,0-0.1C139.2,287.7,139.2,287.7,139.3,287.8
					C139.2,287.8,139.2,287.8,139.3,287.8L139.3,287.8z"/>
				<path class="st0" d="M139.6,287.1C139.6,287.1,139.7,287.1,139.6,287.1v-0.1V287.1C139.6,287.1,139.6,287.1,139.6,287.1
					L139.6,287.1z"/>
				<path class="st0" d="M126.7,297.3C126.8,297.3,126.8,297.3,126.7,297.3c0.1-0.1,0.1-0.1,0-0.1V297.3
					C126.7,297.3,126.7,297.3,126.7,297.3L126.7,297.3z"/>
				<path class="st0" d="M127.2,295.3L127.2,295.3C127.2,295.3,127.2,295.3,127.2,295.3C127.1,295.3,127.1,295.3,127.2,295.3
					C127.1,295.3,127.1,295.3,127.2,295.3L127.2,295.3z"/>
				<path class="st0" d="M127.6,297.1L127.6,297.1V297C127.6,297,127.6,297.1,127.6,297.1C127.6,297.1,127.6,297.1,127.6,297.1
					L127.6,297.1z"/>
				<path class="st0" d="M133,292.6L133,292.6c0.1-0.1,0-0.1,0-0.1S132.9,292.5,133,292.6L133,292.6L133,292.6z"/>
				<polygon class="st0" points="133.6,292.1 133.6,292 133.6,292 133.5,292 133.6,292.1 				"/>
				<path class="st0" d="M126.4,295.5C126.4,295.5,126.5,295.5,126.4,295.5L126.4,295.5L126.4,295.5
					C126.4,295.5,126.4,295.5,126.4,295.5L126.4,295.5z"/>
				<path class="st0" d="M134.1,294L134.1,294c0.1-0.1,0-0.1,0-0.1S134.1,293.9,134.1,294L134.1,294L134.1,294z"/>
				<path class="st0" d="M134.8,293.5L134.8,293.5c0.1-0.1,0-0.1,0-0.1S134.7,293.4,134.8,293.5L134.8,293.5L134.8,293.5z"/>
				<line class="st0" x1="153.4" y1="271.8" x2="153.4" y2="271"/>
				<line class="st0" x1="152.5" y1="271.8" x2="153.4" y2="271.8"/>
				<line class="st0" x1="152.5" y1="271" x2="152.5" y2="271.8"/>
				<line class="st0" x1="153.4" y1="271" x2="152.5" y2="271"/>
			</g>
		</g>
		<ellipse class="st1" cx="149.1" cy="467.5" rx="49.6" ry="33.5"/>
		<polygon class="st1" points="79.5,238.1 371.2,238.1 371.2,268.1 491.2,268.1 491.2,286.9 528.8,286.9 528.8,328.1 540,328.1 
			540,365.6 528.8,365.6 528.8,421.9 382.5,421.9 382.5,436.9 334.5,436.9 334.5,440.6 214.5,440.6 214.5,466.9 79.5,466.9 		"/>
		<rect x="79.5" y="238.1" class="st1" width="44.6" height="198.8"/>
		<rect x="180.7" y="238.1" class="st1" width="45" height="21"/>
		<rect x="180.7" y="258.6" class="st1" width="45" height="21"/>
		<rect x="241.3" y="238.2" class="st1" width="15.8" height="41.4"/>
		<rect x="257" y="238.1" class="st1" width="44" height="41.5"/>
		<rect x="301.1" y="238.1" class="st1" width="51.4" height="86.2"/>
		<polygon class="st2" points="315.8,358.1 349.5,358.1 349.5,436.9 334.5,436.9 334.5,440.6 304.5,440.6 304.5,425.6 315.8,425.6 
					"/>
		<line class="st3" x1="315" y1="324.4" x2="315" y2="425.6"/>
	</g>
</g>
<g id="Icons">
	<g>
		<path d="M111.4,337.4v-1.3c0-2.9-2.3-5.2-5.2-5.2c-2.9,0-5.2,2.3-5.2,5.2v1.3h-3.9v11c0,1.8,1.5,3.2,3.2,3.2H112
			c1.8,0,3.2-1.5,3.2-3.2v-11H111.4z M103.6,336.1c0-1.4,1.2-2.6,2.6-2.6c1.4,0,2.6,1.2,2.6,2.6v1.3h-5.2V336.1z M110.1,341
			c-0.5,0-1-0.4-1-1c0-0.5,0.4-1,1-1c0.5,0,1,0.4,1,1C111,340.5,110.6,341,110.1,341z M102.3,341c-0.5,0-1-0.4-1-1c0-0.5,0.4-1,1-1
			c0.5,0,1,0.4,1,1C103.3,340.5,102.8,341,102.3,341z"/>
	</g>
	<g id="Cafe">
		<path d="M220,368.3h7.6c2.1,0,3.8-1.7,3.8-3.8h1.3c2.8,0,5.1-2.3,5.1-5.1c0-2.8-2.3-5.1-5.1-5.1h-15.6c-0.5,0-1,0.4-1,1v9.2
			C216.1,366.6,217.9,368.3,220,368.3z M232.7,356.8c1.4,0,2.5,1.1,2.5,2.5s-1.1,2.5-2.5,2.5h-1.3v-5.1H232.7z M234.6,372.1h-20.4
			c-1.9,0-2.4-2.5-1.4-2.5H236C237,369.6,236.5,372.1,234.6,372.1L234.6,372.1z"/>
	</g>
	<g id="MeetingRooms_1_">
		<path d="M331.4,282.9h5.9v4.4c0,0.8-0.7,1.5-1.5,1.5H323c-0.8,0-1.5-0.7-1.5-1.5v-4.4h5.9v0.6c0,0.2,0.2,0.4,0.4,0.4h3.2
			c0.2,0,0.4-0.2,0.4-0.4V282.9z M337.3,279.4v2.5h-15.7v-2.5c0-0.8,0.7-1.5,1.5-1.5h2.5v-1.5c0-0.8,0.7-1.5,1.5-1.5h4.9
			c0.8,0,1.5,0.7,1.5,1.5v1.5h2.5C336.6,278,337.3,278.6,337.3,279.4z M331.4,277h-3.9v1h3.9V277z"/>
	</g>
	<g id="MeetingRooms">
		<path d="M282.9,260.1h5.9v4.4c0,0.8-0.7,1.5-1.5,1.5h-12.8c-0.8,0-1.5-0.7-1.5-1.5v-4.4h5.9v0.6c0,0.2,0.2,0.4,0.4,0.4h3.2
			c0.2,0,0.4-0.2,0.4-0.4V260.1z M288.8,256.6v2.5h-15.7v-2.5c0-0.8,0.7-1.5,1.5-1.5h2.5v-1.5c0-0.8,0.7-1.5,1.5-1.5h4.9
			c0.8,0,1.5,0.7,1.5,1.5v1.5h2.5C288.2,255.2,288.8,255.8,288.8,256.6z M282.9,254.2H279v1h3.9V254.2z"/>
	</g>
	<g id="HuttonTheatre">
		<path d="M447.4,345.6c-1.6,0.5-2.6,1.8-2.5,3.2c0.5-0.6,1.2-1,2.2-1.3L447.4,345.6L447.4,345.6z M442.6,347.8l-1.4-7.8
			c0-0.1,0-0.1,0-0.1c2.5-1.4,5.3-2.1,8.2-2.1c0.1,0,0.1,0,0.2,0c0.6-0.6,1.4-1,2.2-1.1c0.8-0.1,1.6-0.2,2.5-0.2
			c-0.4-0.6-1.1-1.1-1.8-1.2c-1-0.2-2.1-0.2-3.1-0.2c-3.3,0-6.6,0.8-9.5,2.5c-1,0.6-1.6,1.8-1.4,3l1.4,7.8c0.6,3.5,5.9,6.2,8.9,6.2
			c0.2,0,0.3,0,0.4,0c-0.6-0.7-1.3-1.8-1.7-2.9C445.4,350.9,442.9,349.2,442.6,347.8L442.6,347.8z M446.8,341.9
			c0-0.2-0.1-0.3-0.2-0.5c-0.4,0.4-0.9,0.7-1.5,0.8c-0.6,0.1-1.2,0-1.7-0.2c0,0.2,0,0.3,0,0.5c0.2,0.9,1.1,1.6,2,1.4
			C446.4,343.7,447,342.8,446.8,341.9z M464.8,340.3c-3.9-2.1-8.3-2.9-12.7-2.2c-1.2,0.2-2.1,1.1-2.3,2.4l-1.4,7.8
			c-0.7,3.8,4.1,8.5,6.9,9c2.7,0.5,8.9-2.3,9.5-6.1l1.4-7.8C466.4,342.1,465.8,340.8,464.8,340.3L464.8,340.3z M452.9,344.5
			c0.2-0.9,1.1-1.6,2-1.4c0.9,0.2,1.6,1.1,1.4,2c0,0.2-0.1,0.3-0.2,0.5c-0.4-0.4-0.9-0.7-1.5-0.8c-0.6-0.1-1.2,0-1.7,0.2
			C452.9,344.8,452.9,344.6,452.9,344.5L452.9,344.5z M456,353.1c-2.4-0.4-4.1-2.6-3.9-4.9c0.9,1.1,2.4,2,4.3,2.3
			c1.9,0.3,3.6,0,4.9-0.7C460.7,352,458.4,353.5,456,353.1L456,353.1z M461.6,346.5c-0.4-0.4-0.9-0.7-1.5-0.8
			c-0.6-0.1-1.2,0-1.7,0.2c0-0.2,0-0.3,0-0.5c0.2-0.9,1.1-1.6,2-1.4c0.9,0.2,1.6,1.1,1.4,2C461.8,346.2,461.7,346.4,461.6,346.5
			L461.6,346.5z"/>
	</g>
</g>
</svg>
