<?xml version="1.0" encoding="UTF-8"?>
<svg enable-background="new 0 0 135.717 60.498" viewBox="0 0 135.717 60.498" xmlns="http://www.w3.org/2000/svg">
 <path d="m122.898,5.3c0,0 3.87,1.473 4.792,2.764l.921,1.292s5.162,2.396 6.452,3.317 .368,2.396-.185,2.765c0,0 0,2.027-1.29,2.949 0,0 1.104,2.945-.553,3.868s-4.239-.368-4.239-.368-.736-1.473-2.211-.183c-1.475,1.289.183,3.317-1.106,4.606s-2.949,1.844-2.949,1.844-.736,1.291-2.211.737c0,0-2.213,1.105-3.503.737 0,0 .002,2.212-.736,2.581 0,0 0,2.947-1.66,4.975s-1.105,1.66-.553,2.581 2.397,4.791 3.134,6.45 2.765,6.084 3.687,7.005 .919,1.475 2.211,1.843 2.213-1.289 3.502-.368 2.028,2.579 1.475,3.501c0,0-.739,1.658-2.213,1.843s-3.87-.921-4.606-.736-.736-1.106-1.658-1.106-1.658-1.658-2.396-2.211-2.766-2.948-4.608-4.607-7.927-6.083-9.584-8.848c0,0-1.658.736-3.133-.185s-1.843-2.58-1.843-2.58-3.317,1.105-4.424.184c0,0-1.29.37-2.211.37s-2.767-.554-2.767-.554l-3.5-.185c0,0-1.658,3.686-3.871,7.188s-1.845,6.268-.738,7.373c1.106,1.104 3.872,3.317 3.135,4.606s-2.765,1.106-2.765,1.106-1.661.924-2.766.554-2.58-2.213-4.055-3.135c-1.475-.921-1.475-2.394-.921-4.606s0-5.346 0-8.295 .921-6.082.921-6.082l-7.188-3.317c0,0 .553,3.317-.922,7.557s-1.29,6.82 0,8.663 3.133,3.134 4.054,3.87 3.135,2.211 2.028,3.317-2.579.368-2.579.368-1.354.911-2.551.188c-.788-.477-.908-2.675-2.93-3.938-2.65-1.656-6.046-4.43-5.934-6.062 .214-3.131 2.728-.909-.198-7.328-2.079-4.562-7.373-9.584-7.373-9.584s-12.164,7.557-15.481,9.952c-3.317,2.396-4.977,2.028-6.267,3.871s-4.24,2.766-4.609,3.503-1.104,3.868-.183,4.422 3.87.368 3.87,2.396-2.027,2.581-2.027,2.581-3.131,2.028-4.054.922-2.212-1.475-2.949-1.475-1.845-6.82-.37-9.952 1.475-4.423 2.027-5.529 2.213-.369 4.056-1.106 6.082-14.376 8.479-18.062 3.686-6.082 3.686-6.082-13.64,11.98-18.615,20.458c-4.977,8.479-10.139,13.824-13.825,12.903s-4.607-4.426-3.686-6.084 4.056-2.209 4.792-.552-1.106,3.317-1.106,3.317 4.344.048 8.109-6.635c5.714-10.137 22.811-28.058 30.413-30.412 7.74-2.396 12.349-2.763 25.25-.736s17.51.184 17.51.184 9.768-7.37 12.717-7.74 14.374-2.765 18.615-2.027c4.24.735 8.109,1.288 6.266,5.159z"/>
</svg>
